/* XPM */
static char *result[] = {
/* columns rows colors chars-per-pixel */
"64 64 182 2 ",
"   c #3A3A3A",
".  c #364C3A",
"X  c #26753A",
"o  c #2D773D",
"O  c #2A7D3E",
"+  c #34703F",
"@  c #7E6B1D",
"#  c #4D7C33",
"$  c #5C7A31",
"%  c #6F6F23",
"&  c #746E22",
"*  c #6B7226",
"=  c #647529",
"-  c #697529",
";  c #3F5242",
":  c #3C5A42",
">  c #347A41",
",  c #444444",
"<  c #464A47",
"1  c #484848",
"2  c #425145",
"3  c #425946",
"4  c #535353",
"5  c #5D5D5D",
"6  c #56795B",
"7  c #587F5F",
"8  c #68655C",
"9  c #716B5D",
"0  c #636363",
"q  c #616F63",
"w  c gray42",
"e  c #647A68",
"r  c #747574",
"t  c #7A7874",
"y  c #7B7B7B",
"u  c #826B1C",
"i  c #826C25",
"p  c #826D2D",
"a  c #836F37",
"s  c #826F3A",
"d  c #837D45",
"f  c #847348",
"g  c #877A5B",
"h  c #837C67",
"j  c #837C6B",
"k  c #807E77",
"l  c #1A8339",
"z  c #1C8C3D",
"x  c #1D933D",
"c  c #1F993F",
"v  c #268937",
"b  c #2C8B3D",
"n  c #24903F",
"m  c #40863B",
"M  c #4D873D",
"N  c #4B893D",
"B  c #598539",
"V  c #4F923D",
"C  c #648132",
"Z  c #65873C",
"A  c #6C863D",
"S  c #67883E",
"D  c #74853E",
"F  c #7B853F",
"G  c #1D9240",
"H  c #1F9C44",
"J  c #268E43",
"K  c #2E8F47",
"L  c #318944",
"P  c #3C8548",
"I  c #358B4A",
"U  c #3A8B4C",
"Y  c #259344",
"T  c #289646",
"R  c #209F46",
"E  c #359D46",
"W  c #3B9C44",
"Q  c #35934C",
"!  c #3A9A48",
"~  c #20A147",
"^  c #21A449",
"/  c #2EA24A",
"(  c #23AE4D",
")  c #2BA94B",
"_  c #4B8240",
"`  c #5C8443",
"'  c #4A9A44",
"]  c #489F48",
"[  c #5A9644",
"{  c #549845",
"}  c #448751",
"|  c #4A8655",
" . c #418A51",
".. c #4E8A5A",
"X. c #558857",
"o. c #528C5D",
"O. c #469857",
"+. c #52925E",
"@. c #7B8843",
"#. c #6D9243",
"$. c #4BA15D",
"%. c #5B8663",
"&. c #568D60",
"*. c #5A8B63",
"=. c #5A9564",
"-. c #5B9465",
";. c #5B9966",
":. c #69876A",
">. c #638C6A",
",. c #64946B",
"<. c #639C6C",
"1. c #6E8771",
"2. c #6D8D72",
"3. c #748777",
"4. c #718C76",
"5. c #7D847E",
"6. c #768C79",
"7. c #7A8D7D",
"8. c #6A9271",
"9. c #669E70",
"0. c #6D9974",
"q. c #749278",
"w. c #759B7B",
"e. c #53A061",
"r. c #5CA268",
"t. c #65A570",
"y. c #73A67B",
"u. c #84833E",
"i. c #8B833F",
"p. c #8C8441",
"a. c #878A42",
"s. c #8C8942",
"d. c #948641",
"f. c #998742",
"g. c #9D8943",
"h. c #998748",
"j. c #9B894B",
"k. c #958554",
"l. c #9A8954",
"z. c #99895B",
"x. c #978A62",
"c. c #968B6C",
"v. c #9A8D68",
"b. c #868E77",
"n. c #968D73",
"m. c #958E7B",
"M. c #8B937E",
"N. c #9C9278",
"B. c #7D8F80",
"V. c #7F9181",
"C. c #7B9F80",
"Z. c #838383",
"A. c #848C85",
"S. c #8D8D84",
"D. c #8B8C8B",
"F. c #948F85",
"G. c #829184",
"H. c #839B87",
"J. c #8C928D",
"K. c #899C8B",
"L. c #9F9680",
"P. c #95928B",
"I. c #8F9490",
"U. c #8F9991",
"Y. c #959594",
"T. c #9A9790",
"R. c #969A95",
"E. c #979C98",
"W. c #999999",
"Q. c #A19C8F",
"!. c #86A58B",
"~. c #93A195",
"^. c #97A699",
"/. c #9BA59D",
"(. c #9FA9A0",
"). c #A3A3A3",
"_. c #A8A6A2",
"`. c #A4A9A5",
"'. c #ABAAA7",
"]. c #AAABAA",
"[. c #AEB0AE",
"{. c #B5B5B5",
/* pixels */
"d d d d u u u u d d d d u u u u g.g.g.g.g.g.g.g.g.g.g.g.g.g.g.g.g.g.g.g.g.g.g.g.g.g.g.g.g.g.g.g.u u u u d d d d @ u u u d d d d ",
"d d d d u u u u d d d d u u u u g.g.g.g.g.g.g.g.g.g.g.g.g.g.g.g.g.g.g.g.g.g.g.g.g.g.g.g.g.g.g.g.u u u u d d d d u u u u d d d d ",
"d d d d u u u u d d d d u u u u g.g.g.g.g.g.g.g.g.g.g.g.g.g.g.g.g.g.g.g.g.g.g.g.g.g.g.g.g.g.g.g.u u u u d d i.9 u u u u d d d d ",
"d d d d u u u u d d d d u u u u g.g.g.g.g.g.g.g.g.g.g.g.g.g.g.g.g.g.g.g.g.g.g.g.g.g.g.g.g.g.g.g.u u u u d p.u.p.u u u u d d d d ",
"u u u u u u u u u u u u g.g.g.g.g.g.g.g.u u u u u u u u g.g.g.g.g.g.g.g.u u u u u u u u g.g.g.g.g.g.g.g.u u u u u u u u u u u u ",
"u u u u u u u u u u u u g.g.g.g.g.g.g.g.u u u u u u u u g.g.g.g.g.g.g.g.u u @ @ u u u u g.g.g.g.g.g.g.g.u u u u u u u u u u u u ",
"u u u u u u u u u u u u g.g.g.g.g.g.g.g.u u u u u u u u i.g.g.g.g.i.i.i.B W / = @ u u u g.g.g.g.g.g.g.g.u u u u u u u u u u u u ",
"u u u u u u u u u u u u g.g.g.g.g.g.i.@.B N W ' V V C u a.{ s.g.] #.[ ( ( W & u u u u u g.g.g.g.g.g.g.g.u u u u u u u u u u u u ",
"u u u u g.g.g.g.g.g.g.g.g.g.g.g.g.F E ] ~ H R R ^ ( ( ( [ ! ) ] ( / ( ( W @ u u g.g.g.g.g.g.g.g.g.g.g.g.g.g.g.g.g.g.g.g.u u u u ",
"u u u u g.g.g.g.g.g.g.g.g.g.g.g.g.g.g.g.f.d.S b G G R ( ( ( ( ( ) ( ( ( - & C - f.g.g.g.g.g.g.g.g.g.g.g.g.g.g.g.g.g.g.g.u u u u ",
"u u u u g.g.g.g.g.g.g.g.g.g.g.g.g.g.g.g.f.D M m G G G ^ ( ( ( ( ( ( ( ^ E ( W $ s g.g.g.g.g.g.g.g.g.g.g.g.g.g.g.g.g.g.g.u u u u ",
"u u u u g.g.g.g.g.g.g.g.g.g.g.g.g.g.g.d.N G G G G G G G ( ( ( ( ( ( ( ~ G l z x b M #.f.g.g.g.g.g.g.g.g.g.g.g.g.g.g.g.g.u u u u ",
"u u u u g.g.g.g.g.g.g.g.g.g.g.g.g.g.g.i.d.f.i.@.l G G G ^ ( ( ( ( ( ( n x x b D s.s.D u.g.g.g.g.g.g.g.g.g.g.g.g.g.g.g.g.u u u u ",
"u u u u g.g.g.g.g.g.g.g.g.g.g.g.g.g.g.g.g.g.u.b l G R R ^ ( ( ( ( ( ( ( ^ x b b Z f.g.g.g.g.g.g.g.g.g.g.g.g.g.g.g.g.g.g.u u u u ",
"u u u u g.g.g.g.g.g.g.g.g.g.g.g.g.g.g.g.g.p.J G G G R ( ( ( ( ( ( ( ( ( ^ ^ ^ G G N f.g.g.g.g.g.g.g.g.g.g.g.g.g.g.g.g.g.u u u u ",
"u u u u g.g.g.g.g.g.g.g.g.g.g.g.g.g.g.g.g.N G G R ( ^ ( ( ( ( ( ( ( ( ( ( ( ^ z z G F g.g.g.g.g.g.g.g.g.g.g.g.g.g.g.g.g.u u u u ",
"g.g.g.g.g.g.g.g.g.g.g.g.g.g.g.g.u u u u & x x x G ( ( ( ( ( ( ( ( ( ( ( ( G H G z >.# u u u u u g.g.g.g.g.g.g.g.g.g.g.g.g.g.g.g.",
"g.g.g.g.g.g.g.g.g.g.g.g.g.g.g.g.u u u u $  .7.z G K R G ( R ^ ^ ( ( ^ ^ H G ..Q G K.b.p u u u u g.g.g.g.g.g.g.g.g.g.g.g.g.g.g.g.",
"g.g.g.g.g.g.g.g.g.g.g.g.g.g.g.g.u u u g | J.B.G &.&...G J G G G G H G G G G 8.~.G -.{.m.u u u u g.g.g.g.g.g.g.g.g.g.g.g.g.g.g.g.",
"g.g.g.g.g.g.g.g.g.g.g.g.g.g.g.g.u u f P.:.W.A.G B.7.D.I 3.%.2.I 1.G I 2.%.K 6.W.K &.{.'.i u u u g.g.g.g.g.g.g.g.g.g.g.g.g.g.g.g.",
"g.g.g.g.u u u u u u u u g.g.g.g.u p D.W.Y.W.Y.z Y.W.J.I J.I.D...W.*.*.I.B...I.W.&.-.{.{.s u u u g.g.g.g.u u u u u u u u g.g.g.g.",
"g.g.g.g.u u u u u u u u g.g.g.g.u f W.Y.W.W.W...Y.Y.W.I I.W.D.>.W.B.2.I.Y.3.Y.W...~.{.{.s u u u g.g.g.g.u u u u u u u u g.g.g.g.",
"g.g.g.g.u u u u u u u u g.g.g.g.u g W.W.W.W.W.7.B.W.Y. .A.Y.B.J.W.B.2.W.W.I.W.W.G.[.{.{.s u u u g.g.g.g.u u u u u u u u g.g.g.g.",
"g.g.g.g.u u u u u u u u g.g.g.g.u a Y.W.W.W.Y.A.B.W.A..   4 y Y.W.B.o.W.W.W.W.W.[.{.{.Q.u u u u g.g.g.g.u u u u u u u u g.g.g.g.",
"g.g.g.g.g.g.g.g.u u u u g.g.g.g.g.g.m.W.W.W.W.B.7.Y.0         0 W.Y.J I.W.W.D., , r T.g.g.g.g.g.g.g.g.g.u u u u g.g.g.g.g.g.g.g.",
"g.g.g.g.g.g.g.g.u u u u g.g.g.g.g.g.c.W.W.W.W.A.5.4             y [.0.~./.Y.4     4 l.g.g.g.g.g.g.g.g.g.u u u u g.g.g.g.g.g.g.g.",
"g.g.g.g.g.g.g.g.u u u u g.g.g.g.g.u.q.W.W.W.W.B.w               0 [.&.[.].D.      9 g.g.g.g.g.g.g.g.g.g.u u u u g.g.g.g.g.g.g.g.",
"g.g.g.g.g.g.g.g.u u u u g.g.g.g.g.g.P.W.W.W.W.W.D.,             0 W.V.{.].Y.4     8 g.g.g.g.g.g.g.g.g.g.u u u u g.g.g.g.g.g.g.g.",
"g.g.g.g.g.g.g.g.g.g.g.g.g.g.g.g.g.g.P.W.W.W.W.W.W.y             y W.{.{.{.W.D.4 5 w v.g.g.g.g.g.g.g.g.g.g.g.g.g.g.g.g.g.g.g.g.g.",
"g.g.g.g.g.g.g.g.g.g.g.g.g.g.g.g.g.g.c.W.W.W.W.W.W.W.4   1 w D.Y.Y.).{.).D.].W.W.T.).M.i.g.g.g.g.g.g.g.g.g.g.g.g.g.g.g.g.g.g.g.g.",
"g.g.g.g.g.g.g.g.g.g.g.g.g.g.g.g.g.g.j.F.W.6.2.).'.W.Y.Y.W.W.W.Y.).{.r ,   5 ].{.{.{.b.F g.g.g.g.g.g.g.g.g.g.g.g.g.g.g.g.g.g.g.g.",
"g.g.g.g.g.g.g.g.g.g.g.g.g.g.g.g.g.g.g.j.Y.D.T ( 8.I.W.W.W.W.W.].{.{.r w Z.5 Y.{.{.{.v.g.g.g.g.g.g.g.g.g.g.g.g.g.g.g.g.g.g.g.g.g.",
"g.g.g.g.g.g.g.g.g.g.g.g.g.g.g.g.g.z.P.Y.6.G ^ ( G U ).].).].{.{.{.{.{.).].).).{.{.{.L.j.g.g.g.g.g.g.g.g.g.g.g.g.g.g.g.g.g.g.g.g.",
"g.g.g.g.g.g.g.g.g.g.g.g.g.g.g.g.g.l.F.W.U U H ( Y q.[.{.{.{.{.{.{.{.{.{.{.{.{.{.{.{.].p.g.g.g.g.g.g.g.g.g.g.g.g.g.g.g.g.g.g.g.g.",
"g.g.g.g.g.g.g.g.g.g.g.g.g.g.g.g.g.g.m.W.U.C.Q Q I ].{.{.{.{.{.{.{.{.{.{.{.{.{.{.{.{.`.B g.g.g.g.g.g.g.g.g.g.g.g.g.g.g.g.g.g.g.g.",
"g.g.g.g.g.g.g.g.g.g.g.g.g.g.g.g.g.g.m.W.[.`.9.q.E.{.{.[.!.;.$.E.{.{.(.I.W.].{.W.(.^.> F g.g.g.g.g.g.g.g.g.g.g.g.g.g.g.g.g.g.g.g.",
"g.g.g.g.g.g.g.g.u u u u g.g.g.g.g.g.P.W.[.{.Q `.[.).Y.&.z z G 8.).{.,.Y Y.).).B.W.[.T.g.g.g.g.g.g.g.g.g.u u u u g.g.g.g.g.g.g.g.",
"g.g.g.g.g.g.g.g.u u u u g.g.g.g.g.j.W.W.{.{.T [.`.Y.y G : O : 8.).`.I 7.Y.W.).k M.E.N.g.g.g.g.g.g.g.g.g.u u u u g.g.g.g.g.g.g.g.",
"g.g.g.g.g.g.g.g.u u u u g.g.g.g.z.F.W.).{.{.=.U.W.Y.4 z 2 ; < 6.J.e  .Y.S._.Y.g A X.g.g.g.g.g.g.g.g.g.g.u u u u g.g.g.g.g.g.g.g.",
"g.g.g.g.g.g.g.g.u u u u g.g.g.g.m.W.).{.{.{.H.B.W.r < > : 1 < X w B.&.Y.5.e j g.S F g.g.g.g.g.g.g.g.g.g.u u u u g.g.g.g.g.g.g.g.",
"g.g.g.g.u u u u u u u u g.g.g.g.Y.).{.{.{.{.6.Y.Y.4 1 o : 1 < 3 y D.&.W.D.r h g.a g.g.g.u u u u g.g.g.g.u u u u u u u u g.g.g.g.",
"g.g.g.g.u u u u u u u u g.g.g.k.W.{.{.{.{.{.Y.W.D.1 < ; 1 1 1 4 D.D.U Y.Z.y g g.g.g.g.g.u u u u g.g.g.g.u u u u u u u u g.g.g.g.",
"g.g.g.g.u u u u u u u u g.g.g.m.).{.{.{.{.].W.W.q 1 1 1 1 1 1 5 D.W.U 7.y y h.g.g.g.g.g.u u u u g.g.g.g.u u u u u u u u g.g.g.g.",
"g.g.g.g.u u u u u u u u g.g.g.T.).{.{.{.{.W.W.J.: 1 1 1 1 1 1 0 Z.W.2.e y t g.g.g.g.g.g.u u u u g.g.g.g.u u u u u u u u g.g.g.g.",
"g.g.g.g.g.g.g.g.g.g.g.g.g.g.g.Y.W.{.{.{.).W.W.D.1 1 1 1 1 1 1 w B.Y.:.e y y g.g.u u u u u u u u g.g.g.g.g.g.g.g.g.g.g.g.g.g.g.g.",
"g.g.g.g.g.g.g.g.g.g.g.g.g.g.g.Y.).{.{.{.W.W.W.D.1 1 1 1 1 1 1 w Z.W.7 y y t g.g.u u u u u u u u g.g.g.g.g.g.g.g.g.g.g.g.g.g.g.g.",
"g.g.g.g.g.g.g.g.g.g.g.g.g.g.k.W.W.{.{.[.W.W.W.Y.1 1 1 1 1 1 1 w y W.Y.y y y h.g.u u u u u u u u g.g.g.g.g.g.g.g.g.g.g.g.g.g.g.g.",
"g.g.g.g.g.g.g.g.g.g.g.g.g.g.j.Y.W.].{.{.W.W.W.W.r 1 1 1 1 1 1 0 y Y.Y.y y y h g.u u u u u u u u g.g.g.g.g.g.g.g.g.g.g.g.g.g.g.g.",
"u u u u g.g.g.g.g.g.g.g.g.g.g.m.W.].{.{.W.W.W.W.Y.1 1 1 1 5 r 5 y Y.Y.Z.k y j g.g.m.Y.x.g.g.g.g.g.g.g.g.g.g.g.g.g.g.g.g.u u u u ",
"u u u u g.g.g.g.g.g.g.g.g.g.g.n.W.).{.{.W.W.W.W.W.5 1 1 < 5 W.Z.y Z.W.W.Z.y k l.g.F.W.Y.j.g.g.g.g.g.g.g.g.g.g.g.g.g.g.g.u u u u ",
"u u u u g.g.g.g.g.g.g.g.g.g.g.z.R.W.'.{.].W.W.W.W.A.> o + 6 W.J.L } W.V.L P 6.D.` :.W.W.c.g.g.g.g.g.g.g.g.g.g.g.g.g.g.g.u u u u ",
"u u u u g.g.g.g.g.g.g.g.g.g.g.g.l.c._.{.{.).W.W.W.W.J.A.,.V.W.R.,.6.W.G.*.4.Y.W.M.G.W.Y.D.@.g.g.g.g.g.g.g.g.g.g.g.g.g.g.u u u u ",
"u u u u g.g.g.g.g.g.g.g.g.g.g.g.g.g.j.[.{.{./.^.W.W.W.W.W.W.W.R.R.W.W.W.W.W.W.W.E.W.W.W.P.` g.g.g.g.g.g.g.g.g.g.g.g.g.g.u u u u ",
"u u u u g.g.g.g.g.g.g.g.g.g.g.g.g.g.g.l.[.{.{.(.Y.W.W.R.R.D.Y.).).J.P.W.W.W.W.Y.W.W.W.R.x.i.f.g.g.g.g.g.g.g.g.g.g.g.g.g.u u u u ",
"u u u u g.g.g.g.g.g.g.g.g.g.g.g.g.g.g.u.^._.{.(.0.E.W.Y.O.9.'._.].{.e.0.].W.W.+.R.Y.J.1.i.g.g.g.g.g.g.g.g.g.g.g.g.g.g.g.u u u u ",
"u u u u g.g.g.g.g.g.g.g.g.g.g.g.g.g.g.g.P +.M.e.e.y.;.O.R +.t.( ( y.! H <.r.w./ <.;.&._ g.g.g.g.g.g.g.g.g.g.g.g.g.g.g.g.u u u u ",
"u u u u u u u u u u u u g.g.g.g.g.g.g.g.= n c c c c c n x c c n x c x x x x c x x x v * g.g.g.g.g.g.g.g.u u u u u u u u u u u u ",
"u u u u u u u u u u u u g.g.g.g.g.g.g.g.u u & = = - & % A Z Z A Z Z Z D * % = = = & u u g.g.g.g.g.g.g.g.u u u u u u u u u u u u ",
"u u u u u u u u u u u u g.g.g.g.g.g.g.g.u u u u u u u u i.g.g.g.g.g.g.g.u u u u u u u u g.g.g.g.g.g.g.g.u u u u u u u u u u u u ",
"u u u u u u u u u u u u g.g.g.g.g.g.g.g.u u u u u u u u g.g.g.g.g.g.g.g.u u u u u u u u g.g.g.g.g.g.g.g.u u u u u u u u u u u u ",
"d d d d u u u u d d d d u u u u g.g.g.g.g.g.g.g.i.g.g.g.g.g.g.g.g.g.g.g.i.g.g.g.g.g.g.g.g.g.g.g.u u u u d d d d u u u u d d d d ",
"d d d d u u u u d d d d u u u u g.g.g.g.g.g.g.g.g.g.g.g.g.g.g.g.g.g.g.g.g.g.g.g.g.g.g.g.g.g.g.g.u u u u d d d d u u u u d d d d ",
"d d d d u u u u d d d d u u u u g.g.g.g.g.g.g.g.g.g.g.g.g.g.g.g.g.g.g.g.g.g.g.g.g.g.g.g.g.g.g.g.u u u u d d d d u u u u d d d d ",
"d d d d u u u u d d d d u u u u g.g.g.g.g.g.g.g.g.g.g.g.g.g.g.g.g.g.g.g.g.g.g.g.g.g.g.g.g.g.g.g.u u u u d d d d u u u u d d d d "
};
