/* XPM */
static char *result[] = {
/* columns rows colors chars-per-pixel */
"64 64 165 2 ",
"   c gray10",
".  c #1B1B1A",
"X  c #1D1B1A",
"o  c #211D1A",
"O  c #231E1A",
"+  c #261F1A",
"@  c #2A221A",
"#  c #2C221A",
"$  c #2C231A",
"%  c #2B251A",
"&  c #30231A",
"*  c #33251A",
"=  c #35261A",
"-  c #362E1A",
";  c #312C1E",
":  c #38281A",
">  c #3B281A",
",  c #3F351A",
"<  c #4A2F1A",
"1  c #4C301A",
"2  c #473C1B",
"3  c #57361B",
"4  c #57371B",
"5  c #59371A",
"6  c #59381B",
"7  c #5A381B",
"8  c #5C3A1B",
"9  c #5E3A1A",
"0  c #613C1B",
"q  c #613D1B",
"w  c #623C1B",
"e  c #623D1B",
"r  c #653F1B",
"t  c #663E1B",
"y  c #673F1B",
"u  c #403922",
"i  c #4E411B",
"p  c #55461B",
"a  c #5B4B1B",
"s  c #66401B",
"d  c #69411B",
"f  c #6A411B",
"g  c #6F431B",
"h  c #604F1B",
"j  c #70441B",
"k  c #70451B",
"l  c #72451B",
"z  c #74461B",
"x  c #75471B",
"c  c #76471B",
"v  c #76481B",
"b  c #784A1B",
"n  c #794A1B",
"m  c #7C4B1B",
"M  c #7D4C1B",
"N  c #7E4C1B",
"B  c #65531B",
"V  c #6A571B",
"C  c #6E5B1B",
"Z  c #725E1C",
"A  c #77621C",
"S  c #7B651C",
"D  c #7E681C",
"F  c #4C4326",
"G  c #564B29",
"H  c #55522F",
"J  c #5E532C",
"K  c #66592E",
"L  c #605C34",
"P  c #6D5F31",
"I  c #666137",
"U  c #746533",
"Y  c #7A6A35",
"T  c #736E3D",
"R  c #814E1B",
"E  c #834E1B",
"W  c #824F1B",
"Q  c #834F1B",
"!  c #84511B",
"~  c #85511B",
"^  c #86501B",
"/  c #87511B",
"(  c #86521B",
")  c #87521B",
"_  c #88521B",
"`  c #8B531B",
"'  c #8B541B",
"]  c #8C541B",
"[  c #8D551B",
"{  c #90571B",
"}  c #93581B",
"|  c #94591B",
" . c #955A1C",
".. c #955B1C",
"X. c #965B1C",
"o. c #975B1C",
"O. c #995C1C",
"+. c #995D1C",
"@. c #9B5E1C",
"#. c #9C5E1C",
"$. c #9E5F1C",
"%. c #816B1C",
"&. c #826B1C",
"*. c #A0601C",
"=. c #A1601C",
"-. c #A1611C",
";. c #A4621C",
":. c #A5631C",
">. c #A8651C",
",. c #A9651C",
"<. c #AC671C",
"1. c #B0691C",
"2. c #B16A1C",
"3. c #B36B1C",
"4. c #B46B1C",
"5. c #B66C1C",
"6. c #B76D1C",
"7. c #B76E1C",
"8. c #B86F1C",
"9. c #BA6F1C",
"0. c #BB701C",
"q. c #BA701D",
"w. c #BC711C",
"e. c #BD711C",
"r. c #BE711C",
"t. c #BE721C",
"y. c #806F38",
"u. c #85743A",
"i. c #8A793C",
"p. c #8F7D3E",
"a. c #C0731C",
"s. c #C1731C",
"d. c #C0731D",
"f. c #C1731D",
"g. c #C3741D",
"h. c #C4751D",
"j. c #C7771D",
"k. c #C7781D",
"l. c #CA791D",
"z. c #CB7A1D",
"x. c #CE7C1D",
"c. c #D37E1D",
"v. c #837D45",
"b. c #94813F",
"n. c #D7801D",
"m. c #D9821D",
"M. c #DA821D",
"N. c #DB821D",
"B. c #DF851D",
"V. c #E0861D",
"C. c #E3871D",
"Z. c #E4881D",
"A. c #E4881E",
"S. c #E6891E",
"D. c #E88B1E",
"F. c #E98B1E",
"G. c #EE8E1E",
"H. c #EF8E1E",
"J. c #F08F1E",
"K. c #F2901E",
"L. c #F3911E",
"P. c #F5921E",
"I. c #F7931E",
"U. c #998541",
"Y. c #9D8943",
/* pixels */
"v.v.v.v.&.&.&.&.v.v.v.v.&.&.&.&.Y.Y.Y.Y.Y.Y.Y.Y.Y.Y.Y.Y.Y.Y.Y.Y.Y.Y.Y.Y.Y.Y.Y.Y.Y.Y.Y.Y.Y.Y.Y.Y.&.&.&.&.v.v.v.v.&.&.&.&.v.v.v.v.",
"v.v.v.v.&.&.&.&.v.v.v.v.&.&.&.&.Y.Y.Y.Y.Y.Y.Y.Y.Y.Y.Y.Y.Y.Y.Y.Y.i.Y.Y.Y.Y.Y.Y.Y.Y.Y.Y.Y.Y.Y.Y.Y.&.&.&.&.v.v.v.v.&.&.&.&.v.v.v.v.",
"v.v.v.v.&.&.&.&.v.v.v.v.&.&.&.&.Y.Y.Y.Y.Y.Y.Y.Y.Y.Y.Y.Y.Y.Y.Y.p.U Y.Y.Y.Y.Y.Y.Y.Y.Y.Y.Y.Y.Y.Y.Y.&.&.&.&.v.v.v.v.&.&.&.&.v.v.v.v.",
"v.v.v.v.&.&.&.&.v.v.v.v.&.&.&.&.Y.Y.Y.Y.Y.Y.Y.Y.Y.Y.Y.Y.Y.Y.Y.i.G Y.Y.Y.Y.b.Y.Y.Y.Y.Y.Y.Y.Y.Y.Y.&.&.&.&.v.v.v.v.&.&.&.&.v.v.v.v.",
"&.&.&.&.&.&.&.&.&.&.&.&.Y.Y.Y.Y.Y.Y.Y.Y.&.&.&.&.&.&.&.&.Y.Y.Y.Y F Y.Y.Y.&.h Z &.&.&.&.&.Y.Y.Y.Y.Y.Y.Y.Y.&.&.&.&.&.&.&.&.&.&.&.&.",
"&.&.&.&.&.&.&.&.&.&.&.&.Y.Y.Y.Y.Y.Y.Y.Y.&.&.&.&.&.&.&.&.Y.Y.Y.U   Y.Y.Y.&., B &.&.&.&.&.Y.Y.Y.Y.Y.Y.Y.Y.&.&.&.&.&.&.&.&.&.&.&.&.",
"&.&.&.&.&.&.&.&.&.&.&.&.Y.Y.Y.Y.Y.Y.Y.Y.&.&.&.&.&.&.&.&.Y.Y.b.    u Y.Y.S   p &.&.&.&.&.Y.Y.Y.Y.Y.Y.Y.Y.&.&.&.&.&.&.&.&.&.&.&.&.",
"&.&.&.&.&.&.&.&.&.&.&.&.Y.Y.Y.Y.Y.Y.Y.Y.&.&.&.&.&.&.&.&.Y.Y.Y.G   U Y.Y.D , A &.&.&.&.&.Y.Y.Y.Y.Y.Y.Y.Y.&.&.&.&.&.&.&.&.&.&.&.&.",
"&.&.&.&.Y.Y.Y.Y.Y.Y.Y.Y.Y.Y.Y.Y.Y.Y.Y.Y.Y.Y.Y.Y.&.&.&.&.Y.Y.Y.    K Y.Y.&.2 &.&.Y.Y.Y.Y.Y.Y.Y.Y.Y.Y.Y.Y.Y.Y.Y.Y.Y.Y.Y.Y.&.&.&.&.",
"&.&.&.&.Y.Y.Y.Y.Y.Y.Y.Y.Y.Y.Y.Y.Y.Y.Y.Y.Y.Y.Y.Y.&.&.&.&.Y.Y.y.    F Y.Y.&.2 &.&.Y.Y.Y.Y.Y.Y.Y.Y.Y.Y.Y.Y.Y.Y.Y.Y.Y.Y.Y.Y.&.&.&.&.",
"&.&.&.&.Y.Y.Y.Y.Y.Y.Y.Y.Y.Y.Y.Y.Y.Y.Y.Y.Y.Y.Y.Y.&.&.&.&.p.Y u       p.i., a &.&.Y.Y.Y.Y.Y.Y.Y.Y.Y.Y.Y.Y.Y.Y.Y.Y.Y.Y.Y.Y.&.&.&.&.",
"&.&.&.&.Y.Y.Y.Y.Y.Y.Y.Y.Y.Y.Y.Y.Y.Y.Y.Y.Y.Y.Y.Y.&.&.&.&.Y.y.        G Y.2 &.&.&.Y.Y.Y.Y.Y.Y.Y.Y.Y.Y.Y.Y.Y.Y.Y.Y.Y.Y.Y.Y.&.&.&.&.",
"&.&.&.&.Y.Y.Y.Y.Y.Y.Y.Y.Y.Y.Y.Y.Y.Y.Y.Y.Y.Y.Y.Y.Y.Y.Y.Y.p.u   l M 7   U G Y.Y.Y.Y.Y.Y.Y.Y.Y.Y.Y.Y.Y.Y.Y.Y.Y.Y.Y.Y.Y.Y.Y.&.&.&.&.",
"&.&.&.&.Y.Y.Y.Y.Y.Y.Y.Y.Y.Y.Y.Y.Y.Y.Y.Y.Y.Y.Y.y.i.Y.Y.b.F   . C.5.m.    G Y.Y.U.i.p.Y.Y.Y.Y.Y.Y.Y.Y.Y.Y.Y.Y.Y.Y.Y.Y.Y.Y.&.&.&.&.",
"&.&.&.&.Y.Y.Y.Y.Y.Y.Y.Y.Y.Y.Y.Y.Y.Y.Y.Y.Y.Y.i.y.Y.Y.u.F     t h.` r.7     P U.Y.Y.; Y.Y.Y.Y.Y.Y.Y.Y.Y.Y.Y.Y.Y.Y.Y.Y.Y.Y.&.&.&.&.",
"&.&.&.&.Y.Y.Y.Y.Y.Y.Y.Y.Y.Y.Y.Y.Y.Y.Y.Y.Y.Y.Y.Y U Y U U G   s 8.` 9.y   G U Y U K p.Y.Y.Y.Y.Y.Y.Y.Y.Y.Y.Y.Y.Y.Y.Y.Y.Y.Y.&.&.&.&.",
"Y.Y.Y.Y.Y.Y.Y.Y.Y.Y.Y.Y.Y.Y.Y.Y.&.&.&.&.&.&.&.&.Y.Y.Y.Y.U   j M.=.M.t   U Y.Y.Y.&.&.&.&.&.S &.&.Y.Y.Y.Y.U.Y.Y.Y.Y.Y.Y.Y.Y.Y.Y.Y.",
"Y.Y.Y.Y.Y.Y.Y.Y.Y.Y.Y.Y.Y.Y.Y.Y.&.&.&.&.&.&.&.&.Y.Y.Y.Y.U               U Y.Y.Y.&.&.&.&.&.V D &.Y.Y.Y.Y y.Y.Y.Y.Y.Y.Y.Y.Y.Y.Y.Y.",
"Y.Y.Y.Y.Y.Y.Y.Y.Y.Y.Y.Y.Y.Y.Y.Y.&.&.&.&.&.&.&.&.Y.Y.Y.Y.U               U Y.Y.Y.&.&.&.&.&.2 Z &.Y.Y.U.; U Y.Y.Y.Y.Y.Y.Y.Y.Y.Y.Y.",
"Y.Y.Y.Y.Y.Y.Y.Y.Y.Y.Y.Y.Y.Y.Y.Y.&.&.&.&.&.&.&.&.Y.Y.Y.                      Y.Y.&.&.&.&.S   i &.Y.Y.U.G i.Y.Y.Y.Y.Y.Y.Y.Y.Y.Y.Y.",
"Y.Y.Y.Y.&.&.&.&.&.&.&.&.Y.Y.Y.Y.&.&.&.&.Y.Y.Y.Y.Y.Y.U.      m ,.g t.e       b.Y.Y.Y.Y.Y.Z   p &.Y.Y.b.Y &.&.&.&.&.&.&.&.Y.Y.Y.Y.",
"Y.Y.Y.Y.&.&.&.&.&.&.&.&.Y.Y.Y.Y.&.&.&.&.Y.Y.Y.Y.Y.Y.i.    ' I.M.E F.m.8     i.Y.Y.Y.Y.U.,     Z Y.u.P p.&.&.&.&.&.&.&.&.Y.Y.Y.Y.",
"Y.Y.Y.Y.&.&.&.&.&.&.&.&.Y.Y.Y.Y.&.&.&.&.Y.Y.Y.Y.Y.Y.i.    R -.( 9 6.t._     i.U.U.Y.b.J       % u.y.U.U.&.&.&.&.&.&.&.&.Y.Y.Y.Y.",
"Y.Y.Y.Y.&.&.&.&.&.&.&.&.Y.P Y.Y.&.&.&.&.Y.Y.Y.Y.Y.Y.U     3 B.M.^ I.c.<     i.b.u.K ;             F Y i.&.&.&.&.&.&.&.&.Y.Y.Y.Y.",
"Y.Y.Y.Y.Y.Y.Y.Y.&.&.&.&.b.F Y.Y.Y.Y.Y.Y.Y.Y.Y.Y.Y.Y.U       . w 1 j         i.Y.Y.                  G Y.&.&.&.&.Y.Y.Y.Y.Y.Y.Y.Y.",
"Y.Y.Y.Y.Y.Y.Y.Y.&.&.&.&.i.  Y.Y.Y.Y.Y.Y.Y.Y.Y.Y.Y.Y.K                       i.Y.Y.G       # W o.    G Y.&.&.&.&.Y.Y.Y.Y.Y.Y.Y.Y.",
"Y.Y.Y.Y.Y.Y.Y.Y.&.&.&.&.U   p.Y.Y.Y.Y.Y.Y.Y.Y.Y.Y.Y.                        y.Y.Y.J       >.M.I.v   G Y.&.&.&.&.Y.Y.Y.Y.Y.Y.Y.Y.",
"Y.Y.Y.Y.Y.Y.Y.Y.&.&.&.&.G   y.Y.Y.Y.Y.Y.Y.Y.Y.Y.Y.Y.                        U Y.Y.U       ( | 9.[   G Y.&.&.&.&.Y.Y.Y.Y.Y.Y.Y.Y.",
"Y.Y.Y.Y.Y.Y.Y.Y.Y.Y.Y.G     ; U Y.Y.Y.Y.Y.Y.Y.Y.&.S                         h &.Y.i.      D.M.S.x.  G Y.Y.Y.Y.Y.Y.Y.Y.Y.Y.Y.Y.Y.",
"Y.Y.Y.Y.Y.b.Y.Y.Y.Y.Y.Y     u u.Y.Y.Y.Y.Y.Y.Y.Y.&.Z                         h &.Y.Y.      N.s.M.M.  G Y.Y.Y.Y.Y.Y.Y.Y.Y.Y.Y.Y.Y.",
"Y.Y.Y.Y.Y.Y p.Y.Y.Y.Y.Y     u b.Y.Y.Y.Y.Y.Y.Y.Y.&.Z                         2 h G u       d.3.z.z.  G Y.Y.Y.Y.Y.Y.Y.Y.Y.Y.Y.Y.Y.",
"Y.Y.Y.Y.U.F u Y.Y.Y.Y.u       U Y.Y.Y.Y.Y.Y.Y.Y.&.h                                                 G Y.Y.Y.Y.Y.Y.Y.Y.Y.Y.Y.Y.Y.",
"Y.Y.Y.Y.Y.i.i.Y.u.Y.K           b.p.i.Y.Y.Y.Y.p.V 2                                                 G Y.Y.Y.Y.Y.Y.Y.Y.Y.Y.Y.Y.Y.",
"Y.Y.Y.Y.Y.i.i.Y.b.U               p.U.Y.Y.Y.Y.G                                                     G Y.Y.Y.Y.Y.Y.Y.Y.Y.Y.Y.Y.Y.",
"Y.Y.Y.Y.Y.U.U i.u.                u b.Y.Y.Y.Y.G                                                     G Y.Y.Y.Y.Y.Y.Y.Y.Y.Y.Y.Y.Y.",
"b.p.Y.Y.Y.Y.Y.K ;                   F b.Y.Y.Y.G             > 2.  j.+                 G ;           P Y.Y.Y.Y.Y.Y.Y.Y.Y.Y.Y.Y.Y.",
"Y Y.Y.Y.Y.U.J                           U U.Y.G           X n.M.  I.3.                Y.G           Y.Y.&.&.&.&.Y.Y.Y.Y.Y.Y.Y.Y.",
"J p.Y.b.U ;           j <.$ 7.6           u Y F           Q I.M.  I.I.f               Y.G           Y.Y.&.&.&.&.Y.Y.Y.Y.Y.Y.Y.Y.",
"b.i.i.b.Y.Y.G       x G.M.  I.Z.&                         g.I.M.  I.I.3.              Y.G           G G 2 2 2 V Y.Y.Y.Y.Y.Y.Y.Y.",
"Y.Y.Y.Y.Y.Y.y.      O.#.!   $.@.~                       * :.a.9.  H.I.B.              Y.G               2 2 Z &.Y.Y.Y.Y.Y.Y.Y.Y.",
"Y.Y.Y.Y.&.&.A     4 G.I.M.  I.I.L.o                     0 ] d =     : e               Y.2               2 2 Z &.&.&.&.&.Y.Y.Y.Y.",
"Y.Y.Y.Y.&.&.&.    5 ;.O.)   ..X.+.@                     4.I.I.M.  V.c.f.d             Y.2           G G 2 2 A &.&.&.&.&.Y.Y.Y.Y.",
"Y.b.i.i.Z Z Z %   d I.I.M.  I.I.P.+                     t.I.I.M.  I.I.I.6.            Y.2           Y.Y.&.&.&.&.&.&.&.&.Y.Y.Y.Y.",
"Y.b.K F ,         O ^ ^ c   ^ ^ N                       l.I.I.M.  I.I.I.0.            Y.2           Y.Y.&.&.&.&.&.&.&.&.Y.Y.Y.Y.",
"Y.Y.U G P                                               z.I.I.M.  I.I.I.d.            V ,           Y.Y.Y.Y.Y.Y.Y.Y.Y.Y.Y.Y.Y.Y.",
"Y.Y.i.U U U U G                                         / ;.;.{    . . .b                           Y.Y.Y.Y.Y.Y.Y.Y.Y.Y.Y.Y.Y.Y.",
"Y.Y.Y.Y.Y.Y.Y.i.                                        n  . ._   ;.;.;.M                           y.U.Y.Y.Y.Y.Y.Y.Y.Y.Y.Y.Y.Y.",
"Y.Y.Y.Y.Y.Y.Y.b.u                                       e.I.I.M.  I.I.I.1.                              Y.Y.Y.Y.Y.Y.Y.Y.Y.Y.Y.Y.",
"&.&.&.&.Y.Y.Y.Y.G                                       / 5.5.=.  5.5.5.r                               Y.Y.Y.Y.Y.Y.Y.Y.&.&.&.&.",
"&.&.&.&.Y.Y.Y.Y.u.U U U U J                                                                             Y.Y.Y.Y.Y.Y.Y.Y.&.&.&.&.",
"&.&.&.&.Y.Y.Y.Y.Y.Y.b.y.G                                                                               Y.Y.Y.Y.Y.Y.Y.Y.&.&.&.&.",
"&.&.&.&.Y.b.i.U K F                                                                 }   z               Y.Y.Y.Y.Y.Y.Y.Y.&.&.&.&.",
"Z C h 2 G G                                                                       k K.  J.7             Y.Y.Y.Y.Y.Y.Y.Y.&.&.&.%.",
"&.&.&.&.Y.Y.Y.U                                                                   *.w.  #.q             U.Y.Y.Y.Y.Y.Y.Y.&.&.&.%.",
"&.&.&.&.Y.Y.Y.y.G u   ; u ; F ; u                                                 l.V.  I.h.            ; U U.Y.Y.Y.Y.Y.&.&.&.%.",
"&.&.&.&.Y.Y.Y.Y.Y.U   K G G i.G y.                                                q.k.  z.2.                  G U U u.i.&.&.&.%.",
"&.&.&.&.&.&.&.&.&.h   h G G i.G i.                                                A.I.  I.j.                  % %   2 h h Z S %.",
"&.&.&.&.&.&.&.&.&.h   h G G i.G i.                                                                      &.h Z 2 2   h &.&.&.&.%.",
"&.&.&.&.&.&.&.&.&.h   h G G i.G i.u                                                                     &.h Z - 2   h &.&.&.&.%.",
"&.&.&.&.&.&.&.&.&.h   h ; G i.G i.G                                                                     &.h Z   a   h &.&.&.&.%.",
"v.v.v.v.&.&.&.&.v.L   T   2 Z 2 i.G                                                                     v.L T   h   h &.v.v.v.v.",
"v.v.v.v.&.&.&.&.v.L                                                                                     T H I   p   h &.v.v.v.v.",
"v.v.v.v.&.&.&.&.v.L                                                                                                 h &.v.v.v.v.",
"v.v.v.v.&.&.&.&.v.v.v.v.&.&.&.&.Y.Y.Y.Y.Y.Y.Y.Y.Y.Y.Y.Y.Y.Y.Y.Y.Y.Y.Y.Y.Y.Y.Y.Y.Y.Y.Y.Y.Y.Y.Y.Y.&.&.&.&.v.v.v.v.&.&.&.&.v.v.v.v."
};
