/* XPM */
static char *result[] = {
/* columns rows colors chars-per-pixel */
"64 64 181 2 ",
"   c #261D08",
".  c #2B220A",
"X  c #2C230B",
"o  c #362909",
"O  c #3E300F",
"+  c #352D12",
"@  c #382F14",
"#  c #3B3215",
"$  c #3C3623",
"%  c #44320E",
"&  c #49360F",
"*  c #4C3C0D",
"=  c #4B3811",
"-  c #433A19",
";  c #493F1B",
":  c #523C11",
">  c #54450F",
",  c #4D421D",
"<  c #584010",
"1  c #5C4B11",
"2  c #604715",
"3  c #624C14",
"4  c #645213",
"5  c #6B5715",
"6  c #715416",
"7  c #705C17",
"8  c #7B5B17",
"9  c #725519",
"0  c #7D5C18",
"q  c #7D671B",
"w  c #7F681B",
"e  c #444122",
"r  c #48472E",
"t  c #554622",
"y  c #554A21",
"u  c #5A4E23",
"i  c #585226",
"p  c #454436",
"a  c #494737",
"s  c #615326",
"d  c #655728",
"f  c #675A2A",
"g  c #6B5D2B",
"h  c #6F602D",
"j  c #71622E",
"k  c #746530",
"l  c #7C6C34",
"z  c #605B45",
"x  c #7C7B58",
"c  c #7E7963",
"v  c #82631D",
"b  c #8B671A",
"n  c #826B1C",
"m  c #8F691A",
"M  c #936D1D",
"N  c #98701C",
"B  c #836520",
"V  c #8E6E24",
"C  c #80662C",
"Z  c #8C732E",
"A  c #947022",
"S  c #9C7522",
"D  c #9C7824",
"F  c #9D7929",
"G  c #827136",
"H  c #8E7B3C",
"J  c #917830",
"K  c #927F3E",
"L  c #A57D23",
"P  c #A37E2A",
"I  c #837D45",
"U  c #95823F",
"Y  c #AC8224",
"T  c #A7812B",
"R  c #B48624",
"E  c #BA8B27",
"W  c #B28A2B",
"Q  c #B98E2B",
"!  c #BD912D",
"~  c #AE8C3C",
"^  c #B08B39",
"/  c #BC9233",
"(  c #C4942B",
")  c #CD9B2D",
"_  c #D39F2D",
"`  c #C69934",
"'  c #CB9C33",
"]  c #CCA33A",
"[  c #D2A235",
"{  c #D8A735",
"}  c #D3A63F",
"|  c #D5AA3A",
" . c #DCAC3B",
".. c #DDB23E",
"X. c #E1AE3A",
"o. c #E5B43C",
"O. c #E8B33C",
"+. c #888243",
"@. c #978440",
"#. c #998641",
"$. c #9D8943",
"%. c #B99947",
"&. c #B5AB41",
"*. c #C2A24D",
"=. c #C9A349",
"-. c #D0A747",
";. c #D5AD40",
":. c #DDAE44",
">. c #D5AD4B",
",. c #C7BC4C",
"<. c #DFB642",
"1. c #DCB34C",
"2. c #E3B445",
"3. c #E4B846",
"4. c #E7BE46",
"5. c #ECBA43",
"6. c #EDBD49",
"7. c #F2BD44",
"8. c #EEC446",
"9. c #E6C349",
"0. c #EEC349",
"q. c #ECCA4B",
"w. c #F4C345",
"e. c #F4C44B",
"r. c #FBC64B",
"t. c #F5CA4C",
"y. c #FECC4C",
"u. c #F7D24E",
"i. c #FED04E",
"p. c #ECC950",
"a. c #F9C655",
"s. c #F5CC50",
"d. c #FACD52",
"f. c #F7D150",
"g. c #FFD552",
"h. c #FEDA55",
"j. c #F9D55B",
"k. c #FDDE5A",
"l. c #FEE25B",
"z. c #FFE95E",
"x. c #D8D865",
"c. c #DBD674",
"v. c #FDDB63",
"b. c #FDDC6B",
"n. c #F7D076",
"m. c #F9DF77",
"M. c #FBDB7A",
"N. c #FBE361",
"B. c #FFEB62",
"V. c #FEEF69",
"C. c #FFF366",
"Z. c #FFF46B",
"A. c #FCE572",
"S. c #FEE57A",
"D. c #FEEC7A",
"F. c #FEF975",
"G. c #FFF77E",
"H. c #979782",
"J. c #D1D08F",
"K. c #FBDA87",
"L. c #FEF484",
"P. c #FEFC85",
"I. c #FBF68C",
"U. c #FEF494",
"Y. c #FFFD91",
"T. c #FFF49B",
"R. c #FEFE9C",
"E. c #CBC9B3",
"W. c #FCE9A5",
"Q. c #FEF3A4",
"!. c #FEFCA4",
"~. c #FDF2AA",
"^. c #FFFCAC",
"/. c #FFFCB4",
"(. c #FAF5B9",
"). c #D6D4C9",
"_. c #FEFAC7",
"`. c #FEFCCA",
"'. c #E5E4D5",
"]. c #FAF9DA",
"[. c #FEFDDB",
/* pixels */
"I I I I n n n n I I I I n n n n $.$.$.$.$.$.$.$.$.$.$.$.$.$.$.$.$.$.$.$.$.$.$.$.$.$.$.$.$.$.$.$.n n n n I I I I n n n n I I I I ",
"I I I I n n n n I I I I n n n n $.$.$.$.$.$.$.$.$.$.$.$.$.$.$.$.$.$.$.$.$.$.$.$.$.$.$.$.$.$.$.$.n n n n I I I I n n n n I I I I ",
"I I I I n n n n I I I I n n n n $.$.$.$.$.$.$.$.$.$.$.$.$.$.$.$.$.$.$.$.$.$.$.$.$.$.$.$.$.$.$.$.n n n n I I I I n n n n I I I I ",
"I I I I n n n n I I I I n n n n $.$.$.$.$.$.$.$.$.$.$.$.$.$.$.$.$.$.$.$.$.$.$.$.$.$.$.$.$.$.$.$.n n n n I I I I n n n n I I I I ",
"n n n n n n n n n n n n $.$.$.$.$.$.$.$.n n n n n n n n $.$.$.$.$.$.$.$.n n n n n n n n $.$.$.$.$.$.$.$.n n n n n n n n n n n n ",
"n n n n n n n n n n n n $.$.$.$.$.$.$.$.n n n n n n n n $.$.$.$.$.$.$.$.n n n n n n n n $.$.$.$.$.$.$.$.n n n n n n n n n n n n ",
"n n n n n n n n n n n n $.$.$.$.$.$.$.$.n n n n n n n n $.$.$.$.$.$.$.$.n n n n n n n n $.$.$.$.$.$.$.$.n n n n n n n n n n n n ",
"n n n n n n n n n n n n $.$.$.$.$.$.$.$.n n n n n n n n $.$.$.$.$.$.$.$.n n n n n n n n $.$.$.$.$.$.$.$.n n n n n n n n n n n n ",
"n n n n $.$.$.$.$.$.$.$.$.$.$.$.$.$.$.$.$.$.$.$.n n n n $.$.$.$.$.$.$.$.n n n n $.$.$.$.$.$.$.$.$.$.$.$.$.$.$.$.$.$.$.$.n n n n ",
"n n n n $.$.$.$.$.$.$.$.$.$.$.$.$.$.$.$.$.$.$.$.n n n n $.$.$.$.$.$.$.$.n n n n $.$.$.$.$.$.$.$.$.$.$.$.$.$.$.$.$.$.$.$.n n n n ",
"n n n n $.$.$.$.$.$.$.$.$.$.$.$.$.$.$.$.$.$.$.$.n n n n $.$.$.$.$.$.$.$.n n n n $.$.$.$.$.$.$.$.$.$.$.$.$.$.$.$.$.$.$.$.n n n n ",
"n n n n $.$.$.$.$.$.$.$.$.$.$.$.$.$.$.$.$.$.$.$.n n n n $.$.$.$.$.$.$.$.n n n n $.$.$.$.$.$.$.$.$.$.$.$.$.$.$.$.$.$.$.$.n n n n ",
"n n n n $.$.$.$.$.$.$.$.$.$.$.$.$.$.$.$.$.$.$.$.$.$.$.$.$.$.$.$.$.$.$.$.$.$.$.$.$.$.$.$.$.$.$.$.$.$.$.$.$.$.$.$.$.$.$.$.n n n n ",
"n n n n $.$.$.$.$.$.$.$.$.$.$.$.$.$.$.$.$.$.$.$.$.$.$.$.$.$.$.$.$.$.$.$.$.$.$.$.$.$.$.$.$.$.$.$.$.$.$.$.$.$.$.$.$.$.$.$.n n n n ",
"n n n n $.$.$.$.$.$.$.$.$.$.$.$.$.$.$.$.$.$.$.$.$.$.$.$.$.$.$.$.$.$.$.$.$.$.$.$.$.$.$.$.$.$.$.$.$.$.$.$.$.$.$.$.$.$.$.$.n n n n ",
"n n n n $.$.$.$.$.$.$.$.$.$.$.$.$.$.$.$.$.$.$.$.$.$.$.$.$.$.$.$.$.$.$.$.$.$.$.$.$.$.$.$.$.$.$.$.$.$.$.$.$.$.$.$.$.$.$.$.n n n n ",
"$.$.$.$.$.$.$.$.$.$.$.$.$.$.$.$.n n n n n n n n $.$.$.$.$.#.@.#.$.@.@.$.#.$.$.$.n n n n n n n n $.$.$.$.$.$.$.$.$.$.$.$.$.$.$.$.",
"$.$.$.$.$.$.$.$.$.$.$.$.$.$.$.$.n n n n n n n n $.$.@.k u # p a a r e # u l #.$.n n n n n n n n $.$.$.$.$.$.$.$.$.$.$.$.$.$.$.$.",
"$.$.$.$.$.$.$.$.$.$.$.$.$.$.$.$.n n n n n n n n K d $ c E.).`.`./.!.I.x.,.s # g q n n n n n n n $.$.$.$.$.$.$.$.$.$.$.$.$.$.$.$.",
"$.$.$.$.$.$.$.$.$.$.$.$.$.$.$.$.n n n n n n n 4 $ H.'.[./.L.B.l.l.l.N.V.C.z...q o 5 n n n n n n $.$.$.$.$.$.$.$.$.$.$.$.$.$.$.$.",
"$.$.$.$.n n n n n n n n $.$.$.$.n n n n $.#.d z ).[.U.l.3.>.=.*.*.*.-.1.0.k.z.y.Q O h U n n n n $.$.$.$.n n n n n n n n $.$.$.$.",
"$.$.$.$.n n n n n n n n $.$.$.$.n n n n #.u c ].(.v.] Z $.=.-.:.:.3.1.>.^ T <.h.u._ % h n n n n $.$.$.$.n n n n n n n n $.$.$.$.",
"$.$.$.$.n n n n n n n n $.$.$.$.n n B w d x ].T.p.A B / 7.d.h.h.h.h.k.h.e.] D ! u.y.) % 1 n n n $.$.$.$.n n n n n n n n $.$.$.$.",
"$.$.$.$.n n n n n n n n $.$.$.$.n n w 4 i (.T.9.v F 2.d.h.h.h.h.h.h.h.h.h.g.t./ W u.w.E o 7 n n $.$.$.$.n n n n n n n n $.$.$.$.",
"$.$.$.$.$.$.$.$.n n n n $.$.$.$.$.$.#.# J.!.s.v T 6.h.h.h.h.h.h.h.h.g.g.g.g.h.d.] Q i.o.b , @.$.$.$.$.$.n n n n $.$.$.$.$.$.$.$.",
"$.$.$.$.$.$.$.$.n n n n $.$.$.$.$.$.k +.!.N.D F 6.h.g.d.d.r.r.y.y.r.y.y.y.i.g.g.i.` { i.( % l $.$.$.$.$.n n n n $.$.$.$.$.$.$.$.",
"$.$.$.$.$.$.$.$.n n n n $.$.$.$.$.U # c.L.;.B 2.h.g.7.[ } [ [ [ [ } [ [ [ X.y.h.g.e.E t.5.m , $.$.$.$.$.n n n n $.$.$.$.$.$.$.$.",
"$.$.$.$.$.$.$.$.n n n n $.$.$.$.$.G i P.l.V / f.h.g.X.V %.&.*.*.*.%.*.*.%.| z.h.g.y.X.{ y.R o H $.$.$.$.n n n n $.$.$.$.$.$.$.$.",
"$.$.$.$.$.$.$.$.$.$.$.$.$.$.$.$.$.h &.F.q.B 4.h.h.g.O.M 3.e.6.e.e.6.5.0.2.9.B.h.g.g.e.) y.) : l $.$.$.$.$.$.$.$.$.$.$.$.$.$.$.$.",
"$.$.$.$.$.$.$.$.$.$.$.$.$.$.$.$.$., &.C.] T g.h.h.y.X.A t.h.g.h.g.h.h.g.y.t.B.h.g.i.y.{ f.X.9 y $.$.$.$.$.$.$.$.$.$.$.$.$.$.$.$.",
"$.$.$.$.$.$.$.$.$.$.$.$.$.$.$.$.$.o q.z.W / h.h.h.y.X.A t.h.h.h.g.h.h.i.y.q.C.h.i.i.y.O.t.5.M @ $.$.$.$.$.$.$.$.$.$.$.$.$.$.$.$.",
"$.$.$.$.$.$.$.$.$.$.$.$.$.$.$.$.$.. u.l.T } h.h.g.i.X.A s.h.g.h.g.g.i.i.y.t.B.h.g.i.y.7.t.w.N # $.$.$.$.$.$.$.$.$.$.$.$.$.$.$.$.",
"$.$.$.$.$.$.$.$.$.$.$.$.$.$.$.$.U . w.k.P  .g.h.h.y.X.A t.h.h.i.g.g.g.g.r.q.B.h.i.i.y.w.u.7.M @ $.$.$.$.$.$.$.$.$.$.$.$.$.$.$.$.",
"$.$.$.$.$.$.$.$.$.$.$.$.$.$.$.$.~ . o.l.Q ;.h.h.g.y.X.M t.g.i.h.g.g.i.g.r.w.B.h.i.y.y.r.h.O.b # $.$.$.$.$.$.$.$.$.$.$.$.$.$.$.$.",
"$.$.$.$.$.$.$.$.$.$.$.$.$.$.$.$.$.# ! h.| ` g.g.g.y.X.A r.g.g.g.i.i.g.y.r.8.B.h.i.y.r.h.z. .6 ; $.$.$.$.$.$.$.$.$.$.$.$.$.$.$.$.",
"$.$.$.$.$.$.$.$.$.$.$.$.$.$.$.$.$.f D r.4.W i.g.i.i.X.A e.i.i.i.i.y.y.y.w.8.z.h.i.y.a.l.h.! = j $.$.$.$.$.$.$.$.$.$.$.$.$.$.$.$.",
"$.$.$.$.$.$.$.$.n n n n $.$.$.$.$.l 4 o.g.Y e.g.i.i.O.%.W.~.~.~.Q.Q.Q.Q.~.A.N.g.y.y.j.N.t.S o H $.$.$.$.n n n n $.$.$.$.$.$.$.$.",
"$.$.$.$.$.$.$.$.n n n n $.$.$.$.$.U X ( y...` i.g.i.h.P.R.R.R.!.R.R.R.R.R.R.B.g.y.r.D.V.X.0 @ U $.$.$.$.n n n n $.$.$.$.$.$.$.$.",
"$.$.$.$.$.$.$.$.n n n n $.$.$.$.$.$.s 0 X.u.! 5.y.g.h.l.z.z.B.z.z.z.z.z.l.l.h.y.r.m.G.t.L % g $.$.$.$.$.n n n n $.$.$.$.$.$.$.$.",
"$.$.$.$.$.$.$.$.n n n n $.$.$.$.$.$.H . R w.e.( e.y.g.g.g.g.h.g.g.h.g.i.i.y.y.r.M.Y.b.[ 8 + U $.$.$.$.$.n n n n $.$.$.$.$.$.$.$.",
"$.$.$.$.n n n n n n n n $.$.$.$.n n n 1 : ( r.8.) w.y.y.i.i.y.i.i.y.y.y.y.r.r.K.!.S.o.b . 4 w n $.$.$.$.n n n n n n n n $.$.$.$.",
"$.$.$.$.n n n n n n n n $.$.$.$.n n n w , 6 ) w.e.{ 7.r.y.y.y.y.y.y.y.r.r.a.W.^.S.O.M & * w n n $.$.$.$.n n n n n n n n $.$.$.$.",
"$.$.$.$.n n n n n n n n $.$.$.$.n n n n U - 6 ! w.u.w.w.h.d.a.r.r.a.a.n.W.^.Q.b. .M = , q n n n $.$.$.$.n n n n n n n n $.$.$.$.",
"$.$.$.$.n n n n n n n n $.$.$.$.n n n n $.H , < L | r.k.Z.P.Y.U.T.Q._._.Q.S.6.( 8 % t @.n n n n $.$.$.$.n n n n n n n n $.$.$.$.",
"$.$.$.$.$.$.$.$.$.$.$.$.$.$.$.$.n n n n w n w > + 8 Y [ 7.d.k.A.S.S.v.a.o.( M 2   > w n n n n n $.$.$.$.$.$.$.$.$.$.$.$.$.$.$.$.",
"$.$.$.$.$.$.$.$.$.$.$.$.$.$.$.$.n n n n n n w w l - O 9 F Q ` ' [ ` / T B 3 X , 7 w n n n n n n $.$.$.$.$.$.$.$.$.$.$.$.$.$.$.$.",
"$.$.$.$.$.$.$.$.$.$.$.$.$.$.$.$.n n n n n n w n $.#.G u X X s Z J C t   + i G $.n n n n n n n n $.$.$.$.$.$.$.$.$.$.$.$.$.$.$.$.",
"$.$.$.$.$.$.$.$.$.$.$.$.$.$.$.$.n n n n n n n n $.$.$.$.$.H l j h j l H $.$.$.$.n n n n n n n n $.$.$.$.$.$.$.$.$.$.$.$.$.$.$.$.",
"n n n n $.$.$.$.$.$.$.$.$.$.$.$.$.$.$.$.$.$.$.$.$.$.$.$.$.$.$.$.$.$.$.$.$.$.$.$.$.$.$.$.$.$.$.$.$.$.$.$.$.$.$.$.$.$.$.$.n n n n ",
"n n n n $.$.$.$.$.$.$.$.$.$.$.$.$.$.$.$.$.$.$.$.$.$.$.$.$.$.$.$.$.$.$.$.$.$.$.$.$.$.$.$.$.$.$.$.$.$.$.$.$.$.$.$.$.$.$.$.n n n n ",
"n n n n $.$.$.$.$.$.$.$.$.$.$.$.$.$.$.$.$.$.$.$.$.$.$.$.$.$.$.$.$.$.$.$.$.$.$.$.$.$.$.$.$.$.$.$.$.$.$.$.$.$.$.$.$.$.$.$.n n n n ",
"n n n n $.$.$.$.$.$.$.$.$.$.$.$.$.$.$.$.$.$.$.$.$.$.$.$.$.$.$.$.$.$.$.$.$.$.$.$.$.$.$.$.$.$.$.$.$.$.$.$.$.$.$.$.$.$.$.$.n n n n ",
"n n n n $.$.$.$.$.$.$.$.$.$.$.$.$.$.$.$.$.$.$.$.n n n n $.$.$.$.$.$.$.$.n n n n $.$.$.$.$.$.$.$.$.$.$.$.$.$.$.$.$.$.$.$.n n n n ",
"n n n n $.$.$.$.$.$.$.$.$.$.$.$.$.$.$.$.$.$.$.$.n n n n $.$.$.$.$.$.$.$.n n n n $.$.$.$.$.$.$.$.$.$.$.$.$.$.$.$.$.$.$.$.n n n n ",
"n n n n $.$.$.$.$.$.$.$.$.$.$.$.$.$.$.$.$.$.$.$.n n n n $.$.$.$.$.$.$.$.n n n n $.$.$.$.$.$.$.$.$.$.$.$.$.$.$.$.$.$.$.$.n n n n ",
"n n n n $.$.$.$.$.$.$.$.$.$.$.$.$.$.$.$.$.$.$.$.n n n n $.$.$.$.$.$.$.$.n n n n $.$.$.$.$.$.$.$.$.$.$.$.$.$.$.$.$.$.$.$.n n n n ",
"n n n n n n n n n n n n $.$.$.$.$.$.$.$.n n n n n n n n $.$.$.$.$.$.$.$.n n n n n n n n $.$.$.$.$.$.$.$.n n n n n n n n n n n n ",
"n n n n n n n n n n n n $.$.$.$.$.$.$.$.n n n n n n n n $.$.$.$.$.$.$.$.n n n n n n n n $.$.$.$.$.$.$.$.n n n n n n n n n n n n ",
"n n n n n n n n n n n n $.$.$.$.$.$.$.$.n n n n n n n n $.$.$.$.$.$.$.$.n n n n n n n n $.$.$.$.$.$.$.$.n n n n n n n n n n n n ",
"n n n n n n n n n n n n $.$.$.$.$.$.$.$.n n n n n n n n $.$.$.$.$.$.$.$.n n n n n n n n $.$.$.$.$.$.$.$.n n n n n n n n n n n n ",
"+.x U l n n n n I I I I n n n n $.$.$.$.$.$.$.$.$.$.$.$.$.$.$.$.$.$.$.$.$.$.$.$.$.$.$.$.$.$.$.$.n n n n I I I I n n n n I I I I ",
"x H I I n n n n I I I I n n n n $.$.$.$.$.$.$.$.$.$.$.$.$.$.$.$.$.$.$.$.$.$.$.$.$.$.$.$.$.$.$.$.n n n n I I I I n n n n I I I I ",
"I I I I n n n n I I I I n n n n $.$.$.$.$.$.$.$.$.$.$.$.$.$.$.$.$.$.$.$.$.$.$.$.$.$.$.$.$.$.$.$.n n n n I I I I n n n n I I I I ",
"I I I I n n n n I I I +.n n n n $.$.$.$.$.$.$.$.$.$.$.$.$.$.$.$.$.$.$.$.$.$.$.$.$.$.$.$.$.$.$.$.n n n n I I I I n n n n I I I I "
};
