/* XPM */
static char *result[] = {
/* columns rows colors chars-per-pixel */
"64 64 124 2 ",
"   c #271E09",
".  c #2B230C",
"X  c #2F280F",
"o  c #302206",
"O  c #33250A",
"+  c #372A0E",
"@  c #3B2B0E",
"#  c #352C11",
"$  c #382F13",
"%  c #3C3314",
"&  c #43310E",
"*  c #433615",
"=  c #4A3612",
"-  c #543F13",
";  c #5B4311",
":  c #5E4C11",
">  c #52461F",
",  c #654A13",
"<  c #6A4E13",
"1  c #665414",
"2  c #6E5114",
"3  c #735515",
"4  c #775815",
"5  c #7A5A16",
"6  c #7F5F19",
"7  c #524720",
"8  c #554A21",
"9  c #5C4F24",
"0  c #5F5326",
"q  c #615427",
"w  c #655728",
"e  c #675929",
"r  c #6B5D2B",
"t  c #72632E",
"y  c #756630",
"u  c #7D6C34",
"i  c #805F16",
"p  c #84621A",
"a  c #8A661B",
"s  c #826B1C",
"d  c #936D1A",
"f  c #96701E",
"g  c #9D741D",
"h  c #A1771E",
"j  c #A57A1F",
"k  c #A97D1F",
"l  c #85712E",
"z  c #957326",
"x  c #9B7321",
"c  c #96752B",
"v  c #806F35",
"b  c #827136",
"n  c #8C7A3B",
"m  c #A67C20",
"M  c #AA7E21",
"N  c #837D45",
"B  c #8D832C",
"V  c #94813E",
"C  c #AD8021",
"Z  c #A98229",
"A  c #B38522",
"S  c #BD8C23",
"D  c #B78A28",
"F  c #BA8B2C",
"G  c #AF9031",
"H  c #AB9D3C",
"J  c #CA9626",
"K  c #CB9728",
"L  c #D69E28",
"P  c #C79831",
"I  c #C49838",
"U  c #D7A12B",
"Y  c #D5A732",
"T  c #D8A330",
"R  c #E6A92A",
"E  c #E9AD2B",
"W  c #EBB235",
"Q  c #ECB63B",
"!  c #DDC43D",
"~  c #F1C135",
"^  c #FCC032",
"/  c #FECF38",
"(  c #FFD13B",
")  c #978440",
"_  c #9A8642",
"`  c #9D8943",
"'  c #A9A140",
"]  c #A9A45D",
"[  c #D6AA53",
"{  c #D1AE65",
"}  c #FCC641",
"|  c #FDCB44",
" . c #F9CE4C",
".. c #FED944",
"X. c #EAD052",
"o. c #FFDD51",
"O. c #FFE94C",
"+. c #FFE254",
"@. c #FFE758",
"#. c #FFF156",
"$. c #EAE164",
"%. c #FAEA61",
"&. c #FFF765",
"*. c #FFFC65",
"=. c #FFFE6C",
"-. c #FBF77D",
";. c #FFFF7C",
":. c #DBC291",
">. c #E8D589",
",. c #F2EA87",
"<. c #FDF783",
"1. c #FFFF84",
"2. c #FEFD8B",
"3. c #FFFF94",
"4. c #F7F79C",
"5. c #FDFC9B",
"6. c #EAD7A8",
"7. c #FFFFA2",
"8. c #FFFFAA",
"9. c #FEFEB4",
"0. c #FFFFBC",
"q. c #FAF2C7",
"w. c #FEFEC2",
"e. c #FFFFD1",
/* pixels */
"N N N N s s s s N N N N s s s s ` ` ` ` ` ` ` ` ` ` ` ` ` ` ` ` ` ` ` ` ` ` ` ` ` ` ` ` ` ` ` ` s s s s N N N N s s s s N N N N ",
"N N N N s s s s N N N N s s s s ` ` ` ` ` ` ` ` ` ` ` ` ` ` ` ` ` ` ` ` ` ` ` ` ` ` ` ` ` ` ` ` s s s s N N N N s s s s N N N N ",
"N N N N s s s s N N N N s s s s ` ` ` ` ` ` ` ` ` ` ` ` ` ` ` ` ` ` ` ` ` ` ` ` ` ` ` ` ` ` ` ` s s s s N N N N s s s s N N N N ",
"N N N N s s s s N N N N s s s s ` ` ` ` ` ` ` ` ` ` ` ` ` ` ` ` ` ` ` ` ` ` ` ` ` ` ` ` ` ` ` ` s s s s N N N N s s s s N N N N ",
"s s s s s s s s s s s s ` ` ` ` ` ` ` ` s s s s s s s s ` ` ` ` ` ` ` ` s s s s s s s s ` ` ` ` ` ` ` ` s s s s s s s s s s s s ",
"s s s s s s s s s s s s ` ` ` ` ` ` ` ` s s s s s s s s ` ` ` ` ` ` ` ` s s s s s s s s ` ` ` ` ` ` ` ` s s s s s s s s s s s s ",
"s s s s s s s s s s s s ` ` ` ` ` ` ` ` s s s s s s s s ` ` ` ` ` ` ` ` s s s s s s s s ` ` ` ` ` ` ` ` s s s s s s s s s s s s ",
"s s s s s s s s s s s s ` ` ` ` ` ` ` ` s s s s s s s s ` ` ` ` ` ` ` ` s s s s s s s s ` ` ` ` ` ` ` ` s s s s s s s s s s s s ",
"s s s s ` ` ` ` ` ` ` ` ` ` ` ` ` ` ` ` ` ` ` ` s s s s ` ` ` ` ` ` ` ` s s s s ` ` ` ` ` ` ` ` ` ` ` ` ` ` ` ` ` ` ` ` s s s s ",
"s s s s ` ` ` ` ` ` ` ` ` ` ` ` ` ` ` ` ` ` ` ` s s s s ` ` ` ` ` ` ` ` s s s s ` ` ` ` ` ` ` ` ` ` ` ` ` ` ` ` ` ` ` ` s s s s ",
"s s s s ` ` ` ` ` ` ` ` ` ` ` ` ` ` ` ` ` ` ` ` s s s s ` ` ` ` ` ` ` ` s s s s ` ` ` ` ` ` ` ` ` ` ` ` ` ` ` ` ` ` ` ` s s s s ",
"s s s s ` ` ` ` ` ` ` ` ` ` ` ` ` ` ` ` ` ` ` ` s s s s ` ` ` ` ` ` ` ` s s s s ` ` ` ` ` ` ` ` ` ` ` ` ` ` ` ` ` ` ` ` s s s s ",
"s s s s ` ` ` ` ` ` ` ` ` ` ` ` ` ` ` ` ` ` ` ` ` ` ` ` ` ` ` ` ` ` ` ` ` ` ` ` ` ` ` ` ` ` ` ` ` ` ` ` ` ` ` ` ` ` ` ` s s s s ",
"s s s s ` ` ` ` ` ` ` ` ` ` ` ` ` ` ` ` ` ` ` ` ` ` ` ` ` ` ` ` ` ` ` ` ` ` ` ` ` ` ` ` ` ` ` ` ` ` ` ` ` ` ` ` ` ` ` ` s s s s ",
"s s s s ` ` ` ` ` ` ` ` ` ` ` ` ` ` ` ` ` ` ` ` ` ` ` ` ` ` ` ` ` ` ` ` ` ` ` ` ` ` ` ` ` ` ` ` ` ` ` ` ` ` ` ` ` ` ` ` s s s s ",
"s s s s ` ` ` ` ` ` ` ` ` ` ` ` ` ` ` ` ` ` ` ` ` ` ` ` ` ` ` ` ` ` ` ` ` ` ` ` ` ` ` ` ` ` ` ` ` ` ` ` ` ` ` ` ` ` ` ` s s s s ",
"` ` ` ` ` ` ` ` ` ` ` ` ` ` ` ` s s s s s s s s ` ` n 0 + . . . .     > v _ ` ` s s s s s s s s ` ` ` ` ` ` ` ` ` ` ` ` ` ` ` ` ",
"` ` ` ` ` ` ` ` ` ` ` ` ` ` ` ` s s s s s s s s _ e @ f U R E R J M g < + w _ ` s s s s s s s s ` ` ` ` ` ` ` ` ` ` ` ` ` ` ` ` ",
"` ` ` ` ` ` ` ` ` ` ` ` ` ` ` ` s s s s s s s s 0 4 E ^ ^ ^ ^ K k p i i i O q ` s s s s s s s s ` ` ` ` ` ` ` ` ` ` ` ` ` ` ` ` ",
"` ` ` ` ` ` ` ` ` ` ` ` ` ` ` ` s s s s s s s : , ~ / ( / ..Y j i 4 2 3 5 4   y s s s s s s s s ` ` ` ` ` ` ` ` ` ` ` ` ` ` ` ` ",
"` ` ` ` s s s s s s s s ` ` ` ` s s s s ` ` n % ! O.O.O.#.X.M 6 < < < < < 3 , # ) ` ` ` s s s s ` ` ` ` s s s s s s s s ` ` ` ` ",
"` ` ` ` s s s s s s s s ` ` ` ` s s s s ` ` q B &.*.*.=.<.P a < 2 3 3 2 < < 4 + r ` ` ` s s s s ` ` ` ` s s s s s s s s ` ` ` ` ",
"` ` ` ` s s s s s s s s ` ` ` ` s s s s ` V # $.;.1.1.3.>.M 4 3 3 4 3 3 3 < < , % ) ` ` s s s s ` ` ` ` s s s s s s s s ` ` ` ` ",
"` ` ` ` s s s s s s s s ` ` ` ` s s s s ` u u 2.5.7.7.w.[ d 3 3 4 4 4 4 3 3 < 3 . n ` ` s s s s ` ` ` ` s s s s s s s s ` ` ` ` ",
"` ` ` ` ` ` ` ` s s s s ` ` ` ` ` ` ` ` _ 8 ] 8.9.9.w.q.F 5 3 4 4 5 5 3 5 3 < 3 = q ` ` ` ` ` ` ` ` ` ` s s s s ` ` ` ` ` ` ` ` ",
"` ` ` ` ` ` ` ` s s s s ` ` ` ` ` ` ` ` _ . ,.9.w.w.e.6.m 4 4 4 4 4 5 3 4 3 2 < , * _ ` ` ` ` ` ` ` ` ` s s s s ` ` ` ` ` ` ` ` ",
"` ` ` ` ` ` ` ` s s s s ` ` ` ` ` ` ` ` n % 4.9.0.w.e.:.d 4 4 2 2 2 2 2 3 5 3 < < # V ` ` ` ` ` ` ` ` ` s s s s ` ` ` ` ` ` ` ` ",
"` ` ` ` ` ` ` ` s s s s ` ` ` ` ` ` ` ` u l 5.8.9.9.w.{ a 4 4 < < < < , 2 3 3 < 3 o n ` ` ` ` ` ` ` ` ` s s s s ` ` ` ` ` ` ` ` ",
"` ` ` ` ` ` ` ` ` ` ` ` ` ` ` ` ` ` ` ` t ' 2.3.5.5.9.I 6 3 4 2 3 3 3 < 2 5 3 2 < O b ` ` ` ` ` ` ` ` ` ` ` ` ` ` ` ` ` ` ` ` ` ",
"` ` ` ` ` ` ` ` ` ` ` ` ` ` ` ` ` ` ` ` w ' ;.;.1.2.5.D 5 3 4 3 3 3 3 < 2 5 3 2 < + t ` ` ` ` ` ` ` ` ` ` ` ` ` ` ` ` ` ` ` ` ` ",
"` ` ` ` ` ` ` ` ` ` ` ` ` ` ` ` ` ` ` ` 0 H &.*.=.=.-.C 4 4 4 3 3 4 4 < 2 5 3 2 1 * e ` ` ` ` ` ` ` ` ` ` ` ` ` ` ` ` ` ` ` ` ` ",
"` ` ` ` ` ` ` ` ` ` ` ` ` ` ` ` ` ` ` ` > G o.+.+.@.%.m 4 4 5 4 4 4 4 < 2 5 3 2 < = q ` ` ` ` ` ` ` ` ` ` ` ` ` ` ` ` ` ` ` ` ` ",
"` ` ` ` ` ` ` ` ` ` ` ` ` ` ` ` ` ` ` ` 7 Z } } } |  .m 5 4 5 3 4 4 4 < 2 4 4 2 < = q ` ` ` ` ` ` ` ` ` ` ` ` ` ` ` ` ` ` ` ` ` ",
"` ` ` ` ` ` ` ` ` ` ` ` ` ` ` ` ` ` ` _ 9 x W W W W Q h 3 4 4 3 4 4 3 < 2 5 4 < < * e _ ` ` ` ` ` ` ` ` ` ` ` ` ` ` ` ` ` ` ` ` ",
"` ` ` ` ` ` ` ` ` ` ` ` ` ` ` ` ` ` ` ` e a L L T T T h 5 4 4 3 4 4 3 < 2 5 4 < < + u ` ` ` ` ` ` ` ` ` ` ` ` ` ` ` ` ` ` ` ` ` ",
"` ` ` ` ` ` ` ` ` ` ` ` ` ` ` ` ` ` ` ` y i J J K K J x 5 4 4 2 3 3 2 , 2 5 3 < < O b ` ` ` ` ` ` ` ` ` ` ` ` ` ` ` ` ` ` ` ` ` ",
"` ` ` ` ` ` ` ` s s s s ` ` ` ` ` ` ` ` v - S S J J S g i 5 4 , , , , , 2 4 3 < 3 . n ` ` ` ` ` ` ` ` ` s s s s ` ` ` ` ` ` ` ` ",
"` ` ` ` ` ` ` ` s s s s ` ` ` ` ` ` ` ` n . M S M A M g i 5 4 3 3 3 3 3 3 4 3 < < X n ` ` ` ` ` ` ` ` ` s s s s ` ` ` ` ` ` ` ` ",
"` ` ` ` ` ` ` ` s s s s ` ` ` ` ` ` ` ` ) X g k k k k h i 5 3 4 4 4 4 5 5 3 < < < * _ ` ` ` ` ` ` ` ` ` s s s s ` ` ` ` ` ` ` ` ",
"` ` ` ` ` ` ` ` s s s s ` ` ` ` ` ` ` ` _ 9 , g g h h g i 5 3 4 4 5 5 4 4 3 < 2 * e ` ` ` ` ` ` ` ` ` ` s s s s ` ` ` ` ` ` ` ` ",
"` ` ` ` s s s s s s s s ` ` ` ` s s s s ` v & d d d d f a 5 3 3 4 4 4 4 3 2 < 3   n ` ` s s s s ` ` ` ` s s s s s s s s ` ` ` ` ",
"` ` ` ` s s s s s s s s ` ` ` ` s s s s ` ) $ 3 a p a a x 5 4 2 3 4 4 4 2 < 2 , * _ ` ` s s s s ` ` ` ` s s s s s s s s ` ` ` ` ",
"` ` ` ` s s s s s s s s ` ` ` ` s s s s ` ` r & 5 5 6 i c i 6 3 2 2 3 2 < < 4 O y ` ` ` s s s s ` ` ` ` s s s s s s s s ` ` ` ` ",
"` ` ` ` s s s s s s s s ` ` ` ` s s s s ` ` N $ < 5 5 5 i z 5 5 2 < , < < 4 ; * ) ` ` ` s s s s ` ` ` ` s s s s s s s s ` ` ` ` ",
"` ` ` ` ` ` ` ` ` ` ` ` ` ` ` ` s s s s a s s 1   2 5 5 5 p a 5 5 4 3 4 5 3   v s s s s s s s s ` ` ` ` ` ` ` ` ` ` ` ` ` ` ` ` ",
"` ` ` ` ` ` ` ` ` ` ` ` ` ` ` ` s s s s s s s s e . < 5 5 5 p 6 5 i 5 5 < O r _ s s s s s s s s ` ` ` ` ` ` ` ` ` ` ` ` ` ` ` ` ",
"` ` ` ` ` ` ` ` ` ` ` ` ` ` ` ` s s s s s s s s ` y O $ > , < 2 2 3 , * . t _ ` s s s s s s s s ` ` ` ` ` ` ` ` ` ` ` ` ` ` ` ` ",
"` ` ` ` ` ` ` ` ` ` ` ` ` ` ` ` s s s s s s s s ` ` n y 7 * $ # O . * e n _ ` ` s s s s s s s s ` ` ` ` ` ` ` ` ` ` ` ` ` ` ` ` ",
"s s s s ` ` ` ` ` ` ` ` ` ` ` ` ` ` ` ` ` ` ` ` ` ` ` ` ` ` ` ` ` ` ` ` ` ` ` ` ` ` ` ` ` ` ` ` ` ` ` ` ` ` ` ` ` ` ` ` s s s s ",
"s s s s ` ` ` ` ` ` ` ` ` ` ` ` ` ` ` ` ` ` ` ` ` ` ` ` ` ` ` ` ` ` ` ` ` ` ` ` ` ` ` ` ` ` ` ` ` ` ` ` ` ` ` ` ` ` ` ` s s s s ",
"s s s s ` ` ` ` ` ` ` ` ` ` ` ` ` ` ` ` ` ` ` ` ` ` ` ` ` ` ` ` ` ` ` ` ` ` ` ` ` ` ` ` ` ` ` ` ` ` ` ` ` ` ` ` ` ` ` ` s s s s ",
"s s s s ` ` ` ` ` ` ` ` ` ` ` ` ` ` ` ` ` ` ` ` ` ` ` ` ` ` ` ` ` ` ` ` ` ` ` ` ` ` ` ` ` ` ` ` ` ` ` ` ` ` ` ` ` ` ` ` s s s s ",
"s s s s ` ` ` ` ` ` ` ` ` ` ` ` ` ` ` ` ` ` ` ` s s s s ` ` ` ` ` ` ` ` s s s s ` ` ` ` ` ` ` ` ` ` ` ` ` ` ` ` ` ` ` ` s s s s ",
"s s s s ` ` ` ` ` ` ` ` ` ` ` ` ` ` ` ` ` ` ` ` s s s s ` ` ` ` ` ` ` ` s s s s ` ` ` ` ` ` ` ` ` ` ` ` ` ` ` ` ` ` ` ` s s s s ",
"s s s s ` ` ` ` ` ` ` ` ` ` ` ` ` ` ` ` ` ` ` ` s s s s ` ` ` ` ` ` ` ` s s s s ` ` ` ` ` ` ` ` ` ` ` ` ` ` ` ` ` ` ` ` s s s s ",
"s s s s ` ` ` ` ` ` ` ` ` ` ` ` ` ` ` ` ` ` ` ` s s s s ` ` ` ` ` ` ` ` s s s s ` ` ` ` ` ` ` ` ` ` ` ` ` ` ` ` ` ` ` ` s s s s ",
"s s s s s s s s s s s s ` ` ` ` ` ` ` ` s s s s s s s s ` ` ` ` ` ` ` ` s s s s s s s s ` ` ` ` ` ` ` ` s s s s s s s s s s s s ",
"s s s s s s s s s s s s ` ` ` ` ` ` ` ` s s s s s s s s ` ` ` ` ` ` ` ` s s s s s s s s ` ` ` ` ` ` ` ` s s s s s s s s s s s s ",
"s s s s s s s s s s s s ` ` ` ` ` ` ` ` s s s s s s s s ` ` ` ` ` ` ` ` s s s s s s s s ` ` ` ` ` ` ` ` s s s s s s s s s s s s ",
"s s s s s s s s s s s s ` ` ` ` ` ` ` ` s s s s s s s s ` ` ` ` ` ` ` ` s s s s s s s s ` ` ` ` ` ` ` ` s s s s s s s s s s s s ",
"N N N N s s s s N N N N s s s s ` ` ` ` ` ` ` ` ` ` ` ` ` ` ` ` ` ` ` ` ` ` ` ` ` ` ` ` ` ` ` ` s s s s N N N N s s s s N N N N ",
"N N N N s s s s N N N N s s s s ` ` ` ` ` ` ` ` ` ` ` ` ` ` ` ` ` ` ` ` ` ` ` ` ` ` ` ` ` ` ` ` s s s s N N N N s s s s N N N N ",
"N N N N s s s s N N N N s s s s ` ` ` ` ` ` ` ` ` ` ` ` ` ` ` ` ` ` ` ` ` ` ` ` ` ` ` ` ` ` ` ` s s s s N N N N s s s s N N N N ",
"N N N N s s s s N N N N s s s s ` ` ` ` ` ` ` ` ` ` ` ` ` ` ` ` ` ` ` ` ` ` ` ` ` ` ` ` ` ` ` ` s s s s N N N N s s s s N N N N "
};
