/* XPM */
static char *result[] = {
/* columns rows colors chars-per-pixel */
"64 64 247 2 ",
"   c #2F2507",
".  c #28200A",
"X  c #29200A",
"o  c #2A220C",
"O  c #2B230D",
"+  c #382D07",
"@  c #382D08",
"#  c #393115",
"$  c #3A3215",
"%  c #3B3216",
"&  c #3C3316",
"*  c #3D3416",
"=  c #3E3517",
"-  c #3F3617",
";  c #4D390F",
":  c #523E0F",
">  c #4D3A10",
",  c #403718",
"<  c #413718",
"1  c #423918",
"2  c #453B1A",
"3  c #463C1A",
"4  c #473D1A",
"5  c #473D1B",
"6  c #483E1B",
"7  c #493F1B",
"8  c #4A401C",
"9  c #4E431E",
"0  c #5A4111",
"q  c #584112",
"w  c #5B4312",
"e  c #694D13",
"r  c #6E5114",
"t  c #705214",
"y  c #715315",
"u  c #715316",
"i  c #725415",
"p  c #745515",
"a  c #795915",
"s  c #7B5A15",
"d  c #785817",
"f  c #74571A",
"g  c #75581B",
"h  c #75591C",
"j  c #7A5A18",
"k  c #7E5D18",
"l  c #7D671B",
"z  c #7E671B",
"x  c #534820",
"c  c #574B22",
"v  c #594D23",
"b  c #685A2A",
"n  c #6B5D2B",
"m  c #72632F",
"M  c #82611B",
"N  c #83621A",
"B  c #856318",
"V  c #87661E",
"C  c #8A671D",
"Z  c #80691B",
"A  c #816B1C",
"S  c #826B1C",
"D  c #916C1B",
"F  c #956E1B",
"G  c #966F1B",
"H  c #976F1B",
"J  c #906B1D",
"K  c #97701E",
"L  c #9B731C",
"P  c #9C731D",
"I  c #9C741C",
"U  c #9F751D",
"Y  c #9F761D",
"T  c #A0771D",
"R  c #A1781D",
"E  c #A3791E",
"W  c #A5791E",
"Q  c #A67B1E",
"!  c #AA7D1E",
"~  c #AA7D1F",
"^  c #896A22",
"/  c #8F7020",
"(  c #8B7025",
")  c #8D7528",
"_  c #917626",
"`  c #927229",
"'  c #93732A",
"]  c #91772B",
"[  c #987529",
"{  c #937A2B",
"}  c #93792F",
"|  c #927A2F",
" . c #9D7A28",
".. c #9D7A2B",
"X. c #9A792F",
"o. c #9D7A2C",
"O. c #9F7B2C",
"+. c #847337",
"@. c #877639",
"#. c #8B793A",
"$. c #AB7E20",
"%. c #A27E29",
"&. c #837D45",
"*. c #AF8120",
"=. c #AE8221",
"-. c #B08321",
";. c #B58623",
":. c #B68722",
">. c #B68824",
",. c #B68825",
"<. c #BC8B25",
"1. c #BC8D26",
"2. c #BD8D26",
"3. c #CE9925",
"4. c #C29328",
"5. c #C29229",
"6. c #C39329",
"7. c #C49429",
"8. c #C69A2E",
"9. c #CB9A2D",
"0. c #CC9A2D",
"q. c #C99F37",
"w. c #D6A42B",
"e. c #DEA328",
"r. c #D4A131",
"t. c #D5A232",
"y. c #D6A332",
"u. c #D8A432",
"i. c #D8A834",
"p. c #DFAB37",
"a. c #D9A93F",
"s. c #E4A929",
"d. c #E6AA29",
"f. c #E7AB29",
"g. c #EBAD2A",
"h. c #F3B52E",
"j. c #F8BA2E",
"k. c #FABA2F",
"l. c #FBBA2F",
"z. c #E1AD38",
"x. c #EBB63E",
"c. c #EEB73F",
"v. c #FDC133",
"b. c #988440",
"n. c #988441",
"m. c #988541",
"M. c #998541",
"N. c #998641",
"B. c #9A8641",
"V. c #9A8642",
"C. c #9A8742",
"Z. c #9B8742",
"A. c #9B8842",
"S. c #9C8842",
"D. c #9C8843",
"F. c #9C8943",
"G. c #9D8943",
"H. c #CDA341",
"J. c #C6A44D",
"K. c #CEA94C",
"L. c #D0A34B",
"P. c #D9A94B",
"I. c #CAA750",
"U. c #CAA850",
"Y. c #CCA950",
"T. c #CDAB52",
"R. c #CDAB53",
"E. c #D2A655",
"W. c #D7A957",
"Q. c #DAA954",
"!. c #D4A758",
"~. c #D6A858",
"^. c #D8B556",
"/. c #D9B557",
"(. c #D6B358",
"). c #D8B559",
"_. c #EFB940",
"`. c #F0BA40",
"'. c #F4C145",
"]. c #F8C648",
"[. c #FDCF4E",
"{. c #FED14F",
"}. c #FED451",
"|. c #FED753",
" X c #FBDA56",
".X c #FEE55D",
"XX c #FDEC60",
"oX c #FFEE62",
"OX c #FFF266",
"+X c #FFF566",
"@X c #FFF368",
"#X c #FCF06A",
"$X c #FFF76A",
"%X c #FEF871",
"&X c #FFF874",
"*X c #FDF67E",
"=X c #FFFD78",
"-X c #FFF97D",
";X c #FFFF7C",
":X c #FEFF7E",
">X c #FFFF82",
",X c #FFFF84",
"<X c #FFFD8B",
"1X c #FEF98E",
"2X c #FFFF8E",
"3X c #FFFF8F",
"4X c #FFFF91",
"5X c #FFFB94",
"6X c #FFFB95",
"7X c #FFFF94",
"8X c #FFFF96",
"9X c #FFFA99",
"0X c #FFFA9B",
"qX c #FFFF98",
"wX c #FFFF9B",
"eX c #FFFFA0",
"rX c #FEFAAA",
"tX c #FEFCA9",
"yX c #FFFFA8",
"uX c #FFFFAB",
"iX c #FFFFAD",
"pX c #FFFFAF",
"aX c #FEFFB0",
"sX c #FEFFB5",
"dX c #FEFFB6",
"fX c #FEFFB7",
"gX c #FFFFB7",
"hX c #FFFFBA",
"jX c #FFFFBB",
"kX c #FFFEBC",
"lX c #FFFEBF",
"zX c #FFFEC0",
"xX c #FFFFC0",
"cX c #FFFFC4",
"vX c #FFFEC7",
"bX c #FFFFC7",
"nX c #FFFFC9",
"mX c #FFFFCB",
"MX c #FFFFCC",
"NX c #FFFFCE",
"BX c #FFFFD0",
"VX c #FFFED4",
"CX c #FFFED5",
"ZX c #FEFFDA",
"AX c #FFFFDF",
"SX c #FFFEE2",
"DX c #FFFFE2",
/* pixels */
"&.&.&.&.S S S S &.&.&.&.S S S S G.G.G.G.G.G.G.G.G.G.G.G.G.G.G.G.G.G.G.G.G.G.G.G.G.G.G.G.G.G.G.G.S S S S &.&.&.&.S S S S &.&.&.&.",
"&.&.&.&.S S S S &.&.&.&.S S S S G.G.G.G.G.G.G.G.G.G.G.G.G.G.G.G.G.G.G.G.G.G.G.G.G.G.G.G.G.G.G.G.S S S S &.&.&.&.S S S S &.&.&.&.",
"&.&.&.&.S S S S &.&.&.&.S S S S G.G.G.G.G.G.G.G.G.G.G.G.G.G.G.G.G.G.G.G.G.G.G.G.G.G.G.G.G.G.G.G.S S S S &.&.&.&.S S S S &.&.&.&.",
"&.&.&.&.S S S S &.&.&.&.S S S S G.G.G.G.G.G.G.G.G.G.G.G.G.G.G.G.G.G.G.G.G.G.G.G.G.G.G.G.G.G.G.G.S S S S &.&.&.&.S S S S &.&.&.&.",
"S S S S S S S S S S S S G.G.G.G.G.G.G.G.S S S S S S S S G.G.G.G.G.G.G.G.S S S S S S S S G.G.G.G.G.G.G.G.S S S S S S S S S S S S ",
"S S S S S S S S S S S S G.G.G.G.G.G.G.G.S S S S S S S S G.G.G.G.G.G.G.G.S S S S S S S S G.G.G.G.G.G.G.G.S S S S S S S S S S S S ",
"S S S S S S S S S S S S G.G.G.G.G.G.G.G.S S S S S S S S G.G.G.G.G.G.G.G.S S S S S S S S G.G.G.G.G.G.G.G.S S S S S S S S S S S S ",
"S S S S S S S S S S S S G.G.G.G.G.G.G.G.S S S S S S S S G.G.G.G.G.G.G.G.S S S S S S S S G.G.G.G.G.G.G.G.S S S S S S S S S S S S ",
"S S S S G.G.G.G.G.G.G.G.G.G.G.G.G.G.G.G.G.G.G.G.S S S S G.G.G.G.G.G.G.G.S S S S G.G.G.G.G.G.G.G.G.G.G.G.G.G.G.G.G.G.G.G.S S S S ",
"S S S S G.G.G.G.G.G.G.G.G.G.G.G.G.G.G.G.G.G.G.G.S S S S G.G.G.G.G.G.G.G.S S S S G.G.G.G.G.G.G.G.G.G.G.G.G.G.G.G.G.G.G.G.S S S S ",
"S S S S G.G.G.G.G.G.G.G.G.G.G.G.G.G.G.G.G.G.G.G.S S S S G.G.G.G.G.G.G.G.S S S S G.G.G.G.G.G.G.G.G.G.G.G.G.G.G.G.G.G.G.G.S S S S ",
"S S S S G.G.G.G.G.G.G.G.G.G.G.G.G.G.G.G.G.G.G.G.S S S S G.G.G.G.G.G.G.G.S S S S G.G.G.G.G.G.G.G.G.G.G.G.G.G.G.G.G.G.G.G.S S S S ",
"S S S S G.G.G.G.G.G.G.G.G.G.G.G.G.G.G.G.G.G.G.G.G.G.G.G.G.G.G.G.G.G.G.G.G.G.G.G.G.G.G.G.G.G.G.G.G.G.G.G.G.G.G.G.G.G.G.G.S S S S ",
"S S S S G.G.G.G.G.G.G.G.G.G.G.G.G.G.G.G.G.G.G.G.G.G.G.G.G.G.G.G.G.G.G.G.G.G.G.G.G.G.G.G.G.G.G.G.G.G.G.G.G.G.G.G.G.G.G.G.S S S S ",
"S S S S G.G.G.G.G.G.G.G.G.G.G.G.G.G.G.G.G.G.G.G.G.G.G.G.G.G.G.G.G.G.G.G.G.G.G.G.G.G.G.G.G.G.G.G.G.G.G.G.G.G.G.G.G.G.G.G.S S S S ",
"S S S S G.G.G.G.G.G.G.G.G.G.G.G.G.G.G.G.G.G.G.G.G.G.G.G.G.G.G.G.G.G.G.G.G.G.G.G.G.G.G.G.G.G.G.G.G.G.G.G.G.G.G.G.G.G.G.G.S S S S ",
"G.G.G.G.G.G.G.G.G.G.G.G.G.G.G.G.S S S S S S S S G.G.G.M.c X X X X X . x b.G.G.G.S S S S S S S S G.G.G.G.G.G.G.G.G.G.G.G.G.G.G.G.",
"G.G.G.G.G.G.G.G.G.G.G.G.G.G.G.G.S S S S S S S S G.G.G.m e g.d.f.d.s.e.0 b G.G.G.S S S S S S S S G.G.G.G.G.G.G.G.G.G.G.G.G.G.G.G.",
"G.G.G.G.G.G.G.G.G.G.G.G.G.G.G.G.S S S S S S S S G.G.G.9 3.v.l.l.k.j.h.B 2 S.G.G.S S S S S S S S G.G.G.G.G.G.G.G.G.G.G.G.G.G.G.G.",
"G.G.G.G.G.G.G.G.G.G.G.G.G.G.G.G.S S S S S S S S G.G.D.7 w.+X&X&X&X%XXX/ < Z.G.G.S S S S S S S S G.G.G.G.G.G.G.G.G.G.G.G.G.G.G.G.",
"G.G.G.G.S S S S S S S S G.G.G.G.S S S S G.G.G.G.G.G.S.7 i.<X4X3X3X2X-X_ , C.G.G.G.G.G.G.S S S S G.G.G.G.S S S S S S S S G.G.G.G.",
"G.G.G.G.S S S S S S S S G.G.G.G.S S S S G.G.G.G.G.G.S.7 a.pXiXuXyXyX5X{ - V.G.G.G.G.G.G.S S S S G.G.G.G.S S S S S S S S G.G.G.G.",
"G.G.G.G.S S S S S S S S G.G.G.G.S S S S G.G.G.G.G.G.S.6 P.VXNXmXbXcXtX| = B.G.G.G.G.G.G.S S S S G.G.G.G.S S S S S S S S G.G.G.G.",
"G.G.G.G.S S S S S S S S G.G.G.G.S S S S G.G.G.G.G.G.A.5 Q.SXCXBXMXvXrX} * N.G.G.G.G.G.G.S S S S G.G.G.G.S S S S S S S S G.G.G.G.",
"G.G.G.G.G.G.G.G.S S S S G.G.G.G.G.G.G.G.G.G.G.G.G.G.A.4 W.ZXxXjXfXaX6X{ & M.G.G.G.G.G.G.G.G.G.G.G.G.G.G.S S S S G.G.G.G.G.G.G.G.",
"G.G.G.G.G.G.G.G.S S S S G.G.G.G.G.G.G.G.G.G.G.G.G.G.Z.3 ~.DXnXcXlXhX0X] # n.G.G.G.G.G.G.G.G.G.G.G.G.G.G.S S S S G.G.G.G.G.G.G.G.",
"G.G.G.G.G.G.G.G.S S S S G.G.G.G.G.G.G.G.G.G.G.G.G.G.Z.3 !.AXbXzXkXsX9X] # n.G.G.G.G.G.G.G.G.G.G.G.G.G.G.S S S S G.G.G.G.G.G.G.G.",
"G.G.G.G.G.G.G.G.S S S S G.G.G.G.G.G.G.G.G.G.G.G.G.G.Z.3 E.BXgXaXiXyX1X) # b.G.G.G.G.G.G.G.G.G.G.G.G.G.G.S S S S G.G.G.G.G.G.G.G.",
"G.G.G.G.G.G.G.G.G.G.G.G.G.G.G.G.G.G.G.G.G.G.G.G.S S Z @ L.dXeXwXqX7X*X(   z S S G.G.G.G.G.G.G.G.G.G.G.G.G.G.G.G.G.G.G.G.G.G.G.G.",
"G.G.G.G.G.G.G.G.G.G.G.G.G.G.G.G.G.G.G.G.G.G.G.G.S S Z @ H.8X,X>X:X;X#X^   l S S G.G.G.G.G.G.G.G.G.G.G.G.G.G.G.G.G.G.G.G.G.G.G.G.",
"G.G.G.G.G.G.G.G.G.G.G.G.G.G.G.G.G.G.G.G.G.G.G.G.S S Z @ q.=X$X@XOXoX XV   z S S G.G.G.G.G.G.G.G.G.G.G.G.G.G.G.G.G.G.G.G.G.G.G.G.",
"G.G.G.G.G.G.G.G.G.G.G.G.G.G.G.G.G.G.G.G.G.G.G.G.S S Z + 8..X|.}.{.[.'.M   l S S G.G.G.G.G.G.G.G.G.G.G.G.G.G.G.G.G.G.G.G.G.G.G.G.",
"G.G.G.G.G.G.G.G.G.G.G.G.G.G.G.G.G.G.G.G.G.G.G.G.S S Z @ 4.].`._.c.x.p.k   l S S G.G.G.G.G.G.G.G.G.G.G.G.G.G.G.G.G.G.G.G.G.G.G.G.",
"G.G.G.G.G.G.G.G.G.G.G.G.G.G.G.G.G.G.G.G.G.G.G.G.S S Z @ <.z.u.y.t.r.9.j   z S S G.G.G.G.G.G.G.G.G.G.G.G.G.G.G.G.G.G.G.G.G.G.G.G.",
"G.G.G.G.G.G.G.G.G.G.G.G.G.G.G.G.G.G.G.G.G.G.G.G.S S Z + :.0.7.6.6.5.1.d   z S S G.G.G.G.G.G.G.G.G.G.G.G.G.G.G.G.G.G.G.G.G.G.G.G.",
"G.G.G.G.G.G.G.G.G.G.G.G.G.G.G.G.G.G.G.G.G.G.G.G.S S Z @ *.2.>.;.,.;.=.p   z S S G.G.G.G.G.G.G.G.G.G.G.G.G.G.G.G.G.G.G.G.G.G.G.G.",
"G.G.G.G.G.G.G.G.S S S S G.G.G.G.G.G.G.G.G.G.G.G.G.G.Z.3 ! -.$.$.$.~ W i # n.G.G.G.G.G.G.G.G.G.G.G.G.G.G.S S S S G.G.G.G.G.G.G.G.",
"G.G.G.G.G.G.G.G.S S S S G.G.G.G.G.G.G.G.G.G.G.G.G.G.Z.3 E Q R T Y U L y $ m.G.G.G.G.G.G.G.G.G.G.G.G.G.G.S S S S G.G.G.G.G.G.G.G.",
"G.G.G.G.G.G.G.G.S S S S G.G.G.G.G.G.G.G.G.G.G.G.G.G.A.5 U I H H G F D t $ n.G.G.G.G.G.G.G.G.G.G.G.G.G.G.S S S S G.G.G.G.G.G.G.G.",
"G.G.G.G.G.G.G.G.S S S S G.G.G.G.G.G.G.G.G.G.G.G.G.G.A.4 P %. .O.o...[ u % m.G.G.G.G.G.G.G.G.G.G.G.G.G.G.S S S S G.G.G.G.G.G.G.G.",
"G.G.G.G.S S S S S S S S G.G.G.G.S S S S G.G.G.G.G.G.S.4 K K.^././.^.I.g * M.G.G.G.G.G.G.S S S S G.G.G.G.S S S S S S S S G.G.G.G.",
"G.G.G.G.S S S S S S S S G.G.G.G.S S S S G.G.G.G.G.G.S.7 J Y.).).).).R.h = B.G.G.G.G.G.G.S S S S G.G.G.G.S S S S S S S S G.G.G.G.",
"G.G.G.G.S S S S S S S S G.G.G.G.S S S S G.G.G.G.G.G.S.7 C I.).).).).T.g - C.G.G.G.G.G.G.S S S S G.G.G.G.S S S S S S S S G.G.G.G.",
"G.G.G.G.S S S S S S S S G.G.G.G.S S S S G.G.G.G.G.G.S.7 N J.(.(.(.(.U.f < C.G.G.G.G.G.G.S S S S G.G.G.G.S S S S S S S S G.G.G.G.",
"G.G.G.G.G.G.G.G.G.G.G.G.G.G.G.G.S S S S S S S S G.G.F.8 a ` X.X.X.X.' r 1 A.G.G.S S S S S S S S G.G.G.G.G.G.G.G.G.G.G.G.G.G.G.G.",
"G.G.G.G.G.G.G.G.G.G.G.G.G.G.G.G.S S S S S S S S G.G.G.v q s s s s s s w x F.G.G.S S S S S S S S G.G.G.G.G.G.G.G.G.G.G.G.G.G.G.G.",
"G.G.G.G.G.G.G.G.G.G.G.G.G.G.G.G.S S S S S S S S G.G.G.#.O ; : : : : > o +.G.G.G.S S S S S S S S G.G.G.G.G.G.G.G.G.G.G.G.G.G.G.G.",
"G.G.G.G.G.G.G.G.G.G.G.G.G.G.G.G.S S S S S S S S G.G.G.G.@.n b b b b n +.G.G.G.G.S S S S S S S S G.G.G.G.G.G.G.G.G.G.G.G.G.G.G.G.",
"S S S S G.G.G.G.G.G.G.G.G.G.G.G.G.G.G.G.G.G.G.G.G.G.G.G.G.G.G.G.G.G.G.G.G.G.G.G.G.G.G.G.G.G.G.G.G.G.G.G.G.G.G.G.G.G.G.G.S S S S ",
"S S S S G.G.G.G.G.G.G.G.G.G.G.G.G.G.G.G.G.G.G.G.G.G.G.G.G.G.G.G.G.G.G.G.G.G.G.G.G.G.G.G.G.G.G.G.G.G.G.G.G.G.G.G.G.G.G.G.S S S S ",
"S S S S G.G.G.G.G.G.G.G.G.G.G.G.G.G.G.G.G.G.G.G.G.G.G.G.G.G.G.G.G.G.G.G.G.G.G.G.G.G.G.G.G.G.G.G.G.G.G.G.G.G.G.G.G.G.G.G.S S S S ",
"S S S S G.G.G.G.G.G.G.G.G.G.G.G.G.G.G.G.G.G.G.G.G.G.G.G.G.G.G.G.G.G.G.G.G.G.G.G.G.G.G.G.G.G.G.G.G.G.G.G.G.G.G.G.G.G.G.G.S S S S ",
"S S S S G.G.G.G.G.G.G.G.G.G.G.G.G.G.G.G.G.G.G.G.S S S S G.G.G.G.G.G.G.G.S S S S G.G.G.G.G.G.G.G.G.G.G.G.G.G.G.G.G.G.G.G.S S S A ",
"S S S S G.G.G.G.G.G.G.G.G.G.G.G.G.G.G.G.G.G.G.G.S S S S G.G.G.G.G.G.G.G.S S S S G.G.G.G.G.G.G.G.G.G.G.G.G.G.G.G.G.G.G.G.S S S A ",
"S S S S G.G.G.G.G.G.G.G.G.G.G.G.G.G.G.G.G.G.G.G.S S S S G.G.G.G.G.G.G.G.S S S S G.G.G.G.G.G.G.G.G.G.G.G.G.G.G.G.G.G.G.G.S S S A ",
"S S S S G.G.G.G.G.G.G.G.G.G.G.G.G.G.G.G.G.G.G.G.S S S S G.G.G.G.G.G.G.G.S S S S G.G.G.G.G.G.G.G.G.G.G.G.G.G.G.G.G.G.G.G.S S S A ",
"S S S S S S S S S S S S G.G.G.G.G.G.G.G.S S S S S S S S G.G.G.G.G.G.G.G.S S S S S S S S G.G.G.G.G.G.G.G.S S S S S S S S S S S A ",
"S S S S S S S S S S S S G.G.G.G.G.G.G.G.S S S S S S S S G.G.G.G.G.G.G.G.S S S S S S S S G.G.G.G.G.G.G.G.S S S S S S S S S S S A ",
"S S S S S S S S S S S S G.G.G.G.G.G.G.G.S S S S S S S S G.G.G.G.G.G.G.G.S S S S S S S S G.G.G.G.G.G.G.G.S S S S S S S S S S S A ",
"S S S S S S S S S S S S G.G.G.G.G.G.G.G.S S S S S S S S G.G.G.G.G.G.G.G.S S S S S S S S G.G.G.G.G.G.G.G.S S S S S S S S S S S A ",
"&.&.&.&.S S S S &.&.&.&.S S S S G.G.G.G.G.G.G.G.G.G.G.G.G.G.G.G.G.G.G.G.G.G.G.G.G.G.G.G.G.G.G.G.S S S S &.&.&.&.S S S S &.&.&.&.",
"&.&.&.&.S S S S &.&.&.&.S S S S G.G.G.G.G.G.G.G.G.G.G.G.G.G.G.G.G.G.G.G.G.G.G.G.G.G.G.G.G.G.G.G.S S S S &.&.&.&.S S S S &.&.&.&.",
"&.&.&.&.S S S S &.&.&.&.S S S S G.G.G.G.G.G.G.G.G.G.G.G.G.G.G.G.G.G.G.G.G.G.G.G.G.G.G.G.G.G.G.G.S S S S &.&.&.&.S S S S &.&.&.&.",
"&.&.&.&.S S S S &.&.&.&.S S S S G.G.G.G.G.G.G.G.G.G.G.G.G.G.G.G.G.G.G.G.G.G.G.G.G.G.G.G.G.G.G.G.S S S S &.&.&.&.S S S S &.&.&.&."
};
