/* XPM */
static char *result[] = {
/* columns rows colors chars-per-pixel */
"64 64 203 2 ",
"   c #000001",
".  c #000D03",
"X  c #0E0803",
"o  c #160906",
"O  c #27130E",
"+  c #371D16",
"@  c #022608",
"#  c #03320D",
"$  c #0C3D0C",
"%  c #043E11",
"&  c #2C250E",
"*  c #382D08",
"=  c #3D3109",
"-  c #3A2717",
";  c #3B3215",
":  c #142639",
">  c #46390B",
",  c #4A2818",
"<  c #542E18",
"1  c #483919",
"2  c #573717",
"3  c #583016",
"4  c #5C3418",
"5  c #65391B",
"6  c #6B3C1E",
"7  c #4A2920",
"8  c #502D20",
"9  c #5A3424",
"0  c #6A3C20",
"q  c #0D440E",
"w  c #18480D",
"e  c #084B15",
"r  c #0A551A",
"t  c #3A521A",
"y  c #0B631F",
"u  c #13631D",
"i  c #2B731B",
"p  c #0C6922",
"a  c #0E7225",
"s  c #107B29",
"d  c #52430E",
"f  c #585703",
"g  c #4B401C",
"h  c #5E4D12",
"j  c #57491C",
"k  c #62441D",
"l  c #665414",
"z  c #735E18",
"x  c #7A651A",
"c  c #7C661A",
"v  c #574A22",
"b  c #495622",
"n  c #5C5024",
"m  c #634824",
"M  c #6D4A21",
"N  c #734221",
"B  c #7C4D27",
"V  c #645523",
"C  c #685B26",
"Z  c #6C5D2C",
"A  c #765629",
"S  c #7C5334",
"D  c #586227",
"F  c #467623",
"G  c #597F32",
"H  c #6B6122",
"J  c #78652F",
"K  c #7D6D34",
"L  c #77693A",
"P  c #757B36",
"I  c #182C40",
"U  c #315273",
"Y  c #5F484E",
"T  c #6C5D48",
"R  c #737058",
"E  c #52737C",
"W  c #796D62",
"Q  c #6B796A",
"!  c #826B1C",
"~  c #81542B",
"^  c #8A5E30",
"/  c #896C27",
"(  c #8E702B",
")  c #836A33",
"_  c #8A6B35",
"`  c #916737",
"'  c #847337",
"]  c #857538",
"[  c #89773A",
"{  c #8C7A3B",
"}  c #957436",
"|  c #9C733C",
" . c #927C3D",
".. c #A1783F",
"X. c #936C4A",
"o. c #837D45",
"O. c #85784C",
"+. c #A47C41",
"@. c #A17D5C",
"#. c #876E6F",
"$. c #867773",
"%. c #1D8229",
"&. c #278928",
"*. c #388A23",
"=. c #2F9129",
"-. c #339429",
";. c #369829",
":. c #3A9A28",
">. c #3FA229",
",. c #479727",
"<. c #659B30",
"1. c #41A429",
"2. c #718879",
"3. c #848206",
"4. c #8C8A3A",
"5. c #94823E",
"6. c #99813F",
"7. c #AB9429",
"8. c #AA863E",
"9. c #B5993C",
"0. c #BD9E3F",
"q. c #BDA739",
"w. c #C5BA16",
"e. c #C2AB38",
"r. c #C6B534",
"t. c #CCBA34",
"y. c #C9C816",
"u. c #D5CE12",
"i. c #D8D813",
"p. c #E6EB0F",
"a. c #F0ED08",
"s. c #FEFE01",
"d. c #F6F709",
"f. c #EEE81E",
"g. c #F8F514",
"h. c #FAF51E",
"j. c #D4C62E",
"k. c #D6C92E",
"l. c #DDD424",
"z. c #DDD12C",
"x. c #D8C932",
"c. c #E8DB2D",
"v. c #EAD638",
"b. c #EEE42A",
"n. c #968340",
"m. c #9A8641",
"M. c #9D8943",
"N. c #918357",
"B. c #AA8345",
"V. c #B58A42",
"C. c #BB8D45",
"Z. c #BE9148",
"A. c #AA8856",
"S. c #859975",
"D. c #A98967",
"F. c #B79467",
"G. c #BE9B6E",
"H. c #AB9474",
"J. c #B69976",
"K. c #BB9D79",
"L. c #B7A678",
"P. c #C6984B",
"I. c #D3A34E",
"U. c #D8A750",
"Y. c #DEAC52",
"T. c #E2B94E",
"R. c #C5A379",
"E. c #31529C",
"W. c #2B6281",
"Q. c #2BB7F7",
"!. c #4BB1E8",
"~. c #59C2F3",
"^. c #91928E",
"/. c #AD9991",
"(. c #94B097",
"). c #B5A58E",
"_. c #9CABBA",
"`. c #ACAEAD",
"'. c #C9AA83",
"]. c #D1AF87",
"[. c #D5B48C",
"{. c #C9B390",
"}. c #D9BB94",
"|. c #E3C79E",
" X c #DAC7AE",
".X c #E8CDA5",
"XX c #EFD1A1",
"oX c #EDD3AC",
"OX c #F1D7AE",
"+X c #EAD6BC",
"@X c #F5DBB3",
"#X c #F8DEB6",
"$X c #F8E0BA",
"%X c #FFE6BD",
"&X c #9DA5C3",
"*X c #AAB8C8",
"=X c #85CDE3",
"-X c #C4C8CE",
";X c #E8D7C3",
":X c #FFEAC8",
">X c #FFEED5",
",X c #FFF0D9",
"<X c white",
/* pixels */
"o.o.o.o.! ! ! ! o.o.o.o.! ! ! ! M.M.M.M.M.M.M.M.M.M.M.M.M.M.M.M.M.M.M.M.M.M.M.M.M.M.M.M.M.M.M.M.! ! ! ! o.o.o.o.! ! ! ! o.o.o.o.",
"o.o.o.o.! ! ! ! o.o.o.o.! ! ! ! M.M.M.M.M.M.M.M.M.M.M.M.M.M.M.M.M.M.M.M.M.M.M.M.M.M.M.M.M.M.M.M.! ! ! ! o.o.o.o.! ! ! ! o.o.o.o.",
"o.o.o.o.! ! ! ! o.o.o.o.! ! ! ! M.M.M.M.M.M.M.M.M.M.M.M.M.M.M.M.M.M.M.M.M.M.M.M.M.M.M.M.M.M.M.M.! ! ! ! o.o.o.o.! ! ! ! o.o.o.o.",
"o.o.o.o.! ! ! ! o.o.o.o.! ! ! ! M.M.M.M.M.M.M.M.M.M.M.M.M.M.M.M.M.M.M.M.M.M.M.M.M.M.M.M.M.M.M.M.! ! ! ! o.o.o.o.! ! ! ! o.o.o.o.",
"! ! ! ! ! ! ! ! ! ! ! ! M.M.M.M.M.M.M.M.! ! ! ! ! ! ! ! M.M.M.M.M.M.M.M.! ! ! ! ! ! ! ! M.M.M.M.M.M.M.M.! ! ! ! ! ! ! ! ! ! ! ! ",
"! ! ! ! ! ! ! ! ! ! ! ! M.M.M.M.M.M.M.M.! ! ! ! ! ! ! ! M.M.M.M.M.M.M.M.! ! ! ! ! ! ! ! M.M.M.M.M.M.M.M.! ! ! ! ! ! ! ! ! ! ! ! ",
"! ! ! ! ! ! ! ! ! ! ! ! M.M.M.M.M.M.M.M.! ! ! ! ! ! ! ! M.M.M.M.M.M.M.M.! ! ! ! ! ! ! ! M.M.M.M.M.M.M.M.! ! ! ! ! ! ! ! ! ! ! ! ",
"! ! ! ! ! ! ! ! ! ! ! ! M.M.M.M.M.M.M.M.! ! ! c ! ! ! ! M.M.M.M.M.M.M.M.! ! ! ! ! ! ! ! M.M.M.M.M.M.M.M.! ! ! ! ! ! ! ! ! ! ! ! ",
"! ! ! ! M.M.M.M.M.M.M.M.M.M.M.M.M.M.M.M.M.M.M.M.! ! ! ! M.M.M.M.M.M.M.M.! ! ! ! M.M.M.M.M.M.M.M.M.M.M.M.M.M.M.M.M.M.M.M.! ! ! ! ",
"! ! ! ! M.M.M.M.M.M.M.M.M.M.M.M.M.M.M.M.M.M.M.M.! ! ! ! M.M.M.M.M.M.M.M.! ! ! ! M.M.M.M.M.M.M.M.M.M.M.M.M.M.M.M.M.M.M.M.! ! ! ! ",
"! ! ! ! M.M.M.M.M.M.M.M.M.M.M.M.M.M.M.M.M.M.M.M.! ! c ! M.M.M.M.M.M.M.M.! ! ! c M.M.M.M.M.M.M.M.M.M.M.M.M.M.M.M.M.M.M.M.! ! ! ! ",
"! ! ! ! M.M.M.M.M.M.M.M.M.M.M.M.M.M.M.M.M.M.M.M.! ! c / M.M.M.B.M.M.M.M.! ! ! / M.M.M.M.M.M.M.M.M.M.M.M.M.M.M.M.M.M.M.M.! ! ! ! ",
"! ! ! ! M.M.M.M.M.M.M.M.M.M.M.M.M.M.M.M.M.M.M.M.M.M.n.v D ,.G G <.G G b n M.M.M.M.M.M.M.M.M.M.M.M.M.M.M.M.M.M.M.M.M.M.M.! ! ! ! ",
"! ! ! ! M.M.M.M.M.M.M.M.M.M.M.M.M.M.M.M.M.M.M.M.M.M.5.. r %.s s s a s e . M.M.M.M.M.M.M.M.M.M.M.M.M.M.M.M.M.M.M.M.M.M.M.! ! ! ! ",
"! ! ! ! M.M.M.M.M.M.M.M.M.M.M.M.M.M.M.M.M.M.M.M.M.; # s =.1.1.>.>.1.1.&.s . v M.M.M.M.M.M.M.M.M.M.M.M.M.M.M.M.M.M.M.M.M.! ! ! ! ",
"! ! ! ! M.M.M.M.M.M.M.M.M.M.M.M.M.M.M.M.M.M.B.o.' t r s &.;.;.;.-.;.;.&.s e b ' 5.M.M.M.M.M.M.M.M.M.M.M.M.M.M.M.M.M.M.M.! ! ! ! ",
"M.M.M.M.M.M.M.M.M.M.M.M.M.M.M.M.! ! ! ! ! ! ! h   a s s s s s s s s s s s s p   l ! ! ! ! ! ! ! M.M.M.M.M.M.M.M.M.M.M.M.M.M.M.M.",
"M.M.M.M.M.M.M.M.M.M.M.M.M.M.M.M.! ! ! ! ! x d t y -.;.;.-.;.;.;.-.;.;.;.;.;.&.y t d c ! ! ! ! ! M.M.M.M.M.M.M.M.M.M.M.M.M.M.M.M.",
"M.M.M.M.M.M.M.M.M.M.M.M.M.M.M.M.! ! ! ! ! z   r s :.1.1.1.>.>.1.>.1.1.1.1.1.:.s r   c ! ! ! ! ! M.M.M.M.M.M.M.M.M.M.M.M.M.M.M.M.",
"M.M.M.M.M.M.M.M.M.M.M.M.M.M.M.M.! ! ! ! ! z . i 1.5.9.d.d.s.q.| 6.t.d.r.....4.1.i   c ! ! ! ! ! M.M.M.M.M.M.M.M.M.M.M.M.M.M.M.M.",
"M.M.M.M.! ! ! ! ! ! ! ! M.M.M.M.! ! ! c { K % F <. .0.s.g.f.t.q...j.s.k.e.+.5.<.F % K 5.! ! ! ! M.M.M.M.! ! ! ! ! ! ! ! M.M.M.M.",
"M.M.M.M.! ! ! ! ! ! ! ! M.M.M.M.! ! ! / & % s P +.+.9.s.z...f.g...t.s.s.s.+.+.+.P a @ g ! ! ! ! M.M.M.M.! ! ! ! ! ! ! ! M.M.M.M.",
"M.M.M.M.! ! ! ! ! ! ! ! M.M.M.M./ } A.F.m 2 D 8.P.k.v.v.v.z.k.k.z.v.v.x.j.z.t.+.K D 2 S F.A.} / M.M.M.M.! ! ! ! ! ! ! ! M.M.M.M.",
"M.M.M.M.! ! ! ! ! ! ! ! M.M.M.M.( 8.R.[.S N N V.Y.h.h.Y.v.s.q.9.s.b.Y.Z.+.s.f...^ 0 M X.[.G.../ M.M.M.M.! ! ! ! ! ! ! ! M.M.M.M.",
"M.M.M.M.M.M.M.M.! ! ! ! M.M.M.M. .B }.#XOX|.+.j.h.e.e.h.z.0.B.8.s.c.8.R.R.P.t.g.r.| .X@X#X'.B n.M.M.M.M.! ! ! ! M.M.M.M.M.M.M.M.",
"M.M.M.M.M.M.M.M.! ! ! ! M.M.M.M. .B {.OX$X.X| j.f.0.q.s.l.9.V.8.a.x.A.].}.+.e.h.t.+.OX#XoX'.A n.M.M.M.M.! ! ! ! M.M.M.M.M.M.M.M.",
"M.M.M.M.M.M.M.M.! ! ! ! M.M.M.M.M.M.) 6 ].R.6 ` +.U.T.s.s.s.T.U.N @.[.OX%X+.V.Y.P...].R.0 _ B.M.M.M.M.M.! ! ! ! M.M.M.M.M.M.M.M.",
"M.M.M.M.M.M.M.M.! ! ! ! M.M.M.M.M.M.} _ *X`.w.7.` U.T.v.c.z.P.V.D.'..X#X%XG.F.8.r.k.*X_._  .M.M.M.M.M.M.! ! ! ! M.M.M.M.M.M.M.M.",
"M.M.M.M.M.M.M.M.M.M.M.M.M.M.M.M.M.M.M.M.Q.=Xs.w.N I.Y.Y.P.+.~ ~ [.|.%X:X%X[.R.N u.s.~.!.M.M.M.M.M.M.M.M.M.M.M.M.M.M.M.M.M.M.M.M.",
"M.M.M.M.M.M.M.M.M.M.M.M.M.M.M.M.M.M.M.M.W.S.s.j.| |.XXV...~ F.'.@X|.G.G.G.X.X.| l.s.E E M.M.M.M.M.M.M.M.M.M.M.M.M.M.M.M.M.M.M.M.",
"M.M.M.M.M.M.M.M.M.M.M.M.M.M.M.M.M.M.M.M.& 3.g.j...oXoX..` ~ '.}.%X|.B.+.+.N B +.z.g.f g M.M.M.M.M.M.M.M.M.M.M.M.M.M.M.M.M.M.M.M.",
"M.M.M.M.M.M.M.M.M.M.M.M.M.M.M.M.M.M.M.M.& A Y.8.N N ~ ..G.[.@X%X%XOX].F.+.N N N C.Y.1 g M.M.M.M.M.M.M.M.M.M.M.M.M.M.M.M.M.M.M.M.",
"M.M.M.M.M.M.M.M.M.M.M.M.M.M.M.M.M.M.M.M.Z J V.` 4 H.J.#.).;X$X%X%X$X;X/.#.K.D.4 } V.Z J M.M.M.M.M.M.M.M.M.M.M.M.M.M.M.M.M.M.M.M.",
"M.M.M.M.M.M.M.M.M.M.M.M.M.M.M.M.M.M.M.M.B.[       oX+XE.*X<X>X%X%X,X<X&XE.$X X      6.M.M.M.M.M.M.M.M.M.M.M.M.M.M.M.M.M.M.M.M.M.",
"M.M.M.M.M.M.M.M.M.M.M.M.M.M.M.M.M.M.M.M.M.5.' n   G.'. X:X,X:X%X%X:X>X+X XR.D.  C ' m.M.M.M.M.M.M.M.M.M.M.M.M.M.M.M.M.M.M.M.M.M.",
"M.M.M.M.M.M.M.M.M.M.M.M.M.M.M.M.M.M.M.M.M.M.M.Z   | F.:X#X:X%X%X%X%X%X%X:XB._   K M.M.M.M.M.M.M.M.M.M.M.M.M.M.M.M.M.M.M.M.M.M.M.",
"M.M.M.M.M.M.M.M.! ! ! ! M.M.M.M.M.M.M.M.M.{ X y s M N B D.{.[.[.[.[.[.@.N N V s e X m.M.M.M.M.M.M.M.M.M.! ! ! ! M.M.M.M.M.M.M.M.",
"M.M.M.M.M.M.M.M.! ! ! ! M.M.M.M.M.M.M.M.' L I 2.(.T k n N.L.L.L.L.L.L.O.V k R (.Q O ' [ M.M.M.M.M.M.M.M.! ! ! ! M.M.M.M.M.M.M.M.",
"M.M.M.M.M.M.M.M.! ! ! ! M.M.M.M.M.M.M.M.& : U -X<XQ r s s s s s s s s s s q ^.<X`.7 o g M.M.M.M.M.M.M.M.! ! ! ! M.M.M.M.M.M.M.M.",
"M.M.M.M.M.M.M.M.! ! ! ! M.M.M.M.M.M.K C 4 9 Y ^.`.T j s s s s s s s s s s j W `.$.0 4 2 C ] M.M.M.M.M.M.! ! ! ! M.M.M.M.M.M.M.M.",
"M.M.M.M.! ! ! ! ! ! ! ! M.M.M.M.! ! d   6 N 6 <   6 M s s s %.s s s s s %.M 4   4 N N 5   l ! ! M.M.M.M.! ! ! ! ! ! ! ! M.M.M.M.",
"M.M.M.M.! ! ! ! ! ! ! ! M.M.M.M.! ! d . '.}.@XL.$ ,.,.M N M i.d.d.y.M k M ,.*.$ {.#X[.K.  h ! ! M.M.M.M.! ! ! ! ! ! ! ! M.M.M.M.",
"M.M.M.M.! ! ! ! ! ! ! ! M.M.M.M.! ! h = K.{..XH.$ -.,.C C l u.p.p.y.M H H :.*.$ )..X'.H.= l ! ! M.M.M.M.! ! ! ! ! ! ! ! M.M.M.M.",
"M.M.M.M.! ! ! ! ! ! ! ! M.M.M.M.! ! ! ! &         a %.1.-.s s s s s s :.>.s p         1 ! ! ! ! M.M.M.M.! ! ! ! ! ! ! ! M.M.M.M.",
"M.M.M.M.M.M.M.M.M.M.M.M.M.M.M.M.! ! ! ! l h h =   r u =.=.-.-.-.=.=.-.=.=.r e   > l h l ! ! ! ! M.M.M.M.M.M.M.M.M.M.M.M.M.M.M.M.",
"M.M.M.M.M.M.M.M.M.M.M.M.M.M.M.M.! ! ! ! c / c h     # s =.>.>.>.1.1.1.&.s .     l ! ! ! ! ! ! ! M.M.M.M.M.M.M.M.M.M.M.M.M.M.M.M.",
"M.M.M.M.M.M.M.M.M.M.M.M.M.M.M.M.! ! ! ! ! x * 2 5 , - # q w w w w w w $ # , 8 5 2 * c ! ! ! ! ! M.M.M.M.M.M.M.M.M.M.M.M.M.M.M.M.",
"M.M.M.M.M.M.M.M.M.M.M.M.M.M.M.M.! ! ! ! ! z   3 N 9 8 o X   & ; ; &   o o 8 9 N ,   c ! ! ! ! ! M.M.M.M.M.M.M.M.M.M.M.M.M.M.M.M.",
"! ! ! ! M.M.M.M.M.M.M.M.M.M.M.M.M.M.M.M.M.{   < N N 6 , +   [ M.m.'   , , N N 6 ,   n.M.M.M.M.M.M.M.M.M.M.M.M.M.M.M.M.M.! ! ! ! ",
"! ! ! ! M.M.M.M.M.M.M.M.M.M.M.M.M.M.M.M.M.5.Z v 3 3 < + v Z +.m.m.o.Z 1 + 3 3 3 V H n.M.M.M.M.M.M.M.M.M.M.M.M.M.M.M.M.M.! ! ! ! ",
"! ! ! ! M.M.M.M.M.M.M.M.M.M.M.M.M.M.M.M.M.M.M.J         Z M.M.M.B.M.M.n     .   K M.M.M.M.M.M.M.M.M.M.M.M.M.M.M.M.M.M.M.! ! ! ! ",
"! ! ! ! M.M.M.M.M.M.M.M.M.M.M.M.M.M.M.M.M.M.M.5.[ [ [ [ n.M.M.M.M.M.M. .[ [ { { +.M.M.M.M.M.M.M.M.M.M.M.M.M.M.M.M.M.M.M.! ! ! ! ",
"! ! ! ! M.M.M.M.M.M.M.M.M.M.M.M.M.M.M.M.M.M.M.M.! ! ! ! M.M.M.M.M.M.M.M.! ! ! ! m.M.M.M.M.M.M.M.M.M.M.M.M.M.M.M.M.M.M.M.! ! ! ! ",
"! ! ! ! M.M.M.M.M.M.M.M.M.M.M.M.M.M.M.M.M.M.M.M.! ! ! ! M.M.M.M.M.M.M.M.! ! ! ! m.M.M.M.M.M.M.M.M.M.M.M.M.M.M.M.M.M.M.M.! ! ! c ",
"! ! ! ! M.M.M.M.M.M.M.M.M.M.M.M.M.M.M.M.M.M.M.M.! ! ! ! M.M.M.M.M.M.M.M.! ! ! ! M.M.M.M.M.M.M.M.M.M.M.M.M.M.M.M.M.M.M.M.! ! ! ! ",
"! ! ! ! M.M.M.M.M.M.M.M.M.M.M.M.M.M.M.M.M.M.M.M.! ! ! ! M.M.M.M.M.M.M.M.! ! ! J M.M.M.M.M.M.M.M.M.M.M.M.M.M.M.M.M.M.M.M.! ! ! ! ",
"! ! ! ! ! ! ! ! ! ! ! ! M.M.M.M.M.M.M.M.! ! ! ! ! ! ! ! M.M.M.M.M.M.M.M.c ! ! ! ! ! ! ! M.M.M.M.M.M.M.M.! ! ! ! ! ! ! ! ! ! ! ! ",
"! ! ! ! ! ! ! ! ! ! ! ! M.M.M.M.M.M.M.M.! ! ! ! ! ! ! ! M.M.M.M.M.M.M.M.! ! ! ! ! ! ! ! M.M.M.M.M.M.M.M.! ! ! ! ! ! ! ! ! ! ! ! ",
"! ! ! ! ! ! ! ! ! ! ! ! M.M.M.M.M.M.M.M.! ! ! ! ! ! ! ! M.M.M.M.M.M.M.M.! ! ! ! ! ! ! ! M.M.M.M.M.M.M.M.! ! ! ! ! ! ! ! ! ! ! ! ",
"! ! ! ! ! ! ! ! ! ! ! ! M.M.M.M.M.M.M.M.! ! ! ! ! ! ! ! M.M.M.M.M.M.M.M.! ! ! ! ! ! ! ! M.M.M.M.M.M.M.M.! ! ! ! ! ! ! ! ! ! ! ! ",
"o.o.o.o.! ! ! ! o.o.o.o.! ! ! ! M.M.M.M.M.M.M.M.M.M.M.M.M.M.M.M.M.M.M.M.M.M.M.M.M.M.M.M.M.M.M.M.! ! ! ! o.o.o.o.! ! ! ! o.o.o.o.",
"o.o.o.o.! ! ! ! o.o.o.o.! ! ! ! M.M.M.M.M.M.M.M.M.M.M.M.M.M.M.M.M.M.M.M.M.M.M.M.M.M.M.M.M.M.M.M.! ! ! ! o.o.o.o.! ! ! ! o.o.o.o.",
"o.o.o.o.! ! ! ! o.o.o.o.! ! ! ! M.M.M.M.M.M.M.M.M.M.M.M.M.M.M.M.M.M.M.M.M.M.M.M.M.M.M.M.M.M.M.M.! ! ! ! o.o.o.o.! ! ! ! o.o.o.o.",
"o.o.o.o.! ! ! ! o.o.o.o.! ! ! ! M.M.M.M.M.M.M.M.M.M.M.M.M.M.M.M.M.M.M.M.M.M.M.M.M.M.M.M.M.M.M.M.! ! ! ! o.o.o.o.! ! ! ! o.o.o.o."
};
