/* XPM */
static char *result[] = {
/* columns rows colors chars-per-pixel */
"64 64 193 2 ",
"   c #000001",
".  c #050904",
"X  c #100E04",
"o  c #1E0E0A",
"O  c #1B1606",
"+  c #011710",
"@  c #26130D",
"#  c #361C0B",
"$  c #311913",
"%  c #3A1F18",
"&  c #042908",
"*  c #06310A",
"=  c #083409",
"-  c #0C3C0B",
";  c #043F12",
":  c #382C08",
">  c #28330F",
",  c #322A11",
"<  c #3E2D14",
"1  c #001420",
"2  c #3A3130",
"3  c #46380B",
"4  c #492712",
"5  c #453B1A",
"6  c #493B19",
"7  c #553718",
"8  c #6B3C1D",
"9  c #4C2A20",
"0  c #4B3B31",
"q  c #663920",
"w  c #0D420D",
"e  c #15430D",
"r  c #074D17",
"t  c #0D4B12",
"y  c #0D5217",
"u  c #0D5B1B",
"i  c #185919",
"p  c #2B4B14",
"a  c #314D18",
"s  c #0D631F",
"d  c #236717",
"f  c #2C781C",
"g  c #0B6420",
"h  c #0E6C23",
"j  c #1C6822",
"k  c #0F7427",
"l  c #107627",
"z  c #1A7825",
"x  c #107B29",
"c  c #386A25",
"v  c #4B4816",
"b  c #5D4E19",
"n  c #48551F",
"m  c #575916",
"M  c #6C5916",
"N  c #77651A",
"B  c #534720",
"V  c #554A21",
"C  c #53492B",
"Z  c #5D5124",
"A  c #5A5A24",
"S  c #6C4C22",
"D  c #734120",
"F  c #7B4C28",
"G  c #625426",
"H  c #635628",
"J  c #6A5A29",
"K  c #6E4F37",
"L  c #526A28",
"P  c #587D31",
"I  c #6C6A23",
"U  c #6E602D",
"Y  c #73652E",
"T  c #746530",
"R  c #7C6B33",
"E  c #7C6B3D",
"W  c #727633",
"Q  c #6F5B45",
"!  c #716360",
"~  c #777B78",
"^  c #80671C",
"/  c #826B1C",
"(  c #84562B",
")  c #886B27",
"_  c #8F722A",
"`  c #8B6534",
"'  c #966D35",
"]  c #877538",
"[  c #89773A",
"{  c #8D7B3C",
"}  c #9B7438",
"|  c #A97B3A",
" . c #837D45",
".. c #87734D",
"X. c #8A775B",
"o. c #9B7752",
"O. c #A47B41",
"+. c #977F61",
"@. c #31831F",
"#. c #218529",
"$. c #2C8E29",
"%. c #398621",
"&. c #358B22",
"*. c #399424",
"=. c #3E9D27",
"-. c #3A9C29",
";. c #3EA029",
":. c #758D1A",
">. c #4E8A28",
",. c #479B28",
"<. c #7A9231",
"1. c #41A429",
"2. c #95851E",
"3. c #AB9A1A",
"4. c #B2B201",
"5. c #ACA917",
"6. c #BAAD17",
"7. c #B4A51E",
"8. c #8F863F",
"9. c #888D39",
"0. c #94813F",
"q. c #B09B2B",
"w. c #AF813E",
"e. c #AE8D3E",
"r. c #B4983D",
"t. c #94AA30",
"y. c #B6B129",
"u. c #B9A237",
"i. c #CDBC33",
"p. c #CBB638",
"a. c #AFC91D",
"s. c #CACA00",
"d. c #FFFF00",
"f. c #E6EF10",
"g. c #F1EE1A",
"h. c #F9F518",
"j. c #D8CC2D",
"k. c #DBD12D",
"l. c #D1C431",
"z. c #E1D827",
"x. c #E2D928",
"c. c #E8D737",
"v. c #F1DE38",
"b. c #FAF321",
"n. c #F3E533",
"m. c #978340",
"M. c #9B8642",
"N. c #9D8943",
"B. c #A88445",
"V. c #B48F45",
"C. c #B6A945",
"Z. c #978662",
"A. c #9A8164",
"S. c #9E9674",
"D. c #A58868",
"F. c #B18F62",
"G. c #B89469",
"H. c #AC9476",
"J. c #B59976",
"K. c #C3964A",
"L. c #CB9D4C",
"P. c #CBA944",
"I. c #DEAC52",
"U. c #C4A57E",
"Y. c #C8A679",
"T. c #E6C646",
"R. c #DEC67E",
"E. c #31529C",
"W. c #6F6483",
"Q. c #00A2DF",
"!. c #00B9FD",
"~. c #66ABD7",
"^. c #75C3F5",
"/. c #918A8E",
"(. c #B5A986",
"). c #B4B487",
"_. c #A7A7A7",
"`. c #C9AA85",
"'. c #D5B48B",
"]. c #C4B090",
"[. c #D8BA92",
"{. c #E4CA9B",
"}. c #DECAA4",
"|. c #E6CBA5",
" X c #EDD3AC",
".X c #F1D6AD",
"XX c #F8DEB5",
"oX c #FEE5BC",
"OX c #D3CDCB",
"+X c #DEE5DF",
"@X c #FBE7C7",
"#X c #ECEDF2",
"$X c #FFFFFF",
/* pixels */
" . . . ./ / / /  . . . ./ / / / N.N.N.N.N.N.N.N.N.N.N.N.N.N.N.N.N.N.N.N.N.N.N.N.N.N.N.N.N.N.N.N./ / / /  . . . .I / / / m. . . .",
" . . . ./ / / /  . . . ./ / / / N.N.N.N.N.N.N.N.N.N.N.N.N.N.N.N.N.N.N.N.N.N.N.N.N.N.N.N.N.N.N.N./ / / /  . . . ./ / / /  . . . .",
" . . . ./ / / /  . . . ./ / / / N.N.N.N.N.N.N.N.N.N.N.N.N.N.N.N.N.N.N.N.N.N.N.N.N.N.N.N.N.N.N.N./ / / /  . . . ./ / / /  . . . .",
" . . . ./ / / /  . . . ./ / / / N.N.N.N.N.N.N.N.N.N.N.N.N.N.N.N.N.N.N.N.N.N.N.N.N.N.N.N.N.N.N.N./ / / /  . . .m./ / / /  . . . .",
"/ / / / / / / / / / / / N.N.N.N.N.N.N.N./ / / / / / / / N.N.N.N.N.N.N.N./ / / / / / / / N.N.N.N.N.N.N.N./ / / / / / / / N / / / ",
"/ / / / / / / / / / / / N.N.N.N.N.N.N.N./ / / / / / / / N.N.N.N.N.N.N.N./ / / / / / / / N.N.N.N.N.N.N.N./ / / / / / / / ) N / / ",
"/ / / / / / / / / / / / N.N.N.N.N.N.N.N./ / / / / / / / N.N.N.N.N.N.N.N./ / / / / / / / N.N.N.N.N.N.N.N./ / / / / / / / / / / / ",
"/ / / / / / / / / / / / N.N.N.N.N.N.N.M./ / / ) / / / / N.N.N.N.N.N.N.N./ / / / / / / N N.N.N.N.N.N.N.N./ / / / / / / / / / / / ",
"/ / / / N.N.N.N.N.N.N.N.N.N.N.N.N.N.N.N.N.N.N.N./ / / / N.N.N.N.N.N.N.N./ / / / N.N.N.N.N.N.N.N.N.N.N.N.N.N.N.N.N.N.N.N./ / / / ",
"/ / / / N.N.N.N.N.N.N.N.N.N.N.N.N.N.N.N.N.N.N.N./ / / / N.N.N.N.N.N.N.N./ / / / N.N.N.N.N.N.N.N.N.N.N.N.N.N.N.N.N.N.N.N./ / / / ",
"/ / / / N.N.N.N.N.N.N.N.N.N.N.N.N.N.N.N.N.N.N.N./ / / / N.N.N.N.N.N.N.N./ / / / N.N.N.N.N.N.N.N.N.N.N.N.N.N.N.N.N.N.N.N./ / / / ",
"/ / / / N.N.N.N.N.N.N.N.N.N.N.N.N.N.N.N.N.N.N.N./ / / / N.M.M.M.N.N.N.N./ / N / N.N.N.N.N.N.N.N.N.N.N.N.N.N.N.N.N.N.N.N./ / / / ",
"/ / / / N.N.N.N.N.N.N.N.N.N.N.N.N.N.N.N.N.N.N.N.N.B.} D H x h w @.;.1.1.1.;.x P N.N.M.M.M.M.N.N.N.N.N.N.N.N.N.N.N.N.N.N./ / / / ",
"/ / / / N.N.N.N.N.N.N.N.N.N.N.N.N.N.N.N.N.N.B.B.V.r.u.2.2.#.z w @.;.1.1.1.;.#.>.m.m.m.m.N.N.N.N.N.N.N.N.N.N.N.N.N.N.N.N./ / / / ",
"/ / / / N.N.N.N.N.N.N.N.N.N.N.N.N.N.N.N.N.N.O.L.I.b.d.d.f.1.@.w @.1.1.1.1.1.1.-.#.#.x <.N.N.N.N.N.N.N.N.N.N.N.N.N.N.N.N./ / / / ",
"/ / / / N.N.N.N.N.N.N.N.N.N.N.N.N.N.N.N.N.u.i.P.L.k.x.n.v.t.<.@.@.&.;.1.1.1.1.;.#.#.x P E M.N.N.N.N.N.N.N.N.N.N.N.N.N.N./ / / / ",
"N.N.N.N.N.N.N.N.N.N.N.N.N.N.N.N./ / ^ _ O.j.d.p.| O.O.I.I.I.C.1.f w *.1.1.1.1.1.1.*.x u w N / / N.N.N.N.N.N.N.N.N.N.N.N.N.N.N.N.",
"N.N.N.N.N.N.N.N.N.N.N.N.N.N.N.N./ / [ q.j.j.l.P.L.O.B.v.c.K.N.1.f w *.1.1.1.1.;.$.#.x h s m m / N.N.N.N.N.N.N.N.N.N.N.N.N.N.N.N.",
"N.N.N.N.N.N.N.N.N.N.N.N.N.N.N.N./ _ B.p.d.k.O.L.I.w.B.d.g.O.9.1.f w *.;.1.1.1.-.x x x x x y e / N.N.N.N.N.N.N.N.N.N.N.N.N.N.N.N.",
"N.N.N.N.N.N.N.N.N.N.N.N.N.N.N.N./ / F 7.d.v.L.w.' Y.Y.d.g.O.u.f.a.*.f d d d d d x x x x x y e / N.N.N.N.N.N.N.N.N.N.N.N.N.N.N.N.",
"N.N.N.N./ / / / / / / / N.N.N.N./ ^ D 3.d.v.I.| F Y.'.d.g.O.i.d.a.;.d w w w w y x x x x x r e / N.N.N.N./ / / / / / / / N.N.N.N.",
"N.N.N.N./ / / / / / / / N.N.N.N./ / ^ _ e.} ( G.Y.'.'.e.B.| i.d.a.#.u w l l l x x x x x x x l p L N.N.N./ / / / / / / / N.N.N.N.",
"N.N.N.N./ / / / / / / / N.N.N.N./ / / _ | ` 8 J.'.'.[.B.B.r.i.h.y.P i t l l x x l l x x x x x w n N.N.N./ / / / / / / / N.N.N.N.",
"N.N.N.N./ / / / / / / / N.N.N.N./ / / / N.Y   H.'.oXoX'.[.d.z.O.0.O.P x t t x h w w w h x x x w n B.N.N./ / / / / / / / N.N.N.N.",
"N.N.N.N.N.N.N.N.N / / / N.N.N.N.N.N.N.N.N.T   D.U.|.|.'.R.d.z.O.} } L h u u h j w - - u l l x - n N.N.N./ / / / N.N.N.N.N.N.N.N.",
"N.N.N.N.N.N.N.N./ / / / N.N.N.N.N.N.N.N.N.T   ` O.F D '.R.d.z.O.` D a w l l w w - *   = w k x . 5 N.N.N./ / / / N.N.N.N.N.N.N.N.",
"N.N.N.N.N.N.N.N./ / / / N.N.N.N.N.N.N.{ R ..+.O.O.F F  X{.k.i.K.' D o.Z.).).(.S.w =   = w u s   v M.N.N./ / / / N.N.N.N.N.N.N.N.",
"N.N.N.N.N.N.N.N./ / / / N.N.N.N.N.N.B.[   +.'.G.O.F F oX.XO.K.I.| D U.'.oXoXoX}.w =   = w w w . 5 N.N.N./ / / / N.N.N.N.N.N.N.N.",
"N.N.N.N.N.N.N.N.B.N.N.N.N.N.N.N.N.N.N.]   Z.'./.W.OXOXoX.X( u.n.q.4 [..XoXXX`.G.& Z R v & s h . 5 N.N.N.N.N.N.N.N.N.N.N.N.N.N.N.",
"N.N.N.N.N.N.N.N.N.N.N.N.N.N.N.N.N.N.N.]   A.]./.E.#X$XoX.XD 6.d.4.  |.@XoXXXB.`   U N.H   h x . 5 N.N.N.N.N.N.N.N.N.N.N.N.N.N.N.",
"N.N.N.N.N.N.N.N.N.N.N.N.N.N.N.N.N.N.N.M.{ E K H.].@X@XoX XD 6.d.4.  ~.^.J.F.6 < . U N.H   t y   5 N.N.N.N.N.N.N.N.N.N.N.N.N.N.N.",
"N.N.N.N.N.N.B.N.N.N.N.N.N.N.N.N.N.N.N.N.N.T X H.'..X@XoX XD 6.d.4.  Q.!.A.} X O O U N.H X - w X 5 N.N.N.N.N.N.N.N.N.N.N.N.N.N.N.",
"N.N.N.N.N.N.N.N.N.N.N.N.N.N.N.N.N.N.N.N.N.N.N.H O `.'.'.`.D 6.d.4.  1 1 X 7 I.T.d.k.N.N.M.v X N.N.N.N.N.N.N.N.N.N.N.N.N.N.N.N.N.",
"N.N.N.N.N.N.N.N.N.N.N.N.N.N.N.N.N.N.N.N.N.N.N.U : J.U.U.J.8 7.h.5.  * = + 6 L.p.g.l.N.N.M.Z 5 M.N.N.N.N.N.N.N.N.N.N.N.N.N.N.N.N.",
"N.N.N.N.N.N.N.N.N.N.N.N.N.N.N.N.N.N.N.N.N.N.N.N.N :   w -   ' I.}   h x t -   3 N.N.N.N.N.N.N.N.N.N.N.N.N.N.N.N.N.N.N.N.N.N.N.N.",
"N.N.N.N.N.N.N.N.N.N.N.N.N.N.N.N.N.N.N.N.N.N.N.{ M a r u u r Y V.) 4 i s u u   3 N.N.N.N.N.N.N.N.N.N.N.N.N.N.N.N.N.N.N.N.N.N.N.N.",
"N.N.N.N.N.B.N.N./ / / / N.N.N.N.N.N.N.N.N.N.N.Z   k x x x x g   7 D #   l l   V N.N.N.N.N.N.N.N.N.N.N.N.) N / / N.N.N.N.N.N.N.N.",
"N.N.N.N.N.N.N.N./ / / / N.N.N.N.N.N.N.N.N.[ U 5.s.>.x x x r r s n L >   l l   V N.N.N.N.N.N.N.N.N.N.N.N./ / / / N.N.N.N.N.N.N.N.",
"N.N.N.N.N.N.N.N./ / / / N.N.N.N.N.N.N.N.N.T . s.d.:.x x k   r x x x ;   k k   V N.N.N.N.N.N.N.N.N.N.N.N./ / / / N.N.N.N.N.N.N.N.",
"N.N.N.N.N.N.N.N./ / / / N.N.N.N.N.N.N.N.N.Y   :.t.I G G Z . /.+X+X+X~   Z A g c V R N.N.N.N.N.N.N.N.N.N./ / / / N.N.N.N.N.N.N.N.",
"N.N.N.N.N / / / / / / / N.N.N.N./ / / / N.T   g x S D D 8   _.$X$X$X/.  8 S x h   U N.N./ / / / N.N.N.N./ / / / / / / / N.N.N.N.",
"N.N.N.N./ / / / / / / / N.N.N.N./ / / / N.T   &.;.,.,.,.,.  0 ! ! ! 2   ,.,.x h   J N.N./ / / / N.N.N.N./ / / / / / / / N.N.N.N.",
"N.N.N.N./ / / / / / / / N.N.N.N./ / / / N.R , %.=.1.1.;.&.  $ 9 9 9 @   =.;.l j , T N.N./ / / / N.N.N.N./ / / / / / / / N.N.N.N.",
"N.N.N.N./ / / / / / / / N.N.N.N./ / / / N.N.N.Z   -.;.x h   4 D D D #   =.=.  V N.N.N.N./ / / / N.N.N.N./ / / N / / / / N.N.N.N.",
"N.N.N.N.N.N.N.N.N.N.N.N.N.N.N.N./ / / / / / / b B %.*.h g   Q D.+.o.0   %.>.B U / / / / / / / / N.N.N.N.N.N.N.N.N.N.N.N.N.N.N.N.",
"N.N.N.N.N.N.N.N.N.N.N.N.N.N.N.N./ / / / / / / / B.5         H.oX{.'.Q     , N.N./ / / / / / / / N.N.N.N.N.N.N.B.N.N.N.N.N.N.N.N.",
"N.N.N.N.N.N.N.N.N.N.N.N.N.N.N.N./ / / / / / / M R 7 4 $ $ $ X.].J.D.C   J T N.N./ / / / / / / / N.N.N.N.N.N.N.N.N.N.N.N.N.N.N.N.",
"N.N.N.N.N.N.N.N.N.N.N.N.N.N.N.B./ / / / / / / 3   q 8 9 9 9 %       .   m.N.N.N./ / / / / / / / N.N.N.N.N.N.N.N.N.N.N.N.N.N.N.N.",
"/ / / / N.N.N.N.N.N.N.N.N.N.N.N.N.N.N.N.N.N.N.A   8 D 8 q 9 %       U W N.N.N.N.N.N.N.N.N.N.N.N.N.N.N.N.N.N.N.N.N.N.N.N./ / / / ",
"/ / / / N.N.N.N.N.N.N.N.N.N.N.N.N.N.N.N.N.N.B.J   8 D D q 9 %       { N.N.N.N.N.N.N.N.N.N.N.N.N.N.N.N.N.N.N.N.N.N.N.N.N./ / / / ",
"/ / / / N.N.N.N.N.N.N.N.N.N.N.N.N.N.N.N.N.N.N.8.{ 6 # # # o G { { { N.N.N.N.N.N.N.N.N.N.N.N.N.N.N.N.N.N.N.N.N.N.N.N.N.N./ / / / ",
"/ / / / N.N.N.N.N.N.N.N.N.N.N.N.N.N.N.N.N.N.N.N.N.5         H N.N.N.N.N.N.N.N.N.N.N.N.N.N.N.N.N.N.N.N.N.N.N.N.N.N.N.N.N./ / / / ",
"/ / / / N.N.N.N.N.N.N.N.N.N.N.N.N.N.N.N.N.N.N.N./ / / N N.N.N.N.N.N.N.N./ / / / N.N.N.N.N.N.N.N.N.N.N.N.N.N.N.N.N.N.N.N./ / / / ",
"/ / / / N.N.N.N.N.N.N.N.N.N.N.N.N.N.N.N.N.N.N.N./ / / / N.N.N.N.N.N.B.N./ / / / N.N.N.N.N.N.N.N.N.N.N.N.N.N.N.N.N.N.N.N./ / / / ",
"/ / / / N.N.N.N.N.N.N.N.N.N.N.N.N.N.N.N.N.N.N.N./ / / / N.N.N.N.N.N.N.N./ / / / N.N.N.N.N.N.N.N.N.N.N.N.N.N.N.N.N.N.N.N./ / / / ",
"/ / / / N.N.N.N.N.N.N.N.N.N.N.N.N.N.N.N.N.N.N.N./ / / / N.N.N.N.N.N.N.N./ / / / N.N.N.N.N.N.N.N.N.N.N.N.N.N.N.N.N.N.N.N./ / / / ",
"/ / / / / / / / / / / / N.N.N.N.N.N.N.N./ / / / / / / / N.N.N.N.N.N.N.N.N / / / / / / / N.N.N.N.N.N.N.N./ / / / / / / / / / / / ",
"/ / / / / / / / / / / / N.N.N.N.N.N.N.N./ / / / / / / / N.N.N.N.N.N.N.N./ / / / / / / / N.N.N.N.N.N.N.N./ / / / / / / / / / / / ",
"/ / / / / / / / / / / / N.N.N.N.N.N.N.N./ / / / / / / / N.N.N.N.N.N.N.N./ / / / / / / / N.N.N.N.N.N.N.N./ / / / / / / / / / / / ",
"/ / / / / / / / / / / / N.N.N.N.N.N.N.N./ / / / / / / / N.N.N.N.N.N.N.N./ / / / / / / / N.N.N.N.N.N.N.N./ / / I / / / / / / / / ",
"m. . . ./ / / /  . . . ./ / / / N.N.N.N.N.N.N.N.N.N.N.N.N.N.N.N.N.N.N.N.N.N.N.N.N.N.N.N.N.N.N.N./ / / /  . . . ./ / / / m. . . .",
" . . . ./ / / /  . . . ./ / / / N.N.N.N.N.N.N.N.N.N.N.N.N.N.N.N.N.N.N.N.N.N.N.N.N.N.N.N.N.N.N.N./ / / /  . . . ./ / / /  . . . .",
" . . . ./ / / /  . . . ./ / / / N.N.N.N.N.N.N.N.N.N.N.N.N.N.N.N.N.N.N.N.N.N.N.N.N.N.N.N.N.N.N.N./ / / /  . . . ./ / ) /  . . . .",
" . . . ./ / / N  . . .m./ / / / N.N.N.N.N.N.N.N.N.N.N.N.N.N.N.N.N.N.N.N.N.N.N.N.N.N.N.N.N.N.N.N./ / / /  . . .m./ / N N  . . . ."
};
