/* XPM */
static char *result[] = {
/* columns rows colors chars-per-pixel */
"64 64 189 2 ",
"   c #000001",
".  c #000C02",
"X  c #0C0904",
"o  c #130F05",
"O  c #140F0A",
"+  c #031804",
"@  c #191604",
"#  c #070F19",
"$  c #261707",
"%  c #032A08",
"&  c #073108",
"*  c #093509",
"=  c #073C0F",
"-  c #0C3D0C",
";  c #3E3109",
":  c #352E12",
">  c #0B1725",
",  c #4E2B13",
"<  c #4A2816",
"1  c #44261D",
"2  c #43281C",
"3  c #4C3819",
"4  c #593E1D",
"5  c #66391C",
"6  c #4B2920",
"7  c #4D3629",
"8  c #4A382B",
"9  c #583920",
"0  c #0D420D",
"q  c #17490E",
"w  c #064C17",
"e  c #0D4C13",
"r  c #0A5619",
"t  c #0B5619",
"y  c #125B1A",
"u  c #2C460E",
"i  c #2E480F",
"p  c #35501B",
"a  c #0E621D",
"s  c #1B661C",
"d  c #266B18",
"f  c #2C751B",
"g  c #0D6720",
"h  c #0E6D23",
"j  c #1D6A22",
"k  c #0F7326",
"l  c #117627",
"z  c #107B29",
"x  c #2B6522",
"c  c #2D7628",
"v  c #4D421D",
"b  c #49481D",
"n  c #504217",
"m  c #4D5215",
"M  c #61461C",
"N  c #635113",
"B  c #76700D",
"V  c #766319",
"C  c #7B651B",
"Z  c #514D20",
"A  c #5B4F24",
"S  c #5D5425",
"D  c #734120",
"F  c #615427",
"G  c #6F5421",
"H  c #6C5E2C",
"J  c #6E533A",
"K  c #4A6E26",
"L  c #5C6327",
"P  c #4F7E30",
"I  c #73642F",
"U  c #6A7229",
"Y  c #776A31",
"T  c #7A6A33",
"R  c #6D7C35",
"E  c #707B33",
"W  c #1F374F",
"Q  c #353442",
"!  c #315273",
"~  c #58554F",
"^  c #6B5943",
"/  c #7C6446",
"(  c #7A6C57",
")  c #4F4D61",
"_  c #77677E",
"`  c #81641D",
"'  c #826B1C",
"]  c #8B6D1E",
"[  c #865B36",
"{  c #896C27",
"}  c #86732A",
"|  c #916735",
" . c #956E3A",
".. c #837237",
"X. c #8C7A3B",
"o. c #96783A",
"O. c #A5793B",
"+. c #8F6A4D",
"@. c #837D45",
"#. c #826D57",
"$. c #867456",
"%. c #A47C41",
"&. c #A77D49",
"*. c #A07C55",
"=. c #957E61",
"-. c #31841F",
";. c #1A8129",
":. c #2B8A27",
">. c #368D23",
",. c #399324",
"<. c #389629",
"1. c #3A9C29",
"2. c #429D28",
"3. c #6D8832",
"4. c #769936",
"5. c #41A429",
"6. c #6FAE27",
"7. c #A5B519",
"8. c #84853C",
"9. c #9D803F",
"0. c #A9883E",
"q. c #B39A36",
"w. c #B2933D",
"e. c #BEA838",
"r. c #CBB833",
"t. c #B8D31D",
"y. c #D5D500",
"u. c #D8D800",
"i. c #CCCF1C",
"p. c #D9E314",
"a. c #FFFF01",
"s. c #ECE810",
"d. c #ECE814",
"f. c #EEEA1D",
"g. c #F7F511",
"h. c #D5CF2F",
"j. c #E3DA27",
"k. c #EAD43C",
"l. c #F5EF2D",
"z. c #FAF732",
"x. c #9C8542",
"c. c #9D8943",
"v. c #A28141",
"b. c #AC8443",
"n. c #B58945",
"m. c #B78F5A",
"M. c #8D8968",
"N. c #9A9A72",
"B. c #A78462",
"V. c #B28F6C",
"C. c #BB9769",
"Z. c #BB9974",
"A. c #9DA977",
"S. c #BFA37C",
"D. c #C8994A",
"F. c #CDA947",
"G. c #D3A94D",
"H. c #DEAC52",
"J. c #CDB55F",
"K. c #C7A67F",
"L. c #E5C149",
"P. c #E6DB44",
"I. c #EEE54B",
"U. c #31529C",
"Y. c #6195B9",
"T. c #008CC2",
"R. c #00B9FE",
"E. c #918C8D",
"W. c #B6A48E",
"Q. c #A59BA2",
"!. c #ABADAC",
"~. c #C5A989",
"^. c #D0AF85",
"/. c #D5B48B",
"(. c #DBC19C",
"). c #E2C49C",
"_. c #DEC8AE",
"`. c #E8CAA2",
"'. c #EAD2AA",
"]. c #F3D8AF",
"[. c #F5DCB3",
"{. c #FFE5BC",
"}. c #B4B9CF",
"|. c #81C5F3",
" X c #D0C8C5",
".X c #FFEAC9",
"XX c #FFEFD7",
"oX c #F2F4F3",
"OX c white",
/* pixels */
"@.@.@.@.' ' ' ' @.@.@.@.' ' ' ' c.c.c.c.c.c.c.c.c.c.c.c.c.c.c.c.c.c.c.c.c.c.c.c.c.c.c.c.c.c.c.c.' ' ' ' @.@.@.@.' ' ' ' @.@.@.@.",
"@.@.@.@.' ' ' ' @.@.@.@.' ' ' ' c.c.c.c.c.c.c.c.c.c.c.c.c.c.c.c.c.c.c.c.c.c.c.c.c.c.c.c.c.c.c.c.' ' ' ' @.@.@.@.' ' ' ' @.@.@.@.",
"@.@.@.@.' ' ' ' @.@.@.@.' ' ' ' c.c.c.c.c.c.c.c.c.c.c.c.c.c.c.c.c.c.c.c.c.c.c.c.c.c.c.c.c.c.c.c.' ' ' ' @.@.3.( ' ' ' ' @.@.@.@.",
"@.@.@.@.' ' ' ' @.@.@.@.' ' ' ' c.c.c.c.c.c.c.c.c.c.c.c.c.c.c.c.c.c.c.c.c.c.c.c.c.c.c.c.c.c.c.c.' ' ' ' @.@.@.x.' ' ' ' @.@.@.@.",
"' ' ' ' ' ' ' ' ' ' ' ' c.c.c.c.c.c.c.c.' ' ' ' ' ' ' ' c.c.c.c.c.c.c.c.' ' ' ' ' ' ' ' c.c.c.c.c.c.c.c.' ' ' ' ' ' ' ' ' ' ' ' ",
"' ' ' ' ' ' ' ' ' ' ' ' c.c.c.c.c.c.c.c.' ' ' ' ' ' ' ' c.c.c.c.c.c.c.c.' ' ' ' ' ' ' ' c.c.c.c.c.c.c.c.' ' ' ' ' ' ' ' ' ' ' ' ",
"' ' ' ' ' ' ' ' ' ' ' ' c.c.c.c.c.c.c.c.' ' ' ' ' ' ' ' c.c.c.c.c.c.c.c.' ' ' ' ' ' ' ' c.c.c.c.c.c.c.c.' ' ' ' ' ' ' ' ' ' ' ' ",
"' ' ' ' ' ' ' ' ' ' ' ' c.c.c.c.c.c.c.c.' ' ' U ' ' ' ' c.c.c.c.c.c.c.c.' ' ' ' ' ' ' ' c.c.c.c.c.c.c.c.' ' ' ' ' ' ' ' ' ' ' ' ",
"' ' ' ' c.c.c.c.c.c.c.c.c.c.c.c.c.c.c.c.c.c.c.c.' ' ' ' c.c.c.c.c.c.c.c.' ' ' ' c.c.c.c.c.c.c.c.c.c.c.c.c.c.c.c.v.c.c.c.' ' ' ' ",
"' ' ' ' c.c.c.c.c.c.c.c.c.c.c.c.c.c.c.c.c.c.c.c.' ' ' ' c.c.c.c.c.c.c.c.' ' ' ' c.c.c.c.c.c.c.c.c.c.c.c.c.c.c.c.c.c.c.c.' ' ' ' ",
"' ' ' ' c.c.c.c.c.c.c.c.c.c.c.c.c.c.c.c.c.c.c.c.' ' ' ' c.c.c.c.c.c.c.c.' ' ' ' c.c.c.c.c.c.c.c.c.c.c.c.c.c.c.c.c.c.c.c.' ' ' ' ",
"' ' ' ' c.c.c.c.c.c.c.c.c.c.c.c.c.c.c.c.c.c.c.c.' ' ' ' c.c.c.c.c.c.c.c.' ' ' ' c.c.c.c.c.c.c.c.c.c.c.c.c.c.c.c.c.c.c.c.' ' ' ' ",
"' ' ' ' c.c.c.c.c.c.c.c.c.c.c.c.c.c.c.c.c.c.c.c.3.E 4.4.4.4.4.3.I 3.R | X.o.c.c.c.c.c.c.c.c.c.c.c.c.c.c.c.c.c.c.c.c.c.c.' ' ' ' ",
"' ' ' ' c.c.c.c.c.c.c.c.c.c.c.c.c.c.c.c.c.c.c.v.P z 5.5.5.5.5.d 0 l c D [ %.v.c.c.c.c.c.c.c.c.c.c.c.c.c.c.c.c.c.c.c.c.c.' ' ' ' ",
"' ' ' ' c.c.c.c.c.c.c.c.c.c.c.c.c.c.c.x.x.P P P 2.2.5.5.5.5.5.d 0 <.6.s.s.f.L.G.b.%.c.c.c.c.c.c.c.c.c.c.c.c.c.c.c.c.c.c.' ' ' ' ",
"' ' ' ' c.c.c.c.c.c.c.c.c.c.c.c.c.c.c.x.8.z z z 1.5.5.5.5.5.5.d 0 2.6.a.a.a.k.H.n.v.c.c.c.c.c.c.c.c.c.c.c.c.c.c.c.c.c.c.' ' ' ' ",
"c.c.c.c.c.c.c.c.c.c.c.c.c.c.c.c.' ' C 0 y z <.5.5.5.5.5.5.-.0 >.5.G.H.H.G.%.%.%.f.a.%.o.' ` ' ' c.c.c.c.c.c.c.c.c.c.c.c.c.c.c.c.",
"c.c.c.c.c.c.c.c.c.c.c.c.c.c.c.c.' C V t a z :.1.5.5.5.5.5.-.- >.5.G.G.L.G.O.&.n.j.j.r.q.{ ] ' ' c.c.c.c.c.c.c.c.c.c.c.c.c.c.c.c.",
"c.c.c.c.c.c.c.c.c.c.c.c.c.c.c.c.' i e z z z ;.z 1.5.5.5.5.-.0 :.5.x.w.a.j.O.D.H.b.%.a.f.O.o.' ' c.c.c.c.c.c.c.c.c.c.c.c.c.c.c.c.",
"c.c.c.c.c.c.c.c.c.c.c.c.c.c.c.c.' i e z z z z z :.-.-.-.-.f f t.t.0.w.a.k.C.m.n.D.D.a.d.| { ' ' c.c.c.c.c.c.c.c.c.c.c.c.c.c.c.c.",
"c.c.c.c.' ' ' ' ' ' ' ' c.c.c.c.C i w z z z z z e 0 0 0 0 f 5.p.a.w.w.a.I./.B.D D.H.a.s.5 ` ' ' c.c.c.c.' ' ' ' ' ' ' ' c.c.c.c.",
"c.c.c.c.' ' ' ' ' ' ' ' c.c.c.T m s h z z z z z h h h g 0 j :.p.a.w.%.r.J./.^.Z.&.O.r.e.` T ' ' c.c.c.c.' ' ' ' ' ' ' ' c.c.c.c.",
"c.c.c.c.' ' ' ' ' ' ' ' c.c.c.L e z z z z z z z l z z l 0 a z p.a.w.%.%.C./././.+.D O.%.' ' ' ' c.c.c.c.' ' ' ' ' ' ' ' c.c.c.c.",
"c.c.c.c.' ' ' ' ' ' ' ' c.c.c.L 0 l z ;.a e w w l z e t l E o.w.w.f.l.^.).[.`./.^ $ x.x.' ' ' C c.c.c.c.' ' ' ' ' ' ' ' c.c.c.c.",
"c.c.c.c.c.c.c.c.' ' ' ' c.c.c.S 0 l z l a 0 0 0 h l e t l E O.%.%.g.z./.).[.).^.J o c.c.c.c.c.c.c.c.c.c.' ' ' ' c.c.c.c.c.c.c.c.",
"c.c.c.c.c.c.c.c.' ' ' ' c.c.c.A   k l 0 *   & 0 0 0 l l 0 n 5  .%.g.z./.Z.D | O.3 o c.c.c.c.c.c.c.c.c.c.' ' ' ' c.c.c.c.c.c.c.c.",
"c.c.c.c.c.c.c.c.' ' ' ' c.c.c.A   a a 0 *   & 0 M.N.A.N.( / D O.n.j.P.).~.D | %.+.#...@.c.c.c.c.c.c.c.c.' ' ' ' c.c.c.c.c.c.c.c.",
"c.c.c.c.c.c.c.c.' ' ' ' c.c.c.A   0 0 0 *   & 0 `.{.{.{./.V.D D.H.b.V.{.(.D | %.^./.  v c.c.c.c.c.c.c.c.' ' ' ' c.c.c.c.c.c.c.c.",
"c.c.c.c.c.c.c.c.c.c.c.c.c.c.c.A   a a % b Y Z & S./.{.{.'.S., h.k.o.*.{.[. XQ._ ~./.  v c.c.c.c.c.c.c.c.c.c.c.c.c.c.c.c.c.c.c.c.",
"c.c.c.c.c.c.c.c.c.c.c.c.c.c.c.A   z k   F c.H    .v.{.{.{.~.  u.a.] +.{.XXOX}.U.~./.  v c.c.c.c.c.c.c.c.c.c.c.c.c.c.c.c.c.c.c.c.",
"c.c.c.c.c.c.c.c.c.c.c.c.c.c.c.A   e e   F c.H   3 9 Z.!.|.Y.  u.a.] +.{..X.X_.W.( ^ X.x.c.c.c.c.c.c.c.c.c.c.c.c.c.c.c.c.c.c.c.c.",
"c.c.c.c.c.c.c.c.c.c.c.c.c.c.c.S X 0 - X F c.H @ o @ O.E.R.T.  u.a.] +.{.{..X`./.^ @ c.c.c.c.c.c.c.c.c.c.c.c.c.c.c.c.c.c.c.c.c.c.",
"c.c.c.c.c.c.c.c.c.c.c.c.c.c.c.c.c.: : c.c.c.h.a.L.G.X X # #   y.a.] [ /././.=.o 8.c.c.c.c.c.c.c.c.c.c.c.c.c.c.c.c.c.c.c.c.c.c.c.",
"c.c.c.c.c.c.c.c.c.c.c.c.c.c.c.c.c.A S c.c.c.h.f.F.D.+ % = %   i.l.` J S.K.S.$.; 9.c.c.c.c.c.c.c.c.c.c.c.c.c.c.c.c.c.c.c.c.c.c.c.",
"c.c.c.c.c.c.c.c.c.c.c.c.c.c.c.c.c.c.c.c.c.c.c.c.;   0 r k r   D.H.4 + 0 *   N ' c.c.c.c.c.c.c.c.c.c.c.c.c.c.c.c.c.c.c.c.c.c.c.c.",
"c.c.c.c.c.c.c.c.c.c.c.c.c.c.c.c.c.c.c.c.c.c.c.c.; . a a r p ,  .0.p t a t r m N 8.c.c.c.c.c.c.c.c.c.c.c.c.c.c.c.c.c.c.c.c.c.c.c.",
"c.c.c.c.c.c.c.c.' ' ' ' c.c.c.c.c.c.c.c.c.c.c.c.v . z h   , D :   k z z z z r   } 0.9.c.c.c.c.c.c.c.c.c.' ' ' ' c.c.c.c.c.c.c.c.",
"c.c.c.c.c.c.c.c.' ' ' ' c.c.c.c.c.c.c.c.c.c.c.c.v . z k   p K x g w r z z z 7.y.8.F 0.c.c.c.c.c.c.c.c.c.' ' ' ' c.c.c.c.c.c.c.c.",
"c.c.c.c.c.c.c.c.' ' ' ' c.c.c.c.c.c.c.c.c.c.c.c.v . z h   t z z z % & z z k i.a.B @ c.c.c.c.c.c.c.c.c.c.' ' ' ' c.c.c.c.c.c.c.c.",
"c.c.c.c.c.c.c.c.' ' ' ' c.c.c.c.c.c.c.c.c.c.I : x l M M   !.oXoXoX~ $ M M N 3.3.u o c.c.c.c.c.c.c.c.c.c.' ' ' ' c.c.c.c.c.c.c.c.",
"c.c.c.c.' ' ' ' ' ' ' ' c.c.c.c.C ' ' ' c.c.H   h z G M   !.oXoXoX) $ G G G K ;.= O c.c.' ' ' ' c.c.c.c.' ' ' ' ' ' ' ' c.c.c.c.",
"c.c.c.c.' ' ' ' ' ' ' ' c.c.c.c.' ' ' ' c.c.H   h z 5.,.  W ! ! ! > q 5.5.5.5.5.q @ c.c.' ' ' ' c.c.c.c.' ' ' ' ' ' ' ' c.c.c.c.",
"c.c.c.c.' ' ' ' ' ' ' ' c.c.c.c.' ' ' ' c.c.T F x h 5.,.  Q ) ) ) > - <.1.5.,.>.L F c.c.' ' ' ' c.c.c.c.' ' ' ' ' ' ' ' c.c.c.c.",
"c.c.c.c.' ' ' ' ' ' ' ' c.c.c.c.' ' ' ' c.c.c.c.3 + 5.>.  , D D D $ % l :.5.d   X.c.c.c.' ' ' ' c.c.c.c.' ' ' ' ' ' ' ' c.c.c.c.",
"c.c.c.c.c.c.c.c.c.c.c.c.c.c.c.c.' ' ' ' ' ' ' ' T T f d   / V.~./.8 + r s f U Y C ' ' ' ' ' ' ' c.c.c.c.c.c.c.c.c.c.c.c.c.c.c.c.",
"c.c.c.c.c.c.c.c.c.c.c.c.c.c.c.c.' ' ' ' ' ' ' ' c.c.      =./.].{.~         T v.' ' ' ' ' ' ' ' c.c.c.c.c.c.c.c.c.c.c.c.c.c.c.c.",
"c.c.c.c.c.c.c.c.c.c.c.c.c.c.c.c.' ' ' ' ' ' ' ' c.c.X.T   8 ^ ( $.7 1 : 6 5 4 v V ' ' ' ' ' ' ' c.c.c.c.c.c.c.c.c.c.c.c.c.c.c.c.",
"c.c.c.c.c.c.c.c.c.c.c.c.c.c.c.c.' ' ' ' ' ' ' ' c.c.c.X.X X       2 6 6 9 D ,   V ' ' ' ' ' ' ' c.c.c.c.c.c.c.c.c.c.c.c.c.c.c.c.",
"' ' ' ' c.c.c.c.c.c.c.c.c.c.c.c.c.c.c.c.c.c.c.c.c.c.c.c.c.Y       6 6 D D D ,   8.c.c.c.c.c.c.c.c.c.c.c.c.c.c.c.c.c.c.c.' ' ' ' ",
"' ' ' ' c.c.c.c.c.c.c.c.c.c.c.c.c.c.c.c.c.c.c.c.c.c.c.c.c...v v v 2 < 5 5 5 4 v 9.c.c.c.c.c.c.c.c.c.c.c.c.c.c.c.c.c.c.c.' ' ' ' ",
"' ' ' ' c.c.c.c.c.c.c.c.c.c.c.c.c.c.c.c.c.c.c.c.c.c.c.c.c.c.c.c.c.:         Y c.c.c.c.c.c.c.c.c.c.c.c.c.c.c.c.c.c.c.c.c.' ' ' ' ",
"' ' ' ' c.c.c.c.c.c.c.c.c.c.c.c.c.c.c.c.c.c.c.c.c.c.c.c.c.c.c.c.c.I H H H H X.c.c.c.c.c.c.c.c.c.c.c.c.c.c.c.c.c.c.c.c.c.' ' ' ' ",
"' ' ' ' c.c.c.c.c.c.c.c.c.c.c.c.c.c.c.c.c.c.c.c.' ' ' ' c.c.c.c.c.c.c.c.' ' ' ' c.c.c.c.c.c.c.c.c.c.c.c.c.c.c.c.c.c.c.c.' ' ' ' ",
"' ' ' ' c.c.c.c.c.c.c.c.c.c.c.c.c.c.c.c.c.c.c.c.' ' ' ' c.c.c.c.c.c.c.c.' ' ' ' c.c.c.c.c.c.c.c.c.c.c.c.c.c.c.c.c.c.c.c.' ' ' ' ",
"' ' ' ' c.c.c.c.c.c.c.c.c.c.c.c.c.c.c.c.c.c.c.c.' ' ' ' c.c.c.c.c.c.c.c.' ' ' ' c.c.c.c.c.c.c.c.c.c.c.c.c.c.c.c.c.c.c.c.' ' ' C ",
"' ' ' ' c.c.c.c.c.c.c.c.c.c.c.c.c.c.c.c.c.c.c.c.' ' ' ' c.c.c.c.c.c.c.c.' ' ' ' c.c.c.c.c.c.c.c.c.c.c.c.c.c.c.c.c.c.c.c.' ' ' ' ",
"' ' ' ' ' ' ' ' ' ' ' ' c.c.c.c.c.c.c.c.' ' ' ' ' ' ' ' c.c.c.c.c.c.c.c.' ' ' ' ' ' ' ' c.c.c.c.c.c.c.c.' ' ' ' ' ' ' ' ' ' ' ' ",
"' ' ' ' ' ' ' ' ' ' ' ' c.c.c.c.c.c.c.c.' ' ' ' ' ' ' ' c.c.c.c.c.c.c.c.' ' ' ' ' ' ' ' c.c.c.c.c.c.c.c.' ' ' ] ' ' ' ' ' ' ' ' ",
"' ' ' ' ' ' ' ' ' ' ' ' c.c.c.c.c.c.c.c.' ' ' ' ' ' ' ' c.c.c.c.c.c.c.c.' ' ' ' ' ' ' ' c.c.c.c.c.c.c.c.' ' } B ' ' ' ' ' ' ' ' ",
"' ' ' ' ' ' ' ' ' ' ' ' c.c.c.c.c.c.c.c.' ' ' ' ' ' ' ' c.c.c.c.c.c.c.c.' ' ' ' ' ' ' ' c.c.c.c.c.c.c.c.' ' C C ' ' ' ' ' ' ' ' ",
"x.x.( 8.' ' ' ' @.@.@.8.' ' ' ' c.c.c.c.c.c.c.c.c.c.c.c.c.c.c.c.c.c.c.c.c.c.c.c.c.c.c.c.c.c.c.c.' ' ' ' @.@.@.@.' ' ' ' x.x.( 3.",
"( 3.@.@.' ' ' ' @.@.@.( ' ' ' ' c.c.c.c.c.c.c.c.c.c.c.c.c.c.c.c.c.c.c.c.c.c.c.c.c.c.c.c.c.c.c.c.' ' ' ' @.@.@.@.' ' ' ' ( 3.( x.",
"@.@.@.@.' ' ' ' @.@.3.x.' ' ' ' c.c.c.c.c.c.c.c.c.c.c.c.c.c.c.c.c.c.c.c.c.c.c.c.c.c.c.c.c.c.c.c.' ' ' ' @.@.8./ ' ' ' ' @.@.x.R ",
"@.@.@.@.' ' ' C @.@.( x.' ' ' ' c.c.c.c.c.c.c.c.c.c.c.c.c.c.c.c.c.c.c.c.c.c.c.c.c.c.c.c.c.c.c.c.' ' ' ' @.@.@.x.' ' ' Y @.@.@.@."
};
