/* XPM */
static char *result[] = {
/* columns rows colors chars-per-pixel */
"64 64 185 2 ",
"   c #000001",
".  c #020B02",
"X  c #0E0902",
"o  c #160907",
"O  c #011403",
"+  c #021A03",
"@  c #1F1906",
"#  c #210F0B",
"$  c #261D05",
"%  c #321B0A",
"&  c #2A1510",
"*  c #331B14",
"=  c #042305",
"-  c #052B07",
";  c #093409",
":  c #0B3C0B",
">  c #103007",
",  c #063F11",
"<  c #2A2206",
"1  c #352909",
"2  c #3C340A",
"3  c #3E211A",
"4  c #3E3617",
"5  c #473C0D",
"6  c #442A15",
"7  c #42241C",
"8  c #532D15",
"9  c #453719",
"0  c #563319",
"q  c #61361A",
"w  c #663B1C",
"e  c #6E3E1F",
"r  c #4A2920",
"t  c #6B3C20",
"y  c #703F20",
"u  c #0D420D",
"i  c #10470E",
"p  c #0A4310",
"a  c #0C4C13",
"s  c #0E5316",
"d  c #0B5519",
"f  c #0C5A1B",
"g  c #175111",
"h  c #1A5C16",
"j  c #255D1C",
"k  c #0E621D",
"l  c #18631E",
"z  c #206116",
"x  c #307A1D",
"c  c #375C21",
"v  c #0C6520",
"b  c #0E6B22",
"n  c #0E7225",
"m  c #107B29",
"M  c #326623",
"N  c #2A7929",
"B  c #377227",
"V  c #4F400E",
"C  c #55450F",
"Z  c #4E431E",
"A  c #564514",
"S  c #71401F",
"D  c #685515",
"F  c #735E18",
"G  c #77591C",
"H  c #7B601C",
"J  c #514620",
"K  c #594C23",
"L  c #684824",
"P  c #734221",
"I  c #714E22",
"U  c #655627",
"Y  c #695B2A",
"T  c #73562C",
"R  c #6C4632",
"E  c #466B26",
"W  c #6E612A",
"Q  c #73632F",
"!  c #637424",
"~  c #776731",
"^  c #7E6331",
"/  c #7A6A32",
"(  c #1E354C",
")  c #3C4248",
"_  c #2F4F6E",
"`  c #0D7266",
"'  c #5B5B5B",
"]  c #655149",
"[  c #78704C",
"{  c #72767C",
"}  c #826B1C",
"|  c #845C2E",
" . c #86672B",
".. c #8E702B",
"X. c #92722F",
"o. c #856531",
"O. c #896733",
"+. c #8B6B35",
"@. c #926736",
"#. c #827136",
"$. c #8D7739",
"%. c #9A733C",
"&. c #937C3C",
"*. c #837241",
"=. c #837D45",
"-. c #947B41",
";. c #A47B41",
":. c #33831F",
">. c #2C8D28",
",. c #378921",
"<. c #358C22",
"1. c #3A9324",
"2. c #3C9A26",
"3. c #329329",
"4. c #369829",
"5. c #3B9D29",
"6. c #3FA129",
"7. c #4B8D27",
"8. c #4F9427",
"9. c #589C2C",
"0. c #41A429",
"q. c #6DA82E",
"w. c #7CB626",
"e. c #7A8772",
"r. c #9D991E",
"t. c #AC9B1A",
"y. c #B0B001",
"u. c #B7AF11",
"i. c #978729",
"p. c #95813F",
"a. c #A29224",
"s. c #9EA63E",
"d. c #B2AB38",
"f. c #CBB934",
"g. c #ABCA22",
"h. c #CBC60A",
"j. c #FFFF00",
"k. c #F9F70F",
"l. c #EEE91D",
"z. c #F2EE19",
"x. c #DDD32A",
"c. c #D0C531",
"v. c #E3DA26",
"b. c #ECD73A",
"n. c #9A8441",
"m. c #9D8943",
"M. c #97815B",
"N. c #A18142",
"B. c #A0854D",
"V. c #A98F57",
"C. c #988968",
"Z. c #AB8C66",
"A. c #B99C73",
"S. c #B0A27E",
"D. c #C99B49",
"F. c #DBAB50",
"G. c #DBAA51",
"H. c #C09C70",
"J. c #CAAA7F",
"K. c #0A778B",
"L. c #607B8E",
"P. c #0886AF",
"I. c #0790BD",
"U. c #5986AF",
"Y. c #00BAFF",
"T. c #4A98CC",
"R. c #869481",
"E. c #98B091",
"W. c #BCA98A",
"Q. c #ABB2AF",
"!. c #CAAB86",
"~. c #D1B287",
"^. c #D4B38A",
"/. c #C9B894",
"(. c #BBE0BC",
"). c #DEC39E",
"_. c #E1C39B",
"`. c #E4C9A1",
"'. c #ECD0A8",
"]. c #F6DEB6",
"[. c #FEE5BC",
"{. c #BDC1C8",
"}. c #D5D5D3",
"|. c #EAEEEB",
" X c white",
/* pixels */
"=.=.=.=.} } } } =.=.=.=.} } } } m.m.m.m.m.m.m.m.m.m.m.m.m.m.m.m.m.m.m.m.m.m.m.m.m.m.m.m.m.m.m.m.} } } } =.=.=.=. .} } } =.=.=.=.",
"=.=.=.=.} } } } =.=.=.=.} } } } m.m.m.m.m.m.m.m.m.m.m.m.m.m.m.m.m.m.m.m.m.m.m.m.m.m.m.m.m.m.m.m.} } } } =.*.=.=.} } } } =.=.=.=.",
"=.=.=.=.} } } } =.=.=.=.} } } } m.m.m.m.m.m.m.m.m.m.m.m.m.m.m.m.m.m.m.m.m.m.m.m.m.m.m.m.m.m.m.m.} } } } q.*.[ n.} } } } =.=.=.=.",
"=.=.=.=.} } } } =.=.=.=.} } } } m.m.m.m.m.m.m.m.m.m.m.m.m.m.m.m.m.m.m.m.m.m.m.m.m.m.m.m.m.m.m.m.} } } } / e.n.n.} } } } =.=.=.=.",
"} } } } } } } } } } } } m.m.m.m.m.m.m.m.} } } } } } } } m.m.m.m.m.m.m.m.} } } } } } } } m.m.m.m.m.m.m.m.} } } } } } } } } } } } ",
"} } } } } } } } } } } } m.m.m.m.m.m.m.m.} } } } } } } } m.m.m.m.m.m.m.m.} } } } } } } } m.m.m.m.m.m.m.m.} } } } } } } } } } } } ",
"} } } } } } } } } } } } m.m.m.m.m.m.m.m.} } } } } } } } m.m.m.m.m.m.m.m.} } } } } } } } m.m.m.m.m.m.m.m.} } } } } } } } } } } } ",
"} } } } } } } } } } } } m.m.m.m.m.m.m.m.} } } H } } } } m.m.m.m.m.m.m.m.} } } } } } } } m.m.m.m.m.m.m.m.} } } } } } } } } } } } ",
"} } } } m.m.m.m.m.m.m.m.m.m.m.m.m.m.m.m.m.m.m.m.} } } } m.m.m.m.m.m.m.m.} } } } p.m.m.m.m.m.m.m.m.m.m.m.m.m.m.m.p.N.m.m.} } } } ",
"} } } } m.m.m.m.m.m.m.m.m.m.m.m.m.m.m.m.m.m.m.m.} } } } m.m.m.m.m.m.m.m.} } } } N.m.m.m.m.m.m.m.m.m.m.m.m.m.m.m.m.m.m.m.} } } } ",
"} } } } m.m.m.m.m.m.m.m.m.m.m.m.m.m.m.m.m.m.m.m.} } } } m.m.B.N.m.m.m.m.} } } } m.m.m.m.m.m.m.m.m.m.m.m.m.m.m.m.m.m.m.m.} } } } ",
"} } } } m.m.m.m.m.m.m.m.m.m.m.m.m.m.m.m.m.m.m.m.} } } G o.N.N.N.N.N.%.o.T } } } m.m.m.m.m.m.m.m.m.m.m.m.m.m.m.m.m.m.m.m.} } } } ",
"} } } } m.m.m.m.m.m.m.m.m.m.m.m.m.m.m.m.m.m.m.m.N.m.m.I P ;.;.;.;.;.%.y | m.m.m.m.m.m.m.m.m.m.m.m.m.m.m.m.m.m.m.m.m.m.m.} } } } ",
"} } } } m.m.m.m.m.m.m.m.m.m.m.m.m.m.m.m.m.m.m.m.m.U Z D.D.l.z.l.v.;.;.;.d.l.c.;.N.m.m.m.m.m.m.m.m.m.m.m.m.m.m.m.m.m.m.m.} } } } ",
"} } } } m.m.m.m.m.m.m.m.m.m.m.m.m.m.m.m.m.m.m.m.m.4   G.G.j.j.j.z.;.;.;.f.j.x.;.N.m.m.m.m.m.m.m.m.m.m.m.m.m.m.m.m.m.m.m.} } } } ",
"} } } } m.m.m.m.m.m.m.m.m.m.m.m.m.m.m.m.m.m.m.U 9 <.1.q.q.w.w.w.w.9.9.9.g.j.x.;.p.N.N.m.m.m.m.m.m.m.m.m.m.m.m.m.m.m.m.m.} } } } ",
"m.m.m.m.m.m.m.m.m.m.m.m.m.m.m.m.} } } } } } } 5   2.0.0.0.0.0.0.0.0.0.0.g.j.x.;.;.;.X.} } } } } m.m.m.m.m.m.m.m.m.m.m.m.m.m.m.m.",
"m.m.m.m.m.m.m.m.m.m.m.m.m.m.m.m.} } } } } V $ <.2.z g g g g g g g g g g :.q.s.F.b.k.u.P G } } } m.m.m.m.m.m.m.m.m.m.m.m.m.m.m.m.",
"m.m.m.m.m.m.m.m.m.m.m.m.m.m.m.m.} } } } H 5 . 1.0.h i i i i i i i i i i x 0.s.F.b.j.u.P } } } } m.m.m.m.m.m.m.m.m.m.m.m.m.m.m.m.",
"m.m.m.m.m.m.m.m.m.m.m.m.m.m.m.m.} } } C X b m s i 2.0.0.0.0.0.0.0.0.0.0.,.u l N j < | ;...} } } m.m.m.m.m.m.m.m.m.m.m.m.m.m.m.m.",
"m.m.m.m.} } } } } } } } m.m.m.m.} } H A   k m h g 2.0.0.0.0.0.0.0.0.0.0.<.g l m f   ^ ;...} } } m.m.m.m.} } } } } } } } m.m.m.m.",
"m.m.m.m.} } } } } } } } m.m.m.m.} } } V   : u 1.0.0.0.0.0.0.0.0.0.0.0.0.0.0.:.u -   / m.} } } } m.m.m.m.} } } } } } } } m.m.m.m.",
"m.m.m.m.} } } } } } } } m.m.m.m...$.-.U + u s <.2.0.0.0.0.0.0.0.0.0.0.0.6.2.N a , O *.V.X... .} m.m.m.m.} } } } } } } } m.m.m.m.",
"m.m.m.m.} } } } } } } H m.m.m.;.p.A.~.M.u b m s u 5.0.0.0.0.0.0.0.0.0.0.<.u l m v a Z.^.V.;...} m.m.m.m.} } } } } } } } m.m.m.m.",
"m.m.m.m.m.m.m.m.} } } } m.n.&.V.H.~._.C.i b m f s 2.0.0.0.0.0.0.0.0.0.0.<.s k >.k i A.).J.A.m.-.N.m.m.m.} } } } m.m.m.m.m.m.m.m.",
"m.m.m.m.m.m.m.m.} } } } m.$.P !.[.[.[.S.i b m m m 0.0.0.0.0.0.0.0.0.0.0.4.m m n k u /.[.[.[.Z.S p.m.m.m.} } } } m.m.m.m.m.m.m.m.",
"m.m.m.m.m.m.m.m.} } } } m.&.o.A.).`._.C.: b m n b 3.4.0.0.0.0.0.0.0.6.4.>.k n m k u S._._.).M.o.p.m.m.m.} } } } m.m.m.m.m.m.m.m.",
"m.m.m.m.m.m.m.m.} } } } m.m.n.+.S @.N.W i b m s u n m 0.0.0.0.0.0.0.2.m b p k m k u +.;.| P p.N.m.m.m.m.} } } } m.m.m.m.m.m.m.m.",
"m.m.m.m.m.m.m.m.m.m.m.m.m.m.m.&.O.+.X.L.P.` b , ; n m 3.3.0.0.0.6.3.>.m v ; d k K.P.{ @.+.X.p.m.m.m.m.m.m.m.m.m.m.m.m.m.m.m.m.m.",
"m.m.m.m.m.m.m.m.m.m.m.m.m.m.m.m.m.+.S T.Y.K.i +   n m m m 0.0.0.6.m m m v   - u I.Y.U.y &.m.m.m.m.m.m.m.m.m.m.m.m.m.m.m.m.m.m.m.",
"m.m.m.m.m.m.m.m.m.m.m.m.m.m.m.m.m.^ 8 E.(.e.A $   n m m m 3.3.3.>.m m m k   1 Z E.(.R.8 $.m.m.m.m.m.m.m.m.m.m.m.m.m.m.m.m.m.m.m.",
"m.m.m.m.m.m.m.m.m.m.m.m.m.m.m.m.m.W   h.j.t.P %   n m m m m m m m m m m v   8 S h.j.y.  #.m.m.m.m.m.m.m.m.m.m.m.m.m.m.m.m.m.m.m.",
"m.m.m.m.m.m.m.m.m.m.m.m.m.m.m.m.N.*./ r.y.i.@.9   f k n m m m m m m n k a   L +.a.y.i./ n.m.m.m.m.m.m.m.m.m.m.m.m.m.m.m.m.m.m.m.",
"m.m.m.m.m.m.m.m.m.m.m.m.m.m.m.m.m.m.m.U   +.;.0   : u m m m m m m m n u ;   T ;.T   / m.m.m.m.m.m.m.m.m.m.m.m.m.m.m.m.m.m.m.m.m.",
"m.m.m.m.m.m.m.m.m.m.m.m.m.m.m.m.m.m.m.-.#.Y L <   = = m m m m m m m n = +   6 L Q / n.m.m.m.m.m.m.m.m.m.m.m.m.m.m.m.m.m.m.m.m.m.",
"m.m.m.m.m.m.m.m.m.m.m.m.m.m.m.m.m.m.m.m.m.K           m m m m m m m b           ~ m.m.m.m.m.m.m.m.m.m.m.m.m.m.m.m.m.m.m.m.m.m.m.",
"m.m.m.m.m.m.m.m.} } } } m.m.m.m.m.m.m./ Z M b a : O   s f m m m n s a   = : s b c J #.m.m.m.m.m.m.m.m.m.H } } } m.m.m.m.m.m.m.m.",
"m.m.m.m.m.m.m.m.} } } } m.m.m.m.m.m.m.Y   k m d u O   : u m m m n u ;   - u f m f   / m.m.m.m.m.m.m.m.m.} } } } m.m.m.m.m.m.m.m.",
"m.m.m.m.m.m.m.m.} } } } m.m.m.m.m./ 9 9 7 }.|.M.u b b - = m m m n + , b k u Q.|.Q._ ) 9 $.m.m.m.m.m.m.m.} } } } m.m.m.m.m.m.m.m.",
"m.m.m.m.m.m.m.m.} } } } m.m.m.m.m.W   3 0 }. XU.u n m = O m m m n   , >.k u Q. X{._ (   #.m.m.m.m.m.m.m.} } } } m.m.m.m.m.m.m.m.",
"m.m.m.m.} } } } } } } } m.m.m./ < 0 y y P ] ' R y N m = . a a a u   p m E y ] ' ] R y y 6 $ H } m.m.m.m.} } } } } } } } m.m.m.m.",
"m.m.m.m.} } } } } } } } m.m.m.~   0 P P P 3   w P N m + X i u u :   , m E P 8   0 P P P 6   F } m.m.m.m.} } } } } } } } m.m.m.m.",
"m.m.m.m.} } } } } } } } m.m.m.~   W.[._.~.[ p 1.0.F P P e .     % S P P ! 0.x i C.^.'.[.C.  F } m.m.m.m.} } } } } } } } m.m.m.m.",
"m.m.m.m.} } } } } } } } m.m.m./ $ W.].).!.[ u 2.6.W I I L > > > 2 I I I ! 0.,.i C.!.'.].C.$ F } m.m.m.m.} } } } } } } } m.m.m.m.",
"m.m.m.m.m.m.m.m.m.m.m.m.m.m.m.m.} C           1.0.0.0.0.0.0.0.0.6.6.6.6.0.0.x           D } } } m.m.m.m.m.m.m.m.m.m.m.m.m.m.m.m.",
"m.m.m.m.m.m.m.m.m.m.m.m.m.m.m.m.} D 1 $   o o ,.2.5.5.0.0.0.0.0.6.6.6.6.6.5.x o X   $ 1 F } } } m.m.m.m.m.m.m.m.m.m.m.m.m.m.m.m.",
"m.m.m.m.m.m.m.m.m.m.m.m.m.m.m.m.} } } V   3 r #   n m 6.0.0.0.0.6.0.6.m k   * 7 *   D } } } } } m.m.m.m.m.m.m.m.m.m.m.m.m.m.m.m.",
"m.m.m.m.m.m.m.m.m.m.m.m.m.m.m.m.} } } D 2 6 7 & # M B 8.8.1.1.1.5.8.7.B M o * 7 6 5 D } } } } } m.m.m.m.m.m.m.m.m.m.m.m.m.m.m.m.",
"} } } } m.m.m.m.m.m.m.m.m.m.m.m.m.m.m.m.m.K   7 r P P P P       % y P P t r 3   ~ m.m.m.m.m.m.m.m.m.m.m.m.m.m.m.m.m.m.m.} } } } ",
"} } } } m.m.m.m.m.m.m.m.m.m.m.m.m.m.m.m.m.Q K 6 3 0 w 0 q K K K K q q q 0 3 9 K / m.m.m.m.m.m.m.m.m.m.m.m.m.m.m.m.m.m.m.} } } } ",
"} } } } m.m.m.m.m.m.m.m.m.m.m.m.m.m.m.m.m.m.m.Z         @ m.m.m.-.          Y N.m.m.m.m.m.m.m.m.m.m.m.m.m.m.m.m.m.m.m.m.} } } } ",
"} } } } m.m.m.m.m.m.m.m.m.m.m.m.m.m.m.m.m.m.m.~ Y Y Y Y Y m.m.m.n.Y Y Y Y Y #.m.m.m.m.m.m.m.m.m.m.m.m.m.m.m.m.m.m.m.m.m.} } } } ",
"} } } } m.m.m.m.m.m.m.m.m.m.m.m.m.m.m.m.m.m.m.m.} } } } m.m.m.m.n.m.m.m.} } } } m.m.m.m.m.m.m.m.m.m.m.m.m.m.m.m.m.m.m.m.} } } } ",
"} } } } m.m.m.m.m.m.m.m.m.m.m.m.m.m.m.m.m.m.m.m.} } } } m.m.m.m.m.m.m.m.} } } } m.m.m.m.m.m.m.m.m.m.m.m.m.m.m.m.m.m.m.m.} } } } ",
"} } } } m.m.m.m.m.m.m.m.m.m.m.m.m.m.m.m.m.m.m.m.} } } } m.m.m.m.m.m.m.m.} } } } m.m.m.m.m.m.m.m.m.m.m.m.m.m.m.m.m.m.m.m.} } } } ",
"} } } } m.m.m.m.m.m.m.m.m.m.m.m.m.m.m.m.m.m.m.m.} } } } m.m.m.m.m.m.m.m.} } } } m.m.m.m.m.m.m.m.m.m.m.m.m.m.m.m.m.m.m.m.} } } H ",
"} } } } } } } } } } } } m.m.m.m.m.m.m.m.} } } } } } } } m.m.m.m.m.m.m.m.} } } } } } } } m.m.m.m.m.m.m.m.} } } } } } } } } } } } ",
"} } } } } } } } } } } } m.m.m.m.m.m.m.m.} } } } } } } } m.m.m.m.m.m.m.m.} } } } } } } } m.m.m.m.m.m.m.m.} } } } } } } } } } } } ",
"} } } } } } } } } } } } m.m.m.m.m.m.m.m.} } } } } } } } m.m.m.m.m.m.m.m.} } } } } } } } m.m.m.m.m.m.m.m.} } } } } } } } } } } } ",
"} } } } } } } } } } } } m.m.m.m.m.m.m.m.} } } } } } } } m.m.m.m.m.m.m.m.} } } } } } } } m.m.m.m.m.m.m.m.} } } } } } } } } } } } ",
"=.=.=.=.} } } } =.=.=.=.} } } } m.m.m.m.m.m.m.m.m.m.m.m.m.m.m.m.m.m.m.m.m.m.m.m.m.m.m.m.m.m.m.m.} } } } =.=.=.=.} } } } n.+.*.=.",
"=.=.=.=.} } } } =.=.=.=.} } } } m.m.m.m.m.m.m.m.m.m.m.m.m.m.m.m.m.m.m.m.m.m.m.m.m.m.m.m.m.m.m.m.} } } } =.=.=.=.} } } } e.q.=.=.",
"=.=.=.=.} } } } =.=.=.=.} } } } m.m.m.m.m.m.m.m.m.m.m.m.m.m.m.m.m.m.m.m.m.m.m.m.m.m.m.m.m.m.m.m.} } } } =.=.=.=.} } } } =.=.=.=.",
"=.=.=.=.} } } } =.=.=.=.} } } } m.m.m.m.m.m.m.m.m.m.m.m.m.m.m.m.m.m.m.m.m.m.m.m.m.m.m.m.m.m.m.m.} } } } =.=.=.=.} } } } =.=.=.=."
};
