/* XPM */
static char *result[] = {
/* columns rows colors chars-per-pixel */
"64 64 215 2 ",
"   c #37283F",
".  c #4A2C3D",
"X  c #4D3C3D",
"o  c #52343C",
"O  c #7D6417",
"+  c #7C641B",
"@  c #7F681B",
"#  c #55443C",
"$  c #5D4B3E",
"%  c #6A552A",
"&  c #735D2C",
"*  c #68563A",
"=  c #715C35",
"-  c #7C6525",
";  c #796328",
":  c #7B683A",
">  c #1C0243",
",  c #250242",
"<  c #220D42",
"1  c #2A0548",
"2  c #330149",
"3  c #3A004D",
"4  c #390B4B",
"5  c #2C1B44",
"6  c #231149",
"7  c #361848",
"8  c #3E0152",
"9  c #3D0B52",
"0  c #342247",
"q  c #3B2747",
"w  c #32234A",
"e  c #3D2D50",
"r  c #411B45",
"t  c #420155",
"y  c #44025A",
"u  c #4C025A",
"i  c #450E59",
"p  c #4A095B",
"a  c #461656",
"s  c #492948",
"d  c #483748",
"f  c #553344",
"g  c #4E245A",
"h  c #502458",
"j  c #542B5E",
"k  c #4B3751",
"l  c #573755",
"z  c #683A5E",
"x  c #560163",
"c  c #5D026A",
"v  c #571864",
"b  c #61036E",
"n  c #6A0977",
"m  c #691273",
"M  c #72157B",
"N  c #5A2561",
"B  c #632B64",
"V  c #6A376B",
"C  c #713669",
"Z  c #77297A",
"A  c #6C3076",
"S  c #78397D",
"D  c #554A47",
"F  c #5D4A47",
"G  c #51414C",
"H  c #59444B",
"J  c #584552",
"K  c #624C4A",
"L  c #67544A",
"P  c #6D5C4C",
"I  c #614A58",
"U  c #6F4B5E",
"Y  c #715D57",
"T  c #766548",
"R  c #796754",
"E  c #75695A",
"W  c #674564",
"Q  c #774C68",
"!  c #735A66",
"~  c #7B5966",
"^  c #75526E",
"/  c #7D6869",
"(  c #826B1C",
")  c #836B23",
"_  c #886F26",
"`  c #836A2B",
"'  c #87712E",
"]  c #816D37",
"[  c #836A3D",
"{  c #867134",
"}  c #89743C",
"|  c #967E37",
" . c #947E3B",
".. c #83387D",
"X. c #865E4E",
"o. c #865D52",
"O. c #84654A",
"+. c #837142",
"@. c #8E7642",
"#. c #837D45",
"$. c #8C7A47",
"%. c #84744B",
"&. c #937F49",
"*. c #827554",
"=. c #897558",
"-. c #81795D",
";. c #94735E",
":. c #9B7D58",
">. c #855A6C",
",. c #85497D",
"<. c #8B5677",
"1. c #935C78",
"2. c #866969",
"3. c #956A6A",
"4. c #867665",
"5. c #837F6E",
"6. c #8E7C6E",
"7. c #9D7C61",
"8. c #8A6778",
"9. c #976877",
"0. c #95797D",
"q. c #A27C6A",
"w. c #A46D7F",
"e. c #A47677",
"r. c #97803B",
"t. c #99833C",
"y. c #968246",
"u. c #9A8644",
"i. c #9D8943",
"p. c #94814A",
"a. c #9D854C",
"s. c #9E8A4B",
"d. c #9D8A53",
"f. c #94865C",
"g. c #9F815A",
"h. c #9D8B5A",
"j. c #A08C4C",
"k. c #A18C53",
"l. c #A18D5B",
"z. c #A3915C",
"x. c #A8965E",
"c. c #958366",
"v. c #93836B",
"b. c #968D69",
"n. c #9C9167",
"m. c #878377",
"M. c #84867B",
"N. c #958371",
"B. c #9D8B75",
"V. c #99877D",
"C. c #9A8B7D",
"Z. c #9D9179",
"A. c #A28C63",
"S. c #A38B6B",
"D. c #A39164",
"F. c #AA966B",
"G. c #B09F6E",
"H. c #A38A76",
"J. c #A28D7C",
"K. c #A49374",
"L. c #AC9974",
"P. c #A3947A",
"I. c #AB967C",
"U. c #A8987A",
"Y. c #B09A76",
"T. c #B6A47B",
"R. c #7C068B",
"E. c #771585",
"W. c #7B2682",
"Q. c #7F3785",
"!. c #811C90",
"~. c #863886",
"^. c #873792",
"/. c #9B349D",
"(. c #AA1BB4",
"). c #B31EBE",
"_. c #9E39A5",
"`. c #A235A4",
"'. c #AC28B5",
"]. c #AD32B4",
"[. c #8D4C82",
"{. c #89488B",
"}. c #924E8D",
"|. c #8A5985",
" X c #965685",
".X c #9A5B82",
"XX c #964194",
"oX c #985A96",
"OX c #A25A8F",
"+X c #A75899",
"@X c #8D6881",
"#X c #966684",
"$X c #967486",
"%X c #A76B8A",
"&X c #AA6692",
"*X c #A57696",
"=X c #B14EAA",
"-X c #8A8B85",
";X c #978B83",
":X c #8E928A",
">X c #9B928B",
",X c #989889",
"<X c #979B96",
"1X c #A78C86",
"2X c #A59687",
"3X c #A69C83",
"4X c #AE9C8D",
"5X c #B39D89",
"6X c #A98297",
"7X c #B99C95",
"8X c #B6A18C",
"9X c #BCA989",
"0X c #A3A296",
"qX c #BBA993",
"wX c #BB95A1",
/* pixels */
"#.#.#.#.( ( ( ( #.#.#.#.( ( ( ( i.i.i.i.i.i.i.i.i.i.i.i.i.i.i.i.i.i.i.i.i.i.i.i.i.i.i.i.i.i.i.i.( ( ( ( #.#.#.#.@ @ ( ( p.#.#.#.",
"#.#.#.#.( ( ( ( #.#.#.#.( ( ( ( i.i.i.i.i.i.i.i.i.i.i.i.i.i.i.i.i.i.i.i.i.i.i.i.i.i.i.i.i.i.i.i.( ( ( ( #.#.#.#.( ( ( ( #.#.#.#.",
"#.#.#.#.( ( ( ( #.#.#.#.( ( ( ( i.i.i.i.i.i.i.i.i.i.i.i.i.i.i.i.i.i.i.i.i.i.i.i.i.i.i.i.i.i.i.i.( ( ( ( #.#.#.#.( ( ( ( #.#.#.#.",
"#.#.#.#.( ( ( ( #.#.#.#.( ( ( ( i.i.i.i.i.i.i.i.i.i.i.i.i.i.i.i.i.i.i.i.i.i.i.i.i.i.i.i.i.i.i.i.( ( ( ( #.#.#.p.( ( ( ( #.#.#.#.",
"( ( ( ( ( ( ( ( ( ( ( ( i.i.i.i.i.i.i.i.( ( ( ( ( ( ( ( i.i.i.i.i.i.i.i.( ( ( ( ( ( ( ( i.i.i.i.i.i.i.i.( ( ( ( ( ( ( ( @ @ @ ( ",
"( ( ( ( ( ( ( ( ( ( ( ( i.i.i.i.i.i.i.i.( ( ( ( ( ( ( ( i.i.i.i.i.i.i.i.( ( ( ( ( ( ( ( i.i.i.i.t.i.i.i.( ( ( ( ( ( ( ( @ @ ( ( ",
"( ( ( ( ( ( ( ( ( ( ( ( i.i.i.i.i.i.i.i.( ( ( ( ( ( ( ( i.i.i.i.i.i.i.i.( ( ( ( ( ( ( ( i.i.i.i.j.i.i.i.( ( ( ( ( ( ( ( ( ( ( ( ",
"( ( ( ( ( ( ( ( ( ( ( ( i.i.i.i.i.i.i.i.( ( ( ( ( ( ( ( i.i.i.i.i.i.i.i.( ( ( ( ( ( ( ( i.i.i.i.t.i.i.i.( ( ( ( ( ( ( ( ( ( ( ( ",
"( ( ( ( t.j.t.i.i.i.i.i.i.i.i.i.i.i.i.i.i.i.i.i.( ( ( ( i.i.i.i.i.i.i.i.( ( ( ( j.t.j.i.i.i.i.i.i.i.i.i.i.i.i.i.i.i.i.i.( ( ( ( ",
"( ( ( ( i.t.j.i.i.i.i.i.i.i.i.i.i.i.i.i.i.i.i.i.( ( ( ( i.i.i.i.i.i.i.i.( ( ( ( t.j.i.i.i.i.i.i.i.i.i.i.i.i.i.i.i.t.i.i.( ( ( ( ",
"( ( ( ( i.i.i.i.i.i.i.i.i.i.i.i.i.i.i.i.i.i.i.j.( ( ( ( i.i.i.i.i.i.i.i.( ( ( ( j.j.j.i.i.i.i.i.i.i.i.i.i.i.i.i.i.i.i.i.( ( ( ( ",
"( ( ( ( i.i.i.i.i.i.i.i.i.i.i.i.i.i.i.i.i.i.j. .` ) ( ( i.i.i.i.i.i.i.i.( ( ( ] z.D.z.j.j.i.i.i.i.i.i.i.i.i.i.i.i.i.i.i.( ( ( ( ",
"( ( ( ( i.i.i.i.i.i.i.i.i.i.i.i.i.i.i.i.i.i.j.:.q.:.j.j.i.i.i.i.i.i.i.i.i.i.j.n.Z.3X3XK.z.d.i.i.i.i.i.i.i.i.i.i.i.i.i.i.( ( ( ( ",
"( ( ( ( i.i.i.i.i.i.i.i.i.i.i.i.i.i.i.i.i.i.j.3.w.w.q.:.&.j.i.i.i.i.i.i.i.i.d.n.,X0X0X3XU.n.d.s.i.i.i.i.i.i.i.i.i.i.i.i.( ( ( ( ",
"( ( ( ( i.i.i.i.i.i.i.i.i.i.i.i.i.i.i.i.i.i.j.e.+X+X&Xq.:.j.j.i.i.i.i.i.i.i.j.b.,X<X0X0X3XP.D.j.i.i.i.i.i.i.i.i.i.i.i.i.( ( ( ( ",
"( ( ( ( i.i.i.i.i.i.i.i.i.i.i.i.i.i.i.i.i.i.&.q.OX`.=X+X%Xq.j.j.i.i.i.i.i.i.j.g.:X:X<X,X3X3XK.l.j.i.i.i.i.i.i.i.i.i.i.i.( ( ( ( ",
"i.i.i.i.i.i.i.i.i.i.i.i.i.i.i.i.( ( ( ( ( ( ) O. X`.'.].=X&Xe.k.i.i.i.i.i.i.p.f.m.M.-X:X>X2XJ.c.z.i.i.i.i.i.i.i.i.i.i.i.i.i.i.i.",
"i.i.i.i.i.i.i.i.i.i.i.i.i.i.i.i.( ( ( ( ( ( ) O..X`.).).].=X%Xq.s.i.i.i.i.i.y.p.E m.M.M.-X;X2XB.x.j.i.i.i.i.i.i.i.i.i.i.i.i.i.i.",
"i.i.i.i.i.i.i.i.i.i.i.i.i.i.i.i.( ( ( ( ( ( ` X.1./.(.'.'._.oXw.h.i.i.i.i.t.r.r.} T -.m.M.;X>XJ.K.h.s.i.i.i.i.i.i.i.i.i.i.i.i.i.",
"i.i.i.i.i.i.i.i.i.i.i.i.i.i.i.i.( ( ( ( ( ( ` o. X/._.oXoX{.}.#Xf.s.i.i.i.t.r.r._ ' #.R 5.M.-XZ.K.n.d.i.i.i.i.i.i.i.i.i.i.i.i.i.",
"i.i.i.i.( ( ( ( ( ( ( ( i.i.i.i.( ( ( ( j.i.&.;.[.XXoX6X1X$X<.>.O.` ( ( t.r.r.t.i.i.i.d.-.5.M.C.C.S.k.a.( ( ( ( ( ( ( ( i.i.i.i.",
"i.i.i.i.( ( ( ( ( ( ( ( i.i.i.i.( ( ( ( t.j.j.;. X}.$X7XqX4X$X2.O.) ( ( r.r.r.t.i.i.i.i.T f.m.m.;XH.A.j.( ( ( ( ( ( ( ( i.i.i.i.",
"i.i.i.i.( ( ( ( ( ( ( ( i.i.i.i.( ( ( ( i.i.&.7.<.[.9.1XqX4X0.2.[ ` ' _ r.r.t.i.i.i.i.i._ T E m.C.J.S.k.) ( ( ( ( ( ( ( i.i.i.i.",
"i.i.i.i.( ( ( ( ( ( ( ( i.i.i.i.( ( ( ( i.i.:.;.<.[.8.;X2X;X@X>.=.&.y. .t.t.i.i.i.i.i.i.) { *.m.C.1XK.l.) ( ( ( ( ( ( ( i.i.i.i.",
"i.i.i.i.i.i.i.i.( ( ( ( i.i.i.i.i.i.i.i.&.:.:.w.,.~...9.$X@X|.@XH.G.G.x.j.i.i.i.i.i.i.i.i.s.f.v.C.1XY.D.{ ( ( ( i.i.i.i.i.i.i.i.",
"i.i.i.i.i.i.i.i.( ( ( ( i.i.i.i.i.i.j.j.:.3.1.,.~...~.}.}.{.{.#X1X9X9XG.k.j.i.i.i.i.i.i.i.i.d.b.C.4X5XF.} ) ( ( i.i.i.i.i.i.i.i.",
"i.i.i.i.i.i.i.i.( ( ( ( i.i.i.i.i.:.:.:.3.<.....M E.M ~.{.^.^. X1X9X9XT.F.j.i.i.i.i.i.i.i.i.s.f.C.4X8XY.@._ ( ( i.i.i.i.i.i.i.i.",
"i.i.i.i.i.i.i.i.( ( ( ( i.i.i.i.:.:.e.1.,.Z M b c b M E.!.!.W.<.H.7XqX7XI.q.j.i.i.i.i.i.i.i.u.f.Z.4X8XY.@.) ( ( i.i.i.i.i.i.i.i.",
"i.i.i.i.i.i.i.i.i.i.i.i.i.i.i.i.:.q. X~...n b x x c R.R.R.E.Z Q 8.;XwXwX*X9.O.` i.i.i.i.i.i.i.d.Z.4X8XL.k.j.i.i.i.i.i.i.i.i.i.i.",
"i.i.i.i.i.i.i.i.i.i.i.i.i.i.i.j.:.3.~...n x u t u c n E.E.m C U Q @X*X*X&X.Xo.` i.i.i.i.i.i.i.h.P.4X8XL.j.j.i.i.i.i.i.i.i.i.i.i.",
"i.i.i.i.i.i.i.i.i.i.i.i.i.i.i.i.:.;.>.C v p t t p v A Q.S C C z B A |.$X$X2.O.` i.i.i.i.i.i.i.h.P.4X8XD.j.i.i.i.i.i.i.i.i.i.i.i.",
"i.i.i.i.i.i.i.i.i.i.i.i.i.i.i.i.| :.;.Y z h r a g V ^ |.8.~ W B v N V / 6.=.[ ) i.i.i.i.i.i.i.h.P.5XY.z.i.i.i.i.i.i.i.i.i.i.i.i.",
"i.i.i.i.i.i.i.i.i.i.i.i.i.i.i.i.t.j.h.c.2.! I I ! / 0.1XV.2.^ N p 9 k Y v.f.: ( i.i.i.i.i.i.i.z.P.I.F.k.i.i.i.i.i.i.i.i.i.i.i.i.",
"i.i.i.i.i.i.i.i.i.i.i.t.i.i.i.i.i.j.D.U.B.6.2.4.6.N.P.Y.I.6.! j p 8 0 D E p.' ( i.i.i.i.i.i.i.z.K.K.A.s.i.i.i.i.i.i.i.i.i.i.i.i.",
"i.i.i.i.i.i.i.i.i.i.t.j.i.i.i.i.i.j.x.F.K.v.6.6.N.B.K.P.I.v.! g p 8 7 G : : _ @ i.i.i.i.i.i.i.k.S.A.d.i.i.i.i.i.i.i.i.i.i.i.i.i.",
"i.i.i.i.i.i.i.i.i.i.i.i.i.i.i.i.t.j.k.z.;.-.E / / / 4.v.N.2.W g p 8 7 G % - ( @ i.i.i.i.i.i.i.j.l.k.s.i.i.i.i.i.i.i.i.i.i.i.i.i.",
"i.i.i.i.i.i.i.i.( ( ( ( i.i.i.i.i.i.j.i.%.L J l H L L Y / W j i y t 0 $ : i.i.i.i.i.i.i.i.i.i.j.s.s.i.i.( ( ( ( i.i.i.i.i.i.i.i.",
"i.i.i.i.i.i.i.i.( ( ( ( i.i.i.i.i.i.i.u.+.K s s f f f j j g i y y 9 q D T t.i.i.i.i.i.i.i.i.i.t.i.i.i.i.( ( ( ( i.i.i.i.i.i.i.i.",
"i.i.i.i.i.i.i.i.( ( ( ( i.i.i.i.i.i.i.y.+.K s s o o h a i y y t y 9 q * p.i.i.i.i.i.i.i.i.i.t.j.i.i.i.i.( ( ( ( i.i.i.i.i.i.i.i.",
"i.i.i.i.i.i.i.i.( ( ( ( i.i.i.i.i.t.u.p.T F s o o s a u y y t t 8 7 q P #.i.i.i.i.i.i.i.i.i.j.t.i.i.i.i.( ( ( ( i.i.i.i.i.i.i.i.",
"i.i.i.i.( ( ( ( ( ( ( ( i.i.i.i.@ @ ( ; T F X o s r t t y u t 3 2 < q $ $.u.i.i.i.i.i.i.( ( ( ( i.i.i.i.( ( ( ( ( ( ( ( i.i.i.i.",
"i.i.i.i.( ( ( ( ( ( ( ( i.i.i.i.( ( ( - #.* # . 7 4 4 t t t t 2 1 5 d * &.i.i.i.i.i.i.i.( ( ( ( i.i.i.i.( ( ( ( ( ( ( ( i.i.i.i.",
"i.i.i.i.( ( ( ( ( ( ( ( i.i.i.i.( ( ( @  .= #   4 2 3 3 8 3 2 , <   # & u.u.i.i.i.i.i.i.( ( ( ( i.i.j.t.( ( ( ( ( ( ( ( i.i.i.i.",
"i.i.i.i.( ( ( ( ( ( ( ( i.i.i.i.( ( ( @ } & # q 1 1 2 2 2 2 , > 5 X * ; i.i.i.i.i.i.i.i.( ( ( ( i.i.t.j.( ( ( ( ( ( ( ( i.i.i.i.",
"i.i.i.i.i.i.i.i.i.i.i.i.i.i.i.i.( ( ( O + % X 7 6 1 1 , , > 6 w G T $.y.i.i.i.i.( ( ( ( ( ( ( ( i.i.i.i.i.i.i.i.i.i.i.i.i.i.i.i.",
"i.i.i.i.i.i.i.i.i.i.i.i.i.i.i.i.( ( ( + + % # 0 6 > > > > < w G P +.y.i.i.i.i.i.( ( ( ( ( ( ( ( i.i.i.i.i.i.i.i.i.i.i.i.i.i.i.i.",
"i.i.i.i.i.i.i.i.i.i.i.i.i.i.i.i.( ( + + + & $ d w 6 > > < 5 G P %.y.i.i.i.i.i.i.( ( ( ( ( ( ( ( i.i.i.i.i.i.i.i.i.i.i.i.i.i.i.i.",
"i.i.i.i.i.i.i.i.i.i.i.i.i.i.i.t.( ( @ @ + - = H J e 5 5 e G P #.y.i.i.i.i.i.i.i.( ( ( ( ( ( ( ( i.i.i.i.i.i.i.i.i.i.i.i.i.i.i.i.",
"( ( ( ( i.i.i.i.i.i.i.i.i.i.i.i.i.i.i.i.i.t.t.#.E L G G I E T y.t.i.i.i.i.i.i.i.i.i.i.i.i.i.i.i.i.i.i.i.i.i.i.i.i.i.i.i.( ( ( ( ",
"( ( ( ( i.i.i.i.i.i.i.i.i.i.i.i.i.i.i.i.i.i.t.t.p.E E Y E p.i.i.i.i.i.i.i.i.i.i.i.i.i.i.i.i.i.i.i.i.i.i.i.i.i.i.i.i.i.i.( ( ( ( ",
"( ( ( ( i.i.i.i.i.i.i.i.i.i.i.i.i.i.i.i.i.i.i.i.y.p.R p.u.i.i.i.i.i.i.i.i.i.i.i.i.i.i.i.i.i.i.i.i.i.i.i.i.i.i.i.i.i.i.i.( ( ( ( ",
"( ( ( ( i.i.i.i.i.i.i.i.i.i.i.i.i.i.i.i.i.i.i.i.i.i.y.y.i.i.i.i.i.i.i.i.i.i.i.t.i.i.i.i.i.i.i.i.i.i.i.i.i.i.i.i.i.i.i.i.( ( ( ( ",
"( ( ( ( i.i.i.i.i.i.i.i.i.i.i.i.i.i.i.i.i.i.i.i.@ @ _ @ i.i.i.i.i.i.i.i.( ( ( ( i.i.i.i.i.i.i.i.i.i.i.i.i.i.i.i.i.i.i.i.( ( ( ( ",
"( ( ( ( i.i.i.i.i.i.i.i.i.i.i.i.i.i.i.i.i.i.i.i.@ @ ( ( i.i.i.i.i.i.i.i.( ( ( ( i.i.i.i.i.i.i.i.i.i.i.i.i.i.i.i.i.i.i.i.( ( ( ( ",
"( ( ( ( i.i.i.i.i.i.i.i.i.i.i.i.i.i.i.i.i.i.i.i.( ( ( ( i.i.i.i.i.i.i.i.( ( @ O i.i.i.i.i.i.i.i.i.i.i.i.i.i.i.i.i.i.i.i.( ( ( ( ",
"( ( ( ( i.i.i.i.i.i.i.i.i.i.i.i.i.i.i.i.i.i.i.i.( ( ( ( i.i.i.i.i.i.i.i.( ( @ r.i.i.i.i.i.i.i.i.i.i.i.i.i.i.i.i.i.i.i.t.( ( ( ( ",
"( ( ( ( ( ( ( ( ( ( ( ( i.i.i.i.i.i.i.i.( ( ( ( ( ( ( ( i.i.i.i.i.i.i.i.r.( ( ( ( ( ( ( i.i.i.i.i.i.i.i.( ( ( ( ( ( ( ( ( ( ( ( ",
"( ( ( ( ( ( ( ( ( ( ( ( i.i.i.i.i.i.i.i.( ( ( ( ( ( ( ( i.i.i.i.i.i.i.i.O O ( ( ( ( ( ( i.i.i.i.i.i.i.i.( ( ( @ ( ( ( ( ( ( ( ( ",
"( ( ( ( ( ( ( ( ( ( ( ( i.i.i.i.i.i.i.i.( ( ( ( ( ( O ( i.i.i.i.i.i.i.i.( ( ( ( ( ( ( ( i.t.j.i.i.i.i.i.( ( @ @ ( ( ( ( ( ( ( ( ",
"( ( ( ( ( ( ( ( ( ( ( ( i.i.i.i.i.i.i.i.( ( ( ( ( ( O r.i.i.i.i.i.i.i.i.( ( ( ( ( ( ( ( t.j.i.i.i.i.i.t.( ( @ @ ( ( ( ( ( ( ( ( ",
"p.#.#.#.( ( ( ( #.#.#.#.( ( ( ( i.i.i.i.i.i.i.i.t.i.i.i.i.i.i.i.i.i.i.i.t.i.i.i.i.i.i.i.i.i.i.i.( ( ( ( #.#.#.#.( ( ( ( p.#.#.#.",
"#.#.#.#.( ( ( ( #.#.#.#.( ( ( ( i.i.i.i.i.i.i.i.i.i.i.i.i.i.i.i.i.i.i.i.i.i.i.i.i.i.i.i.i.i.i.i.( ( ( ( #.#.#.#.( ( ( ( #.#.#.#.",
"#.#.#.#.( ( ( @ #.#.#.#.( ( ( ( i.i.i.i.i.i.i.i.i.i.i.i.i.i.i.i.i.i.i.i.i.i.i.i.i.i.i.i.i.i.i.i.( ( ( ( #.#.#.#.( ( @ ( #.#.#.#.",
"#.#.#.#.( ( ( @ #.#.#.r.( ( ( ( i.i.i.i.i.i.i.i.i.i.i.i.i.i.i.i.i.i.i.i.i.i.i.i.i.i.i.i.i.i.i.i.( ( ( ( #.#.#.p.( ( @ @ #.#.#.#."
};
