/* XPM */
static char *result[] = {
/* columns rows colors chars-per-pixel */
"64 64 176 2 ",
"   c #655A15",
".  c #6F5F16",
"X  c #66561E",
"o  c #6C5A1B",
"O  c #5B641E",
"+  c #5F7211",
"@  c #62750B",
"#  c #667C0A",
"$  c #6D7B0B",
"%  c #666414",
"&  c #696C14",
"*  c #726317",
"=  c #736B16",
"-  c #746319",
";  c #7B651C",
":  c #7E681C",
">  c #6F7311",
",  c #6B7911",
"<  c #737A15",
"1  c #504D2A",
"2  c #5A5527",
"3  c #585A2A",
"4  c #575530",
"5  c #5C5936",
"6  c #5E5C39",
"7  c #665A2A",
"8  c #705F23",
"9  c #645F37",
"0  c #615E3C",
"q  c #6A6324",
"w  c #676C24",
"e  c #62662F",
"r  c #68642B",
"t  c #656F29",
"y  c #796524",
"u  c #7C6826",
"i  c #786F2E",
"p  c #6C742A",
"a  c #6F7C2E",
"s  c #76702C",
"d  c #7C7A2B",
"f  c #616334",
"g  c #6A6136",
"h  c #6E6F36",
"j  c #64623E",
"k  c #69653D",
"l  c #67683B",
"z  c #6C6C3C",
"x  c #716432",
"c  c #776A37",
"v  c #796D34",
"b  c #736A3D",
"n  c #796E3C",
"m  c #6E7535",
"M  c #6F723F",
"N  c #7D7233",
"B  c #757D34",
"V  c #71743D",
"C  c #7E713C",
"Z  c #757B3B",
"A  c #666341",
"S  c #6A6643",
"D  c #6D6B45",
"F  c #6E6B49",
"G  c #716D45",
"H  c #716E4A",
"J  c #6F7141",
"K  c #727245",
"L  c #7E7444",
"P  c #757942",
"I  c #787B45",
"U  c #75734B",
"Y  c #79754E",
"T  c #7C7C4C",
"R  c #777450",
"E  c #7A7651",
"W  c #7D7A53",
"Q  c #826B1C",
"!  c #816F29",
"~  c #837735",
"^  c #817A31",
"/  c #84753C",
"(  c #87793C",
")  c #8C7B3D",
"_  c #917E3E",
"`  c #817542",
"'  c #837D45",
"]  c #8E7E42",
"[  c #827849",
"{  c #917F40",
"}  c #817D55",
"|  c #817F58",
" . c #688007",
".. c #6B820B",
"X. c #708708",
"o. c #72890A",
"O. c #788F0B",
"+. c #6E831A",
"@. c #748914",
"#. c #768819",
"$. c #78881B",
"%. c #788C22",
"&. c #76802B",
"*. c #79862D",
"=. c #7E8D2C",
"-. c #748230",
";. c #788136",
":. c #7D8B34",
">. c #7B833C",
",. c #7E8F3E",
"<. c #7F8742",
"1. c #7F804F",
"2. c #80832B",
"3. c #89892F",
"4. c #839626",
"5. c #879D22",
"6. c #83952B",
"7. c #849828",
"8. c #808F33",
"9. c #8F8439",
"0. c #808B3A",
"q. c #94823E",
"w. c #98873F",
"e. c #889733",
"r. c #849238",
"t. c #8AA125",
"y. c #8EA529",
"u. c #818C43",
"i. c #81834E",
"p. c #958340",
"a. c #9A8642",
"s. c #9D8943",
"d. c #848652",
"f. c #8A8354",
"g. c #878955",
"h. c #888955",
"j. c #85835A",
"k. c #89865C",
"l. c #8A895E",
"z. c #8E965E",
"x. c #90915E",
"c. c #9CAC4E",
"v. c #9CA55B",
"b. c #BCAC58",
"n. c #8D8B61",
"m. c #918E64",
"M. c #939265",
"N. c #969C63",
"B. c #969569",
"V. c #99976B",
"C. c #979C6E",
"Z. c #9B9B6D",
"A. c #9F9E70",
"S. c #A09F71",
"D. c #9CA264",
"F. c #9FA06F",
"G. c #9EA373",
"H. c #A3A374",
"J. c #A7A778",
"K. c #A8A779",
"L. c #A7AC7E",
"P. c #AAAA7B",
"I. c #AAB177",
"U. c #B5B47E",
"Y. c #ACB189",
"T. c #B1B181",
"R. c #B0B58A",
"E. c #BDBC8C",
"W. c #CFCA8E",
"Q. c #C9C693",
"!. c #C2C59A",
"~. c #CCC79D",
"^. c #C5C99E",
"/. c #D1D2A9",
"(. c #DEE0BB",
"). c #E4E4C0",
/* pixels */
"' ' ' ' Q Q Q Q ' ' ' ' Q Q Q Q s.s.s.s.s.s.s.s.s.s.s.s.s.s.s.s.s.s.s.s.s.s.s.s.s.s.s.s.s.s.s.s.Q Q Q ! ' ' ' ' Q Q Q Q ' ' ' ' ",
"' ' ' ' Q Q Q Q ' ' ' ' Q Q Q Q s.s.s.s.s.s.s.s.s.s.s.s.s.s.s.s.s.s.s.s.s.s.s.s.s.s.s.s.s.s.s.s.Q Q Q Q ' ' ' ' Q Q Q Q ' ' ' i.",
"' ' ' ' Q Q Q Q ' ' ' ' Q Q Q Q s.s.s.s.s.s.s.s.s.s.s.s.s.s.s.s.s.s.s.s.s.s.s.s.s.s.s.s.s.s.s.s.Q Q Q Q ' ' ' ] Q Q Q Q ' ' ' ' ",
"' ' ' ' Q Q Q Q ' i.' ' Q Q Q Q s.s.s.s.s.s.s.s.s.s.s.s.s.s.s.s.s.s.s.s.s.s.s.s.s.s.s.s.s.s.s.s.Q Q Q Q ' ' ' ` Q Q Q Q ' ' ' ' ",
"Q Q Q Q Q Q Q Q Q Q Q Q s.s.s.s.s.s.s.s.Q Q Q Q Q Q Q Q s.s.s.s.s.s.s.s.Q Q Q Q Q Q Q Q s.s.s.s.s.s.s.s.Q Q Q Q Q Q Q Q Q Q Q Q ",
"Q Q Q Q Q Q Q Q Q Q Q Q s.s.s.s.s.s.s.s.Q Q Q Q Q Q Q Q s.s.s.s.s.s.s.s.Q Q Q Q Q Q Q Q s.s.s.s.s.s.s.s.Q Q Q Q Q Q Q Q Q Q Q Q ",
"Q Q Q Q Q Q Q Q Q Q Q Q s.s.s.s.s.s.s.s.Q Q Q Q Q Q Q Q s.s.s.s.s.s.s.s.Q Q Q Q Q Q Q Q s.s.s.s.s.s.s.s.Q Q Q Q Q Q Q Q Q Q Q Q ",
"Q Q Q Q Q Q Q Q Q Q Q Q s.s.s.s.s.s.s.s.Q Q Q Q Q Q Q Q s.s.s.s.s.s.s.s.Q Q Q Q Q Q Q Q s.s.s.s.s.s.s.s.Q Q Q Q Q Q Q Q Q Q Q Q ",
"Q Q Q Q s.s.s.s.s.s.s.s.s.s.s.s.s.s.s.s.s.s.s.s.Q Q Q Q s.s.s.s.s.s.s.s.Q Q Q Q s.s.s.s.s.s.s.s.s.s.s.s.s.s.s.s.s.s.s.s.Q Q Q Q ",
"Q Q Q Q s.s.s.s.s.s.s.s.s.s.s.s.s.s.s.s.s.s.s.s.Q Q Q Q s.s.s.s.s.s.s.s.Q Q Q Q s.s.s.s.s.s.s.s.s.s.s.s.s.s.s.s.s.s.s.s.Q Q Q Q ",
"Q Q Q Q s.s.s.s.s.s.s.s.s.s.s.s.s.s.s.s.s.s.s.s.Q Q Q Q s.s.s.s.s.s.s.s.Q Q Q Q s.s.s.s.s.s.s.s.s.s.s.s.s.s.s.s.s.s.s.s.Q Q Q Q ",
"Q Q Q Q s.s.s.s.s.s.s.s.s.s.s.s.s.s.s.s.s.s.s.s.Q Q Q Q s.s.s.s.s.s.s.s.Q Q Q Q s.s.s.s.s.s.s.s.s.s.s.s.s.s.s.s.s.s.s.s.Q Q Q Q ",
"Q Q Q Q s.s.s.s.s.s.s.s.s.s.s.s.s.s.s.s.s.s.s.s.s.s.s.s.s.s.s.s.s.s.s.s.s.s.s.s.s.s.s.s.s.s.s.s.s.s.s.s.s.s.s.s.s.s.s.s.Q Q Q Q ",
"Q Q Q Q s.s.s.s.s.s.s.s.s.s.s.s.s.s.s.s.s.s.s.s.s.a./ L [ L L ` ` ` ) ` ` / ( { s.s.s.s.s.s.s.s.s.s.s.s.s.s.s.s.s.s.s.s.Q Q Q Q ",
"Q Q Q Q s.s.s.s.s.s.s.s.s.s.s.s.s.s.s.s.a._ ` [ f.Y E W } } } W f.W E E } } U Y Y { s.s.s.s.s.s.s.s.s.s.s.s.s.s.s.s.s.s.Q Q Q Q ",
"Q Q Q Q s.s.s.s.s.s.s.s.s.s.s.s.s.s.{ f.j.B.A.H.H.H.H.U W } } W E j.j.j.} E H E } } L { s.s.s.s.s.s.s.s.s.s.s.s.s.s.s.s.Q Q Q Q ",
"s.s.s.s.s.s.s.s.s.s.s.s.s.s.s.s.! 8 V.K.S.J.S.J.H.H.H.B.Z.E Y W H.H.H.H.H.H.M.E W } } S Q Q Q Q s.s.s.s.s.s.s.s.s.s.s.s.s.s.s.s.",
"s.s.s.s.s.s.s.s.s.s.s.s.s.s.s.s.y U S.S.K.S.J.H.H.H.S.H.H.j.Y H.H.H.H.H.H.H.H.V.n.W W W 7 : Q Q s.s.s.s.s.s.s.s.s.s.s.s.s.s.s.s.",
"s.s.s.s.s.s.s.s.s.s.s.s.s.s.s.{ U } V.T.H.H.S.J.H.H.A.H.H.W A.H.H.H.H.H.H.H.H.Z.n.k.W A 0 G x u s.s.s.s.s.s.s.s.s.s.s.s.s.s.s.s.",
"s.s.s.s.s.s.s.s.s.s.s.s.s.{ { W } [ H A.J.H.H.H.H.H.A.H.n.V.H.H.H.H.H.H.H.H.H.H.k.A.V.F A R H H / w.s.s.s.s.s.s.s.s.s.s.s.s.s.s.",
"s.s.s.s.Q Q Q Q Q Q Q c l.V.G.H.H.A.R F M.T.K.H.H.H.A.m.n.P.H.H.H.H.Z.H.H.H.H.V.S.H.S.| R F R H U A ) s.Q Q Q Q Q Q Q Q s.s.s.s.",
"s.s.s.s.Q Q Q Q Q ; G S.H.H.H.H.H.H.A.F A W B.A.J.S.n.R S.P.H.H.H.H.H.H.H.H.H.V.K.J.B.n.W E F R G n.B.k.y Q Q Q Q Q Q Q s.s.s.s.",
"s.s.s.s.Q Q Q Q ; G j.K.H.H.H.H.H.H.C.F 6 n.A.A.V.j.H R J.P.H.H.H.H.B.M.H.H.Z.H.K.S.n.n.| | F F n.H.H.J.B.n Q Q Q Q Q Q s.s.s.s.",
"s.s.s.s.Q Q Q : G } } V.P.J.H.J.H.n.F S M.A.H.J.H.H.R W B.P.J.H.H.H.Z.F.S.A.Z.K.K.B.n.k.W W R 4 Z.H.H.S.H.Z.m./ Q Q Q Q s.s.s.s.",
"s.s.s.s.s.s.{ 9 [ } } } J.T.T.H.R F F A.H.j.G.H.H.H.M.H | K.K.H.J.H.H.F.F.H.Z.P.G.n.k.k.W | W 6 A.K.H.H.H.Z.Z.F.[ a.s.s.s.s.s.s.",
"s.s.s.s.s.s.` R R } } } k.K.m.F F F A.G.H.A.S.H.H.H.Z.S } B.P.K.H.H.F.F.H.H.M.J.n.j.n.k.W | W F Z.P.H.H.H.V.H.N.} ] s.s.s.s.s.s.",
"s.s.s.s.s.` R } H } } } | j.F F S l.T.A.H.H.H.A.H.H.M.S G } S.K.P.H.Z.H.H.Z.} l.l.n.l.j.W W W F m.P.H.H.Z.H.H.x.i.I a.s.s.s.s.s.",
"s.s.s.s.{ S [ } Y } } } W E F F Y l.T.H.H.H.H.Z.H.A.E G 0 W n.K.P.J.J.H.P.n.Y k.k.n.k.j.W W E W U P.P.Z.A.H.F.d.h.d.` s.s.s.s.s.",
"s.s.s.a.G G } } } E } } } U F S d.d.D.K.H.H.S.Z.M.W R H 0 G } m.P.H.P.P.A.} Y j.j.n.j.| R R W E G M.A.A.H.H.x.d.d.d.T q.s.s.s.s.",
"s.s.s./ F H H } } G T d.} F S I d.d.g.J.H.H.m.W R R R H A A W } m.J.S.m.m.k.R } n.j.n.H W W E E F E M.S.v.N.d.d.d.d.T ` s.s.s.s.",
"s.s.a.z F H R } } T } T D 5 k d.d.g.d.x.P.F.T R R R H H A A F W Y m.n.n.n.l.E W n.n.W W W E E E F D | c.D.g.d.d.d.d.i.T ] s.s.s.",
"s.s.a.B H H W } f.d.1.d.k 5 U d.g.d.d.g.F.B.U R R H R G A A 0 F E k.m.l.n.l.| E j.j.j.| E E Y M *.z } y.l.d.d.1.Y K Z 8.G s.s.s.",
"s.s.3.2.K H Y [ d.d.d.d.6 l K 1.d.d.d.d.g.W R U R H F A | d.0 k } } m.n.l.n.| R W E n.1.W E U H 6 4.<.t.d.u.i.Y U V K 6.h s.s.s.",
"s.s.~ s S F U K K K T T 6 H U Y d.d.d.d.h.U R U H F K V.H.H.Z.d.Y } l.l.l.k.k.G j W k.W E R H V 0 =.=.I.D.0.d.K U K =.*.^ s.s.s.",
"s.s.) ) / F U ;.>.K U F S K K K T d.h.d.d.H U H S W A.H.H.H.H.H.| E j.m.n.k.E E n.W R W E R F l a -.z./.E.~.C.U K m p N ~ s.s.s.",
"s.s.s.s.s.C K U 7.Y =.3 K U K K K Y T h.T H H S j.H.H.H.H.H.H.H.V.Y E l.n.} R m.V.Z.j.H R F F t %.a D.).U.b.Y.I K K v _ a.s.s.s.",
"s.s.s.s.s.w.~ s $.p w e K >.K H U U K Y H H S m.J.G.S.H.H.H.H.H.V.d.U W W G j.n.V.M.h.W F D U H.z...+.G.(.^./.U G / p.a.s.s.s.s.",
"s.s.s.s.s.s._ ( . . * q G P 6.K >.V K K A A S P.K.Z.H.H.H.H.H.H.l.d.W F F W | n.M.g.d.d.F J E.W.^.....+ G.R.g.l C a.s.s.s.s.s.s.",
"s.s.s.s.s.s.a.w.; : Q Q ( z 4.B :.P Y J 5 5 E A.P.V.H.H.H.H.H.x.h.i.d.K S | | j.g.d.T d.K e L.R.<. ... .X.+ @ % ) s.s.s.s.s.s.s.",
"s.s.s.s.s.s.s.w.Q Q Q Q a.^ d d M m F f 1 S } | H.V.H.H.H.H.x.h.d.d.d.T H W W h.d.d.1.1.F O o.# o. ...<.@. . .@ q.s.s.s.s.s.s.s.",
"s.s.s.s.Q Q Q Q Q Q Q Q w._ _ _ - = q w 4 W | } } j.K.K.K.N.d.i.i.d.d.d.K Y 1.d.d.1.U U G 2 $ O.@.X.<.Q.U.$ > ; Q Q Q Q s.s.s.s.",
"s.s.s.s.Q Q Q Q Q Q Q Q s.w.s.a.: ; > & K W } } } W m.K.Z.h.h.i.d.d.d.d.T S Y d.d.d.I U b X = - N @.,.!.!.& : Q Q Q Q Q s.s.s.s.",
"s.s.s.s.Q Q Q Q Q Q Q Q s.s.s.s.Q *     S Y } } } T } k.h.d.i.i.I i.d.d.d.k F U d.1.U J 7 - : Q s.w.9.p.! Q Q Q Q Q Q Q s.s.s.s.",
"s.s.s.s.Q Q Q Q Q Q Q Q s.s.s.s.Q Q ; ; ) G H W } Y } } d.i.r.d.d.d.d.h.i.j F U U U J c - Q Q Q s.s.s.s.Q Q Q Q Q Q Q Q s.s.s.s.",
"s.s.s.s.s.s.s.s.s.s.s.s.s.s.s.s.Q Q Q Q Q ; r K >.U } } 1.K >.8.>.>.I h.I j D K J j o : Q Q Q Q s.s.s.s.s.s.s.s.s.s.s.s.s.s.s.s.",
"s.s.s.s.s.s.s.s.s.s.s.s.s.s.s.s.Q Q Q Q Q Q - < &.D F H U ;.0.5.e.I P U K 9 g c q ; Q Q Q Q Q Q s.s.s.s.s.s.s.s.s.s.s.s.s.s.s.s.",
"s.s.s.s.s.s.s.s.s.s.s.s.s.s.s.s.Q Q Q Q Q Q -   i n S H K m #.#.=.*.J k / p.a.a.Q Q Q Q Q Q Q Q s.s.s.s.s.s.s.s.s.s.s.s.s.s.s.s.",
"s.s.s.s.s.s.s.s.s.s.s.s.s.s.s.s.Q Q Q Q Q Q Q ; _ a.) G F p @ $ , z c _ a.a.s.s.Q Q Q Q Q Q Q Q s.s.s.s.s.s.s.s.s.s.s.s.s.s.s.s.",
"Q Q Q Q s.s.s.s.s.s.s.s.s.s.s.s.s.s.s.s.s.s.s.s.s.s.s.a.) / < ..d p.s.s.s.s.s.s.s.s.s.s.s.s.s.s.s.s.s.s.s.s.s.s.s.s.s.s.Q Q Q Q ",
"Q Q Q Q s.s.s.s.s.s.s.s.s.s.s.s.s.s.s.s.s.s.s.s.s.s.s.s.s.s.a.w.s.s.s.s.s.s.s.s.s.s.s.s.s.s.s.s.s.s.s.s.s.s.s.s.s.s.s.s.Q Q Q Q ",
"Q Q Q Q s.s.s.s.s.s.s.s.s.s.s.s.s.s.s.s.s.s.s.s.s.s.s.s.s.s.s.s.s.s.s.s.s.s.s.s.s.s.s.s.s.s.s.s.s.s.s.s.s.s.s.s.s.s.s.s.Q Q Q Q ",
"Q Q Q Q s.s.s.s.s.s.s.s.s.s.s.s.s.s.s.s.s.s.s.s.s.s.s.s.s.s.s.s.s.s.s.s.s.s.s.s.s.s.s.s.s.s.s.s.s.s.s.s.s.s.s.s.s.s.s.s.Q Q Q Q ",
"Q Q Q Q s.s.s.s.s.s.s.s.s.s.s.s.s.s.s.s.s.s.s.s.Q Q Q Q s.s.s.s.s.s.s.s.Q Q Q Q s.s.s.s.s.s.s.s.s.s.s.s.s.s.s.s.s.s.s.s.Q Q Q Q ",
"Q Q Q Q s.s.s.s.s.s.s.s.s.s.s.s.s.s.s.s.s.s.s.s.Q Q Q Q s.s.s.s.s.s.s.s.Q Q Q Q s.s.s.s.s.s.s.s.s.s.s.s.s.s.s.s.s.s.s.s.Q Q Q : ",
"Q Q Q Q s.s.s.s.s.s.s.s.s.s.s.s.s.s.s.s.s.s.s.s.Q Q Q Q s.s.s.s.s.s.s.s.Q Q Q Q s.s.s.s.s.s.s.s.s.s.s.s.s.s.s.s.s.s.s.s.Q Q Q Q ",
"Q Q Q Q s.s.s.s.s.s.s.s.s.s.s.s.s.s.s.s.s.s.s.s.Q Q Q Q s.s.s.s.s.s.s.s.Q Q Q Q s.s.s.s.s.s.s.s.s.s.s.s.s.s.s.s.s.s.s.s.Q Q Q Q ",
"Q Q Q Q Q Q Q Q Q Q Q Q s.s.s.s.s.s.s.s.Q Q Q Q Q Q Q Q s.s.s.s.s.s.s.s.Q Q Q Q Q Q Q Q s.s.s.s.s.s.s.s.Q Q Q Q Q Q Q Q Q Q Q Q ",
"Q Q Q Q Q Q Q Q Q Q Q Q s.s.s.s.s.s.s.s.Q Q Q Q Q Q Q Q s.s.s.s.s.s.s.s.Q Q Q Q Q Q Q Q s.s.s.s.s.s.s.s.Q Q Q Q Q Q Q Q Q Q Q Q ",
"Q Q Q Q Q Q Q Q Q Q Q Q s.s.s.s.s.s.s.s.Q Q Q Q Q Q Q Q s.s.s.s.s.s.s.s.Q Q Q Q Q Q Q Q s.s.s.s.s.s.s.s.Q Q Q Q Q Q Q Q Q Q Q : ",
"Q Q Q Q Q Q Q Q Q Q Q Q s.s.s.s.s.s.s.s.Q Q Q Q Q Q Q Q s.s.s.s.s.s.s.s.Q Q Q Q Q Q Q Q s.s.s.s.s.s.s.s.Q Q Q Q Q Q Q Q Q Q Q Q ",
"i.' ' ' Q Q Q Q ' ( ' ' Q Q Q Q s.s.s.s.s.s.s.s.s.s.s.s.s.s.s.s.s.s.s.s.s.s.s.s.s.s.s.s.s.s.s.s.Q Q Q Q ' ' ' ' Q Q Q Q u.' ' ' ",
"( i.' ' Q Q Q Q ' i.' ' Q Q Q Q s.s.s.s.s.s.s.s.s.s.s.s.s.s.s.s.s.s.s.s.s.s.s.s.s.s.s.s.s.s.s.s.Q Q Q Q ' ' ' ' Q Q Q Q ' ' ' ' ",
"' ' ' ' Q Q Q Q ' ' ' ' Q Q Q Q s.s.s.s.s.s.s.s.s.s.s.s.s.s.s.s.s.s.s.s.s.s.s.s.s.s.s.s.s.s.s.s.Q Q Q Q ' ' ' ' Q Q Q Q ' ' ' ' ",
"' ' ' ' Q Q Q Q ' ' ] i.Q Q Q Q s.s.s.s.s.s.s.s.s.s.s.s.s.s.s.s.s.s.s.s.s.s.s.s.s.s.s.s.s.s.s.s.Q Q Q Q ' ' ' ' Q Q Q Q ' ' ' ' "
};
