/* XPM */
static char *result[] = {
/* columns rows colors chars-per-pixel */
"64 64 4 1 ",
"  c #816B1C",
". c #826B1C",
"X c #837D45",
"o c #9D8943",
/* pixels */
"XXXX....XXXX....oooooooooooooooooooooooooooooooo....XXXX....XXXX",
"XXXX....XXXX....oooooooooooooooooooooooooooooooo....XXXX....XXXX",
"XXXX....XXXX....oooooooooooooooooooooooooooooooo....XXXX....XXXX",
"XXXX....XXXX....oooooooooooooooooooooooooooooooo....XXXX....XXXX",
"............oooooooo........oooooooo........oooooooo............",
"............oooooooo........oooooooo........oooooooo............",
"............oooooooo........oooooooo........oooooooo............",
"............oooooooo........oooooooo........oooooooo............",
"....oooooooooooooooooooo....oooooooo....oooooooooooooooooooo....",
"....oooooooooooooooooooo....oooooooo....oooooooooooooooooooo....",
"....oooooooooooooooooooo....oooooooo....oooooooooooooooooooo....",
"....oooooooooooooooooooo....oooooooo....oooooooooooooooooooo....",
"....oooooooooooooooooooooooooooooooooooooooooooooooooooooooo....",
"....oooooooooooooooooooooooooooooooooooooooooooooooooooooooo....",
"....oooooooooooooooooooooooooooooooooooooooooooooooooooooooo....",
"....oooooooooooooooooooooooooooooooooooooooooooooooooooooooo....",
"oooooooooooooooo........oooooooooooooooo........oooooooooooooooo",
"oooooooooooooooo........oooooooooooooooo........oooooooooooooooo",
"oooooooooooooooo........oooooooooooooooo........oooooooooooooooo",
"oooooooooooooooo........oooooooooooooooo........oooooooooooooooo",
"oooo........oooo....oooooooo........oooooooo....oooo........oooo",
"oooo........oooo....oooooooo........oooooooo....oooo........oooo",
"oooo........oooo....oooooooo........oooooooo....oooo........oooo",
"oooo........oooo....oooooooo........oooooooo....oooo........oooo",
"oooooooo....oooooooooooooooooooooooooooooooooooooooo....oooooooo",
"oooooooo....oooooooooooooooooooooooooooooooooooooooo....oooooooo",
"oooooooo....oooooooooooooooooooooooooooooooooooooooo....oooooooo",
"oooooooo....oooooooooooooooooooooooooooooooooooooooo....oooooooo",
"oooooooooooooooooooooooo....oooooooo....oooooooooooooooooooooooo",
"oooooooooooooooooooooooo....oooooooo....oooooooooooooooooooooooo",
"oooooooooooooooooooooooo....oooooooo....oooooooooooooooooooooooo",
"oooooooooooooooooooooooo....oooooooo....oooooooooooooooooooooooo",
"oooooooooooooooooooooooo....oooooooo....oooooooooooooooooooooooo",
"oooooooooooooooooooooooo....oooooooo....oooooooooooooooooooooooo",
"oooooooooooooooooooooooo....oooooooo....oooooooooooooooooooooooo",
"oooooooooooooooooooooooo....oooooooo....oooooooooooooooooooooooo",
"oooooooo....oooooooooooooooooooooooooooooooooooooooo....oooooooo",
"oooooooo....oooooooooooooooooooooooooooooooooooooooo....oooooooo",
"oooooooo....oooooooooooooooooooooooooooooooooooooooo....oooooooo",
"oooooooo....oooooooooooooooooooooooooooooooooooooooo....oooooooo",
"oooo........oooo....oooooooo........oooooooo....oooo........oooo",
"oooo........oooo....oooooooo........oooooooo....oooo........oooo",
"oooo........oooo....oooooooo........oooooooo....oooo........oooo",
"oooo........oooo....oooooooo........oooooooo....oooo........oooo",
"oooooooooooooooo........oooooooooooooooo........oooooooooooooooo",
"oooooooooooooooo........oooooooooooooooo........oooooooooooooooo",
"oooooooooooooooo........oooooooooooooooo........oooooooooooooooo",
"oooooooooooooooo........oooooooooooooooo........oooooooooooooooo",
"....oooooooooooooooooooooooooooooooooooooooooooooooooooooooo....",
"....oooooooooooooooooooooooooooooooooooooooooooooooooooooooo....",
"....oooooooooooooooooooooooooooooooooooooooooooooooooooooooo....",
"....oooooooooooooooooooooooooooooooooooooooooooooooooooooooo....",
"....oooooooooooooooooooo....oooooooo....oooooooooooooooooooo... ",
"....oooooooooooooooooooo....oooooooo....oooooooooooooooooooo... ",
"....oooooooooooooooooooo....oooooooo....oooooooooooooooooooo... ",
"....oooooooooooooooooooo....oooooooo....oooooooooooooooooooo... ",
"............oooooooo........oooooooo........oooooooo........... ",
"............oooooooo........oooooooo........oooooooo........... ",
"............oooooooo........oooooooo........oooooooo........... ",
"............oooooooo........oooooooo........oooooooo........... ",
"XXXX....XXXX....oooooooooooooooooooooooooooooooo....XXXX....XXXX",
"XXXX....XXXX....oooooooooooooooooooooooooooooooo....XXXX....XXXX",
"XXXX....XXXX....oooooooooooooooooooooooooooooooo....XXXX....XXXX",
"XXXX....XXXX....oooooooooooooooooooooooooooooooo....XXXX....XXXX"
};
