/* XPM */
static char *result[] = {
/* columns rows colors chars-per-pixel */
"64 64 208 2 ",
"   c #0B0A08",
".  c #30130C",
"X  c #3B1D10",
"o  c #352816",
"O  c #3C332F",
"+  c #481F13",
"@  c #4D3D0F",
"#  c #442414",
"$  c #4B2917",
"%  c #512717",
"&  c #532B14",
"*  c #532C1B",
"=  c #582E1E",
"-  c #463413",
";  c #57331A",
":  c #5A371A",
">  c #612D13",
",  c #62331D",
"<  c #69361D",
"1  c #463B27",
"2  c #4D342B",
"3  c #5A3A25",
"4  c #663723",
"5  c #6A3B22",
"6  c #733C23",
"7  c #7B3E25",
"8  c #7B3F28",
"9  c #4F431D",
"0  c #554512",
"q  c #5D4B14",
"w  c #5B461A",
"e  c #664A19",
"r  c #654B1A",
"t  c #675414",
"y  c #6A5715",
"u  c #6D5916",
"i  c #685319",
"p  c #715D17",
"a  c #735E18",
"s  c #766119",
"d  c #7A641A",
"f  c #7F681B",
"g  c #564B26",
"h  c #5B4D25",
"j  c #4E4433",
"k  c #524334",
"l  c #56453A",
"z  c #5B4A39",
"x  c #5E5131",
"c  c #674826",
"v  c #734325",
"b  c #7C4225",
"n  c #764228",
"m  c #7D422A",
"M  c #7A4929",
"N  c #65552B",
"B  c #6C5C2C",
"V  c #76552C",
"C  c #784A3B",
"Z  c #655738",
"A  c #6C5D3C",
"S  c #7F5037",
"D  c #6F612D",
"F  c #73622A",
"G  c #6F633B",
"H  c #746431",
"J  c #7A6531",
"K  c #7D6B34",
"L  c #766839",
"P  c #584845",
"I  c #644D45",
"U  c #65524C",
"Y  c #6C5A4D",
"T  c #775C47",
"R  c #725B54",
"E  c #6F6542",
"W  c #736444",
"Q  c #746249",
"!  c #7F744C",
"~  c #796556",
"^  c #7B635C",
"/  c #87471A",
"(  c #826B1C",
")  c #A1661F",
"_  c #B1721F",
"`  c #834326",
"'  c #8A4727",
"]  c #84442A",
"[  c #89462A",
"{  c #834B2B",
"}  c #8C4A2A",
"|  c #944C2C",
" . c #994E2C",
".. c #8C522D",
"X. c #855829",
"o. c #95532D",
"O. c #9C512D",
"+. c #945B2E",
"@. c #864E30",
"#. c #994F31",
"$. c #895831",
"%. c #935131",
"&. c #9C5432",
"*. c #945D32",
"=. c #9B5A33",
"-. c #975C3C",
";. c #9C5B39",
":. c #A3542E",
">. c #A5592F",
",. c #A45531",
"<. c #A95734",
"1. c #A55B34",
"2. c #AC5A34",
"3. c #B45D35",
"4. c #B65F38",
"5. c #816822",
"6. c #806D35",
"7. c #826638",
"8. c #9A6334",
"9. c #956B37",
"0. c #827137",
"q. c #867439",
"w. c #8A7539",
"e. c #8C7A3B",
"r. c #927E3E",
"t. c #B27425",
"y. c #A46235",
"u. c #A96439",
"i. c #B56136",
"p. c #BB6236",
"a. c #B36239",
"s. c #BA6239",
"d. c #B3683A",
"f. c #BB6B3C",
"g. c #CC782A",
"h. c #C06739",
"j. c #C46D3B",
"k. c #C2753C",
"l. c #8B5745",
"z. c #9A6649",
"x. c #837D45",
"c. c #8B7843",
"v. c #877348",
"b. c #83665D",
"n. c #856D5B",
"m. c #996958",
"M. c #AB684A",
"N. c #BB6C43",
"B. c #B0694C",
"V. c #A36D58",
"C. c #B06E51",
"Z. c #AE725C",
"A. c #BC7355",
"S. c #B3735A",
"D. c #BC765A",
"F. c #846861",
"G. c #896D66",
"H. c #8D6F68",
"J. c #8C7268",
"K. c #997467",
"L. c #92746C",
"P. c #8D7E76",
"I. c #957B72",
"U. c #9C7D73",
"Y. c #A87969",
"T. c #B87A64",
"R. c #A17F75",
"E. c #C36F45",
"W. c #CB7742",
"Q. c #94823F",
"!. c #BC9832",
"~. c #D09C34",
"^. c #E49F33",
"/. c #968340",
"(. c #998541",
"). c #9D8943",
"_. c #978277",
"`. c #9D8177",
"'. c #A48C62",
"]. c #BF836C",
"[. c #A28176",
"{. c #AD8375",
"}. c #A6867B",
"|. c #AB897D",
" X c #BD8672",
".X c #BA8979",
"XX c #BF917E",
"oX c #E6B941",
"OX c #C0856F",
"+X c #C18D7A",
"@X c #D9C74E",
"#X c #9F8D82",
"$X c #A78980",
"%X c #AD8D81",
"&X c #B29286",
"*X c #B6978B",
"=X c #BA9688",
"-X c #BC9A8E",
";X c #BF9E91",
":X c #BFA196",
">X c #C19584",
",X c #C29A8B",
"<X c #C09F92",
"1X c #DDA28B",
"2X c #C3A193",
"3X c #C6A89B",
"4X c #D2BAA6",
"5X c #F8D79D",
/* pixels */
"x.x.x.x.( ( ( ( x.x.x.x.( ( ( ( ).).).).).).).).).).).).).).).).).).).).).).).).).).).).).).).).( ( ( ( x.x.x.x.( ( ( ( x.x.x.x.",
"x.x.x.x.( ( ( ( x.x.x.x.( ( ( ( ).).).).).).).).).).).).).).).).).).).).).).).).).).).).).).).).( ( ( ( x.x.x.x.( ( ( ( x.x.x.x.",
"x.x.x.x.( ( ( ( x.x.x.x.( ( ( ( ).).).).).).).).).).).).).).).).).).).).).).).).).).).).).).).).( ( ( ( x.x.x.x.( ( ( ( x.x.x.x.",
"x.x.x.x.( ( ( ( x.x.x.x.( ( ( ( ).).).).).).).).).).).).).).).).).).).).).).).).).).).).).).).).( ( ( ( x.x.x.x.( ( ( ( x.x.x.x.",
"( ( ( ( ( ( ( ( ( ( ( ( ).).).).).).).).( ( ( ( ( ( ( ( ).).).).).).).).( ( ( ( ( ( ( ( ).).).).).).).).( ( ( ( ( ( ( ( ( ( ( ( ",
"( ( ( ( ( ( ( ( ( ( ( ( ).).).).).).).).( ( ( ( ( ( ( ( ).).).).).).).).( ( ( ( ( ( ( ( ).).).).).).).).( ( ( ( ( ( ( ( ( ( ( ( ",
"( ( ( ( ( ( ( ( ( ( ( ( ).).).).).).).).( ( ( ( ( ( ( ( ).).).).).).).).( ( ( ( ( ( ( ( ).).).).).).).).( ( ( ( ( ( ( ( ( ( ( ( ",
"( ( ( ( ( ( ( ( ( ( ( ( ).).).).).).).).( ( ( ( ( ( ( ( ).).).).).).).).( ( ( ( ( ( ( ( ).).).).).).).).( ( ( ( ( ( ( ( ( ( ( ( ",
"( ( ( ( ).).).).).).).).).).).).).).).).).).).).( ( ( ( ).).).).).).).).( ( ( ( ).).).).(.w.e.(.).).).).).).).).).).).).( ( ( ( ",
"( ( ( ( ).).).).).).).).).).).).).).).).).).).).( ( ( ( ).).).).).).).).( ( ( ( ).).).J 5 =...&   c H (.).).).).).).).).( ( ( ( ",
"( ( ( ( ).).).).).).).).).).).).).).).).).).).).( ( ( ( ).).).).).).).).( ( d t J $.X.o.1.f.=.k.y.b f.*.(.).).).).).).).( ( ( ( ",
"( ( ( ( ).).).).).).).).).).).).).).).).).).).).( ( ( ( ).).).).).).).).s @ ` 3 3.s.#.' < - l.> | j.%.u.4 M X.B w.).).).( ( ( ( ",
"( ( ( ( ).).).).).).).).).).).).).).).).).).).).).).).).).).).).).).).e.# y.j.` ,.p.<.. . 1X4Xg./ :.3.4.% :.W.4 { h K Q.( ( ( ( ",
"( ( ( ( ).).).).).).).).).).).).).).).).).).).).).).).).).).).).).).e.$.f.b p.2.[ 3.7 + / 5X@X!.g.% 4.p.5 } >.v p.o...[ - s ( ( ",
"( ( ( ( ).).).).).).).).).).).).).).).).).).).).).).).).).).).).).).V f.s.b 3.7 O.i.3.% X ^.oX~.t.% :.4.O.i.3.O.m >.i.2.a.b q ( ",
"( ( ( ( ).).).).).).).).).).).).).).).).).).).).).).).).).).).).).).{ b 4.p.2.:.p.p.:.3., : _ ) # :.<.2.2.p.] | O.3.s.p.i.6 m s ",
").).).).).).).).).).).).).).).).( ( ( ( ( ( ( ( ).).).).).).).).).w.p.' } p.D.OXOXD.[ ,.4.| | 7 3.2.* #.3.3.b p.p.p.p.p.p.p.<.F ",
").).).).).).).).).).).).).).).).( ( ( ( ( ( ( ( ).).).).).).).).).F :.4.<.D.2X<X<X<X>XB.3. .,.:.3.3.4.:.2.&.#.,.2.i.s.s.s.2.} e.",
").).).).).).).).).).).).).).).).( ( ( ( ( ( ( ( ).).).).).).).).).H 6 6 <.T.|.*X2X2X<X2Xz.5 6 ] ] ] ] ] 6 6 6 6 m ] 8 6 m ] $.).",
").).).).).).).).).).).).).).).).( ( ( ( ( ( ( ( ).).).).).).).).).q.3.4.4.Y.R.R.*X2X<X<X<X}.z 0 N c j o E Z ! E g Z x Z G q.).).",
").).).).( ( ( ( ( ( ( ( ).).).).( ( ( ( ).).).).).).).).( ( ( ( ( ( } p.p.OX$XR.R.%X<X<X2X2X*XU.E H N G A L L F f F s K /.).).).",
").).).).( ( ( ( ( ( ( ( ).).).).( ( ( ( ).).).).).).).).( ( ( ( ( ( w p.h.T.<XU.R.R.|.<X2X2X2X<X<X$X$XJ.U P 1 x v.s ( f ).).).).",
").).).).( ( ( ( ( ( ( ( ).).).).( ( ( ( ).).).).).).).).( ( ( ( ( ( f y.p.A.<X*XF.U.R.R.%X=X-X2X2X<X2X<X;X-X-XI.^ j 9 B /.).).).",
").).).).( ( ( ( ( ( ( ( ).).).).( ( ( ( ).).).).).).).).( ( ( ( ( ( ( t E.p.,X<XR.^ R L.[.[.[.[.R.[.}.$X|.%X-X;X:X*X&X`.%X'.).).",
").).).).).).).).( ( ( ( ).).).).).).).).).).).).).).).).).).).).).).).(...| D.>X<X*XU.B h P U ^ G.J.G.F.R R L.[.|.*X*X&X%X(.).).",
").).).).).).).).( ( ( ( ).).).).).).).).).).).).).).).).).).).).).).).).0.2.4.s.=X4XR (.).).e.e.q.K K q.p p t 0 W W n.n.e.).).).",
").).).).).).).).( ( ( ( ).).).).).).).).).).).).).).).).).).).).).).).).).V  .i.N.,X:Xe.).).).).).).).).f ( ( ( ).).).).).).).).",
").).).).).).).).( ( ( ( ).).).).).).).).).).).).).).).).).).).).).).).).).).v ,.i.].3XL ).).).).).).).).( ( ( 5.).).).).).).).).",
").).).).).).).).).).).).).).).).).).).).).).).).( ( ( ( ).).).).).).).).f ( t 8 3.p.<X#X(.).).).).).).).).).).).).).).).).).).).",
").).).).).).).).).).).).).).).).).).).).).).).).( ( ( ( ).).).).).).).).( ( f ; &.i.+XU.e.).).).).).).).).).).).).).).).).).).).",
").).).).).).).).).).).).).).).).).).).).).).).).( ( ( ( ).).).).).).).).( ( ( q | s..X:Xe.).).).).).).).).).).).).).).).).).).).",
").).).).).).).).).).).).).).).).).).).).).).).).( ( ( ( ).).).).).).).).( ( ( q O.i. X_.e.).).).).).).).).).).).).).).).).).).).",
").).).).).).).).).).).).).).).).).).).).).).).).( ( ( ( ).).).).).).).).( ( ( : 2.p.,XP.).).).).).).).).).).).).).).).).).).).).",
").).).).).).).).).).).).).).).).).).).).).).).).( ( ( ( ).).).).).).).).( ( q [ p.D.<XA ).).).).).).).).).).).).).).).).).).).).",
").).).).).).).).).).).).).).).).).).).).).).).).( ( s y 0.e.r.).).Q.K J *.1.<.4.s.XX*Xe.).).).).).).).).).).).).).).).).).).).).",
").).).).).).).).).).).).).).).).).).).).).).).w.e - =.y.{ u.M ` o +.M f.p.s.3.s.,X3X! ).).).).).).).).).).).).).).).).).).).).).",
").).).).).).).).( ( ( ( ).).).).).).).)./.H M 2.p.p.p. .} p.,.j.%.3.' ' s.,.n p.=X_.e.).).).).).).).).).( ( ( ( ).).).).).).).).",
").).).).).).).).( ( ( ( ).).).).).).e.V n  .3.&.2.p.i.<.,.p.,.4.O.7 ' 4  .p.1.a.2X%X).).).).).Q.r.).).).( ( ( ( ).).).).).).).).",
").).).).).).).).( ( ( ( ).).).).0.V @.f.:. .3.m.D.N.3.' #.i.,.o.2.| :. .;.8 d.U.2X`.q.).e.7.+.:.h.w.Q.).( ( ( ( ).).).).).).).).",
").).).).).).).).( ( ( ( ).).e.h d.y.o.m  .4.3.%X2X[.| 3.{ { } p.s.m.>X=X<XC ,.T -Xb.M y.2.p.` c 2.=.).).( ( ( ( ).).).).).).).).",
").).).).( ( ( ( ( ( ( ( Q.D @.W.p.M.T.H.{.{.U.&X2X2Xm.,.s.j.+.S.,X2X2X2X2X~ ,.b }.T 4.<.| e d ( ' y.).).( ( ( ( ( ( ( ( ).).).).",
").).).).( ( ( ( ( ( ( u ..d.E.V.|.U.U.L.H.H.R }.2X2X}.l.:.m S 2X2X2X2X2X-X%X8 <.1.$.` 5 s ( ( ( b :.Q.).( ( ( ( ( ( ( ( ).).).).",
").).).).( ( ( ( ( f w ;.W.Z.[.U.^ l 0 p e.e.W G.|.2X2XOXp.i.f.;X<X$X[.[.`.I.% <.i.i.3.2.O.y.s e ' <.r.Q.( ( ( ( ( ( ( ( ).).).).",
").).).).( ( ( ( d v W.M.Y.J.Y F d ( ( ( ).).).2 U.|.<X+X3.:.y.|.}.[.G.U x B q.0.K 7.7.V } p.b , } w.).).( ( ( ( ( ( ( ( ).).).).",
").).).).).).).e.+.f.Z.J.Y q.).).( ( ( ( ( ( ( p j U.}.>Xp.3.{ U.F.j H Q.).).).).( ( ( ( h <.X.e 9.).).).).).).).).).).).).).).).",
").).).).).).6.d.B.K.Z q.Q.).).).( ( ( ( ( ( ( ( e.l U.|.,. .v 2 ` H ).).).).).).( ( ( ( t 2.j Z ).).).).).).).).).).).).).).).).",
").).).).).0.=.A.n.J Q.).).).).).( ( ( ( ( ( ( ( ).0.R |.A.s.U A.<.D ).).).).).).( f f p v i.i ( ).).).).).).).).).).).).).).).).",
").).).).0.d.S.Q Q.).).).).).).).( ( ( ( ( ( ( ( ).).I [. Xs.U E.s.9.).).).).).).d c M , } O.s ( ).).).).).).).).).).).).).).).).",
"( ( ( a i.m.0.).).).).).).).).).).).).).).).).).).0.G.U. X4.,.4.O.8.).).).).).(.K c.(.o.8.Q.).).).).).).).).).).).).).).( ( ( ( ",
"( ( ( o.V.c.).).).).).).).).).).).).).).).).).w.b..XY.Z.4.<.O.| & w.).).).).).).).q.G 7.Q.).).).).).).).).).).).).).).).( ( ( ( ",
"( ( o.z.r.).).).).).).).).).).).).).).).).).B -.C.:.| + 5 ; J e.(.).).).).).).).).).).).).).).).).).).).).).).).).).).).( ( ( ( ",
"( 5.-.f ).).).).).).).).).).).).).).).).).e.6 p.} X , , K ).).).).).).).).).).).).).).).).).).).).).).).).).).).).).).).( ( ( ( ",
"( =.f ( ).).).).).).).).).).).).).).).).).K m ,.:.%  .3.K ).).).).).).).( ( ( ( ).).).).).).).).).).).).).).).).).).).).( ( ( ( ",
"5.f ( ( ).).).).).).).).).).).).).).).).).(.B b <.6 * O.O.V ).).).).).).( ( ( ( ).).).).).).).).).).).).).).).).).).).).( ( ( ( ",
"( ( ( ( ).).).).).).).).).).).).).).).).).).).K b 3.6 : 2.,.B ).).).).).( ( ( ( ).).).).).).).).).).).).).).).).).).).).( ( ( ( ",
"( ( ( ( ).).).).).).).).).).).).).).).).).).).).: } i.| | s.4.8.e.).).).( ( ( 5.).).).).).).).).).).).).).).).).).).).).( ( ( ( ",
"( ( ( ( ( ( ( ( ( ( ( ( ).).).).).).Q.Q.d d s s y = 3.p.>.6 m , $ v 5 L p s s s s s d d Q.Q.Q.Q.).).).).( ( ( ( ( ( ( ( ( ( ( ( ",
"( ( ( ( ( ( ( ( ( ( ( ( ).(./.e.q.0.0.K t t t t y 6 p.p.p.2.<.| 3 6 2 Y o e t t t y y y 0.q.e.e.Q.Q.).).( ( ( ( ( ( ( ( ( ( ( ( ",
"( ( ( ( ( ( ( ( ( ( ( ( )./.e.q.6.K K K t y t t t - | ,.:.:.4.[ P P O 1 k 1 t t t t y y K K 6.e.r.Q.).).( ( ( ( ( ( ( ( ( ( ( ( ",
"( ( ( ( ( ( ( ( ( ( ( ( ).).(.(./.Q.e.e.p u u u y t 0 w h h r V F D N J y y y y u u p s r.Q.Q.Q.).).).).( ( ( ( ( ( ( ( ( ( ( ( ",
"x.x.x.x.( ( ( ( x.x.x.x.( ( ( ( ).).).).(.).).(.(.(.(./.).Q.Q.).Q.Q.Q.).Q.).).Q.).Q.).).).).).).( ( ( ( x.x.x.x.( ( ( ( x.x.x.x.",
"x.x.x.x.( ( ( ( x.x.x.x.( ( ( ( ).).).).).).).).).).).).).).).).).).).).).).).).).).).).).).).).( ( ( ( x.x.x.x.( ( ( ( x.x.x.x.",
"x.x.x.x.( ( ( ( x.x.x.x.( ( ( ( ).).).).).).).).).).).).).).).).).).).).).).).).).).).).).).).).( ( ( ( x.x.x.x.( ( ( ( x.x.x.x.",
"x.x.x.x.( ( ( ( x.x.x.x.( ( ( ( ).).).).).).).).).).).).).).).).).).).).).).).).).).).).).).).).( ( ( ( x.x.x.x.( ( ( ( x.x.x.x."
};
