/* XPM */
static char *result[] = {
/* columns rows colors chars-per-pixel */
"64 64 121 2 ",
"   c black",
".  c #2F2505",
"X  c #28220C",
"o  c #3A3214",
"O  c #051332",
"+  c #282828",
"@  c #393939",
"#  c #43360A",
"$  c #473D1A",
"%  c #52430E",
"&  c #584810",
"*  c #5E4C11",
"=  c #635113",
"-  c #725D17",
";  c #766119",
":  c #7A641A",
">  c #7E681B",
",  c #747814",
"<  c #524720",
"1  c #645628",
"2  c #6B5D2B",
"3  c #72632F",
"4  c #786932",
"5  c #7E6E35",
"6  c #0A1E47",
"7  c #0B2146",
"8  c #0E2657",
"9  c #112D64",
"0  c #143062",
"q  c #1A3C76",
"w  c #173879",
"e  c #054742",
"r  c #0D7871",
"t  c #444544",
"y  c #464646",
"u  c gray28",
"i  c #4A495B",
"p  c #515151",
"a  c #605848",
"s  c #6A624D",
"d  c #796E56",
"f  c #606160",
"g  c #626262",
"h  c gray39",
"j  c #6A6A6A",
"k  c #717171",
"l  c #747574",
"z  c #767676",
"x  c gray47",
"c  c #7E7E7E",
"v  c #816B1C",
"b  c #826B1C",
"n  c #8A783A",
"m  c #8F7C3C",
"M  c #837D45",
"N  c #94813F",
"B  c #988541",
"V  c #9D8943",
"C  c #888379",
"Z  c #1A3C82",
"A  c #1F4587",
"S  c #1C418A",
"D  c #1E4592",
"F  c #204899",
"G  c #244FA6",
"H  c #2754A3",
"J  c #2552AC",
"K  c #2B5BAE",
"L  c #2755B2",
"P  c #2A5BBD",
"I  c #2E61B9",
"U  c #656E88",
"Y  c #697FB9",
"T  c #3166C3",
"R  c #346CCD",
"E  c #3975DE",
"W  c #3B7AE6",
"Q  c #3E7EEE",
"!  c #416CC4",
"~  c #118981",
"^  c #1BBCB1",
"/  c #4082F5",
"(  c #4286FC",
")  c #1FCFC4",
"_  c #23E1D4",
"`  c #29FFF1",
"'  c #848684",
"]  c gray53",
"[  c #888888",
"{  c #898989",
"}  c #8E8E8E",
"|  c #928F89",
" . c #939393",
".. c #979797",
"X. c gray61",
"o. c #9FA19F",
"O. c gray64",
"+. c #A8A7A3",
"@. c gray67",
"#. c #AEAEAE",
"$. c #A4A9B9",
"%. c #B6B8B6",
"&. c #B7B9B7",
"*. c #B9B9B9",
"=. c #A2E19E",
"-. c #BFC2BF",
";. c #C1E987",
":. c #A9BEFC",
">. c #C3C3C3",
",. c #C9CBC9",
"<. c #CDCDCD",
"1. c #DADCDA",
"2. c gray87",
"3. c #E6E6E6",
"4. c #E9ECE9",
"5. c #EEEEEE",
"6. c #E0E6FC",
"7. c #F0F3F0",
"8. c gray96",
"9. c #F7FAF7",
"0. c gray99",
/* pixels */
"M M M M b b b b M M M M b b b b V V V V V V V V V V V V n n n n 1 z ] ] $ n n V V V V V V V V V b b b b M M M M b b b b M M M M ",
"M M M M b b b b M M M M b b b b V V V V V V V V V 3 3 3 *.*.*.*.*.5.0.0.*.*.g 3 n V V V V V V V b b b b M M M M b b b b M M M M ",
"M M M M b b b b M M M M b b b b V V V V V V V V 2 z 2.2.0.0.0.0.0.0.0.0.0.0.3.>.o m V V V V V V b b b b M M M M b b b b M M M M ",
"M M M M b b b b M M M M b b b b V V V V V V V 3 O.0.0.0.0.0.0.0.0.0.0.0.0.0.0.0.2.g 5 V V V V V b b b b M M M M b b b b M M M M ",
"b b b b b b b b b b b b V V V V V V V V b b ; +.8.0.0.0.0.0.0.0.0.0.0.0.0.0.0.0.0.3.# b V V V V V V V V b b b b b b b b b b b b ",
"b b b b b b b b b b b b V V V V V V V V b ; ] 0.0.0.0.0.0.0.0.0.0.0.0.0.0.0.0.0.0.0.z * V V V V V V V V b b b b b b b b b b b b ",
"b b b b b b b b b b b b V V V V V V V V : . <.0.0.0.0.0.0.0.0.0.0.0.0.0.0.0.0.0.0.0.2.# N V V V V V V V b b b b b b b b b b b b ",
"b b b b b b b b b b b b V V V V V V V V - >.0.0.0.0.0.0.0.0.0.0.0.0.0.0.0.0.0.0.0.0.8.O.n V V V V V V V b b b b b b b b b b b b ",
"b b b b V V V V V V V V V V V V V V V V 4 2.8.2.2.3.0.0.0.0.0.0.0.3.2.2.0.0.0.8.2.2.0.*.n V V V V V V V V V V V V V V V b b b b ",
"b b b b V V V V V V V V V V V V V V V V g *.O.    g *.5.0.0.0.5.*.g     *.2.0.2.] g 0.*.n V V V V V V V V V V V V V V V b b b b ",
"b b b b V V V V V V V V V V V V V V V V ] ]           2.0.0.0.2.  r =.,   *.0.2.*.] 0.*.n V V V V V V V V V V V V V V V b b b b ",
"b b b b V V V V V V V V V V V V V V V V ] ]           2.0.0.0.2.  _ ) ;.  *.0.2.*.0.2.o m V V V V V V V V V V V V V V V b b b b ",
"b b b b V V V V V V V V V V V V V V V V ] ]           2.0.0.0.2.  ^ ` )   *.0.2.*.0.O.3 V V V V V V V V V V V V V V V V b b b b ",
"b b b b V V V V V V V V V V V V V V V V ] 3.          2.0.0.0.2.  e ~ e z 5.0.2.*.#.$ N V V V V V V V V V V V V V V V V b b b b ",
"b b b b V V V V V V V V V V V V V V V V $ 2.3.] ] z g 3.  O.8.0.<.3.0.0.0.0.0.    $ V V V V V V V V V V V V V V V V V V b b b b ",
"b b b b V V V V V V V V V V V V V V V V 1 2.0.0.0.5.2.<.    O.0.0.0.0.0.0.0.0.o 3 N V V V V V V V V V V V V V V V V V V b b b b ",
"V V V V V V V V V V V V V V V V b > * a z O.0.0.0.0.0.#.O.*.] 0.0.0.0.3.<.<.0.$ - > b b b b b b V V V V V V V V V V V V V V V V ",
"V V V V V V V V V V V V V V V V b - p  .] ] *.*.*.*.*.*.*.*.*.*.*.*.*.g *.2.<.@ p % b b b b b b V V V V V V V V V V V V V V V V ",
"V V V V V V V V V V V V V V V V b - k X.] 3.z 2.z 2.O.>.2.O.>.>.O.2.O.>.0.<.y }  .u & b b b b b V V V V V V V V V V V V V V V V ",
"V V V V V V V V V V V V V V V V b - h ..u >.<.] ] ] ] ] ] ] ] ] ] ] <.3.>.@ c } X.X.  * b b b b V V V V V V V V V V V V V V V V ",
"V V V V b b b b b b b b V V V V b %   h  .@ g *.*.*.*.*.*.*.*.*.*.*.*.[ h p @ @ { X.h 3 b b b b V V V V b b b b b b b b V V V V ",
"V V V V b b b b b b b b V V V V b q E q p + { { {   O.2.2.O.  { { { { ..u H E   k X.{ 3 b b b b V V V V b b b b b b b b V V V V ",
"V V V V b b b b b b b b V V V V # K ( ( W 7 X.X.X.} @.8.8.O.{ X.X.X. .u K ( ( A 0 { { 3 b b b b V V V V b b b b b b b b V V V V ",
"V V V V b b b b b b b b V V V V # ( ( ( ( A c X.X.X.{ @.O.p  .X.X. .p H ( ( ( ( E U h 3 b b b b V V V V b b b b b b b b V V V V ",
"V V V V V V V V b b b b V V V V < ( ( ( ( A + c X.X.c + u  .X.X.X.h H / ( ( ( ( ( W   3 V V V V V V V V b b b b V V V V V V V V ",
"V V V V V V V V b b b b V V V V < ( ( ( ( ( A U { X.k 2.p X.} x 0 K ( ( ( ( ( ( ( ( ( R d V V V V V V V b b b b V V V V V V V V ",
"V V V V V V V V b b b b V V V V < ( ( ( ( ( ( E 0 X.k O.p { @ $.E ( ( ( ( ( ( ( ( ( ( ( R 5 V V V V V V b b b b V V V V V V V V ",
"V V V V V V V V b b b b V V V V < ( ( ( ( ( ( ( A j k >.p k T 6.( ( ( ( ( ( ( W A W ( ( ( ! 5 V V V V V b b b b V V V V V V V V ",
"V V V V V V V V V V V V V V V 3 q ( ( ( ( ( ( ( 6.q   >.  0 W 6.( ( ( ( ( ( A A R ( ( ( ( W 0 V V V V V V V V V V V V V V V V V ",
"V V V V V V V V V V V V V V V 3 E W A A A W ( ( 6./ H >.  I ( 6.( ( ( K A A 7 K ( ( ( ( ( ( Q 2 V V V V V V V V V V V V V V V V ",
"V V V V V V V V V V V V V V V 3 E 7 R ( E T ( ( 6./ Y 3.7 R ( 6.( / I A ( ( ( W A W ( ( ( ( ( < V V V V V V V V V V V V V V V V ",
"V V V V V V V V V V V V V V V 3 E R ( ( H H ( ( 6.E ] *.A ( ( :.( E I ( ( ( ( ( ( ( ( ( ( ( ( < V V V V V V V V V V V V V V V V ",
"V V V V V V V V V V V V V V V o E ( ( K q / ( ( 6.E O.2.A ( ( W A q 0 A K ( ( ( ( ( ( ( ( ( ( < V V V V V V V V V V V V V V V V ",
"V V V V V V V V V V V V V V V I ( ( I q ( ( ( ( ( E *.0.A ( ( ( ( ( ( ( A 0 E ( ( ( ( ( ( ( Q < V V V V V V V V V V V V V V V V ",
"V V V V V V V V V V V V V V V I ( ( I E ( ( ( ( ( E ] *.A ( ( ( ( ( ( ( ( I H ( ( ( ( ( ( ( I 5 V V V V V V V V V V V V V V V V ",
"V V V V V V V V V V V V V V V 0 W ( I E ( ( ( ( ( E O.2.A ( ( ( ( ( ( ( ( Q q ( ( ( ( ( ( W 0 V V V V V V V V V V V V V V V V V ",
"V V V V V V V V b b b b V V V 3 T ( I E ( ( ( ( ( E *.0.A ( ( ( ( ( ( ( ( ( A ( ( ( ( ( ( ! 5 V V V V V b b b b V V V V V V V V ",
"V V V V V V V V b b b b V V V n 3 I A H ( ( ( ( ( H ] *.A ( ( ( ( ( ( ( ( ( A ( ( ( Q I I 5 V V V V V V b b b b V V V V V V V V ",
"V V V V V V V V b b b b V V V V V n n $ ( ( ( ( (       A ( ( ( ( ( ( ( ( R R W A A q 1 n V V V V V V V b b b b V V V V V V V V ",
"V V V V V V V V b b b b V V V V V V V 2 q E E E q         H / ( ( ( ( ( T   $ < 5 V V V V V V V V V V V b b b b V V V V V V V V ",
"V V V V b b b b b b b b V V V V b b b b g g                 H I E Q I I *.] n V V V V V b b b b V V V V b b b b b b b b V V V V ",
"V V V V b b b b b b b b V V V V b b b b ] ]                     0 q   >.0.*.n V V V V V b b b b V V V V b b b b b b b b V V V V ",
"V V V V b b b b b b b b V V V V b b b b ] ]         ] *.                0.*.n V V V V V b b b b V V V V b b b b b b b b V V V V ",
"V V V V b b b b b b b b V V V V b b b b y <.          2.                0.*.n V V V V V b b b b V V V V b b b b b b b b V V V V ",
"V V V V V V V V V V V V V V V V b b b b - 2.            2.              ] 0.] V b b b b b b b b V V V V V V V V V V V V V V V V ",
"V V V V V V V V V V V V V V V V b b b b - 2.O.          *.]             ] 0.] V b b b b b b b b V V V V V V V V V V V V V V V V ",
"V V V V V V V V V V V V V V V V b b b b - 2.2.          y g             y <.] 2 b b b b b b b b V V V V V V V V V V V V V V V V ",
"V V V V V V V V V V V V V V V V b b b b ; # # # X ] ] ] z 3 2 < o y ] ] ] ] y V b b b b b b b b V V V V V V V V V V V V V V V V ",
"b b b b V V V V V V V V V V V V V V V V V V V V < 0.0.0.2.< N V n | 0.0.0.0.] V V V V V V V V V V V V V V V V V V V V V b b b b ",
"b b b b V V V V V V V V V V V V V V V V V V V V m #.0.0.8.O.n V V s <.0.0.0.] V V V V V V V V V V V V V V V V V V V V V b b b b ",
"b b b b V V V V V V V V V V V V V V V V V V V V V C 5.0.0.*.n V V n *.0.0.0.] V V V V V V V V V V V V V V V V V V V V V b b b b ",
"b b b b V V V V V V V V V V V V V V V V V V V V V n ] 5.0.*.n V V n ] 5.0.0.] V V V V V V V V V V V V V V V V V V V V V b b b b ",
"b b b b V V V V V V V V V V V V V V V V V V V V b > % 2.] g $ 2 V n   z ] ] y # < m V V V V V V V V V V V V V V V V V V b b b v ",
"b b b b V V V V V V V V V V V V V V V V V V 4 f t = g ] #.0.0.$ N n *.0.0.5.2.2.O.  V V V V V V V V V V V V V V V V V V b b b v ",
"b b b b V V V V V V V V V V V V V V V V V V f 1.,.  ] *.*.*.*.o n n *.0.5.&.%.%.'   V V V V V V V V V V V V V V V V V V b b b v ",
"b b b b V V V V V V V V V V V V V V V V V V l 1.1.-.S P P P P < 3 8 9 O t ,.9.7.1.l 8 3 V V V V V V V V V V V V V V V V b b b v ",
"b b b b b b b b b b b b V V V V V 3 3 3 b b   9 S w S P P P F < 3 G P F f 1.,.o.9 6 w # N V V V V V V V b b b b b b b b b b b v ",
"b b b b b b b b b b b b V V V V 2 l 1.l ; # 8 L P 8 S P P P 9 m N i F P D f t G S O     $ 2 V V V V V V b b b b b b b b b b b v ",
"b b b b b b b b b b b b V V V V < 9.%.  9 J 9 9 9 Z P P P P 9 V V n 6 9     8 8   1.9.9.9.l 3 V V V V V b b b b b b b b b b b v ",
"b b b b b b b b b b b b V V V V < 9.%.w P P P P P P P P P G 6 V V n S P S S L G ' 4.9.9.9.1.3 V V V V V b b b b b b b b b b b v ",
"M M M M b b b b M M M M b b b b < 9.%.8 P P P P P P F 9 9 6 4 V V n 6 9 P P P G %.9.9.9.9.1.3 V b b b b M M M M b b b b M M M M ",
"M M M M b b b b M M M M b b b b < 9.9.' G 8 < < < < < m V V V V V V V 2 $ w G   %.9.9.9.9.1.3 V b b b b M M M M b b b b M M M M ",
"M M M M b b b b M M M M b b b b < %.%.f o 3 V V V V V V V V V V V V V V N 3 3 1 ' %.%.%.%.o.3 V b b b b M M M M b b b b M M M M ",
"M M M M b b b b M M M M b b b b < n n n m V V V V V V V V V V V V V V V V V V B n n n n n n N V b b b b M M M M b b b b M M M M "
};
